<svg width="22" height="16" viewBox="0 0 22 16" fill="none" xmlns="http://www.w3.org/2000/svg">
<g clip-path="url(#clip0_297_4309)">
<g clip-path="url(#clip1_297_4309)">
<path d="M19.9048 0H2.09524C0.93807 0 0 0.955126 0 2.13333V13.8667C0 15.0449 0.93807 16 2.09524 16H19.9048C21.0619 16 22 15.0449 22 13.8667V2.13333C22 0.955126 21.0619 0 19.9048 0Z" fill="#F93939"/>
<path fill-rule="evenodd" clip-rule="evenodd" d="M0 0H7V16H0V0Z" fill="#151515"/>
<path fill-rule="evenodd" clip-rule="evenodd" d="M15 0H22V16H15V0Z" fill="#249F58"/>
<path fill-rule="evenodd" clip-rule="evenodd" d="M10.9999 10.6667C12.4456 10.6667 13.619 9.47201 13.619 8.00001C13.619 6.52801 12.4456 5.33334 10.9999 5.33334C9.55419 5.33334 8.38086 6.52801 8.38086 8.00001C8.38086 9.47201 9.55419 10.6667 10.9999 10.6667ZM10.9999 9.60001C11.8673 9.60001 12.5713 8.64534 12.5713 7.46668C12.5713 6.28801 11.8673 5.33334 10.9999 5.33334C10.1325 5.33334 9.42848 6.28801 9.42848 7.46668C9.42848 8.64534 10.1325 9.60001 10.9999 9.60001ZM10.9999 8.53334C11.2891 8.53334 11.5237 8.05548 11.5237 7.46668C11.5237 6.87788 11.2891 6.40001 10.9999 6.40001C10.7108 6.40001 10.4761 6.87788 10.4761 7.46668C10.4761 8.05548 10.7108 8.53334 10.9999 8.53334Z" fill="white"/>
</g>
</g>
<defs>
<clipPath id="clip0_297_4309">
<rect width="22" height="16" fill="white"/>
</clipPath>
<clipPath id="clip1_297_4309">
<rect width="22" height="16" rx="2" fill="white"/>
</clipPath>
</defs>
</svg>
