<svg width="22" height="16" viewBox="0 0 22 16" fill="none" xmlns="http://www.w3.org/2000/svg">
<g clip-path="url(#clip0_297_4310)">
<g clip-path="url(#clip1_297_4310)">
<rect width="22" height="16" rx="2" fill="white"/>
<path d="M19.9048 0H2.09524C0.93807 0 0 0.955126 0 2.13333V13.8667C0 15.0449 0.93807 16 2.09524 16H19.9048C21.0619 16 22 15.0449 22 13.8667V2.13333C22 0.955126 21.0619 0 19.9048 0Z" fill="white"/>
<path fill-rule="evenodd" clip-rule="evenodd" d="M0 0H11V16H0V0Z" fill="#249F58"/>
<path fill-rule="evenodd" clip-rule="evenodd" d="M13.6737 10.9472C12.8126 12.0747 11.4653 12.8 9.95257 12.8C7.34923 12.8 5.23828 10.6507 5.23828 8.00001C5.23828 5.34935 7.34923 3.20001 9.95257 3.20001C11.4653 3.20001 12.8126 3.92535 13.6737 5.05281C13.0085 4.56001 12.1714 4.26668 11.2621 4.26668C9.09352 4.26668 7.33352 5.93815 7.33352 8.00001C7.33352 10.0619 9.09352 11.7333 11.2621 11.7333C12.1714 11.7333 13.0085 11.44 13.6737 10.9472Z" fill="#F93939"/>
<path fill-rule="evenodd" clip-rule="evenodd" d="M13.6191 7.99999L14.6668 7.46666L15.1906 6.39999L15.7144 7.46666L16.762 7.99999L15.7144 8.53333L15.1906 9.59999L14.6668 8.53333L13.6191 7.99999Z" fill="#F93939"/>
</g>
</g>
<defs>
<clipPath id="clip0_297_4310">
<rect width="22" height="16" fill="white"/>
</clipPath>
<clipPath id="clip1_297_4310">
<rect width="22" height="16" rx="2" fill="white"/>
</clipPath>
</defs>
</svg>
