<svg width="22" height="16" viewBox="0 0 22 16" fill="none" xmlns="http://www.w3.org/2000/svg">
<g clip-path="url(#clip0_297_4300)">
<g clip-path="url(#clip1_297_4300)">
<path d="M19.9048 0H2.09524C0.93807 0 0 0.955126 0 2.13333V13.8667C0 15.0449 0.93807 16 2.09524 16H19.9048C21.0619 16 22 15.0449 22 13.8667V2.13333C22 0.955126 21.0619 0 19.9048 0Z" fill="#FFDA2C"/>
<path fill-rule="evenodd" clip-rule="evenodd" d="M0 0H7V16H0V0Z" fill="#1A47B8"/>
<path fill-rule="evenodd" clip-rule="evenodd" d="M15 0H22V16H15V0Z" fill="#F93939"/>
<path fill-rule="evenodd" clip-rule="evenodd" d="M12.5043 10.5973C13.1475 10.3979 13.619 9.7888 13.619 9.06666V5.86666C13.619 4.976 12.915 4.26666 12.0475 4.26666H9.95229C9.08695 4.26666 8.38086 4.98133 8.38086 5.86666V9.06666C8.38086 9.79413 8.85019 10.4 9.49553 10.5984C9.69038 11.2597 10.2896 11.7333 10.9999 11.7333C11.7144 11.7333 12.3094 11.2533 12.5043 10.5973Z" fill="#D4AF2C"/>
<path fill-rule="evenodd" clip-rule="evenodd" d="M9.42871 5.33334H10.4763V6.93334H9.42871V5.33334ZM11.5239 7.46668H12.5716V9.06668H11.5239V7.46668Z" fill="#AF010D"/>
<path fill-rule="evenodd" clip-rule="evenodd" d="M11.5239 5.33334H12.5716V6.93334H11.5239V5.33334ZM9.42871 7.46668H10.4763V9.06668H9.42871V7.46668Z" fill="#FFDA2C"/>
</g>
</g>
<defs>
<clipPath id="clip0_297_4300">
<rect width="22" height="16" fill="white"/>
</clipPath>
<clipPath id="clip1_297_4300">
<rect width="22" height="16" rx="2" fill="white"/>
</clipPath>
</defs>
</svg>
