<svg width="22" height="16" viewBox="0 0 22 16" fill="none" xmlns="http://www.w3.org/2000/svg">
<g clip-path="url(#clip0_297_4277)">
<g clip-path="url(#clip1_297_4277)">
<path d="M19.9048 0H2.09524C0.93807 0 0 0.955126 0 2.13333V13.8667C0 15.0449 0.93807 16 2.09524 16H19.9048C21.0619 16 22 15.0449 22 13.8667V2.13333C22 0.955126 21.0619 0 19.9048 0Z" fill="white"/>
<path fill-rule="evenodd" clip-rule="evenodd" d="M0 11H22V16H0V11ZM0 0H22V5H0V0Z" fill="#3ECBF8"/>
<path d="M11.0001 9.59999C11.868 9.59999 12.5716 8.88365 12.5716 7.99999C12.5716 7.11634 11.868 6.39999 11.0001 6.39999C10.1323 6.39999 9.42871 7.11634 9.42871 7.99999C9.42871 8.88365 10.1323 9.59999 11.0001 9.59999Z" fill="#FFDA2C"/>
</g>
</g>
<defs>
<clipPath id="clip0_297_4277">
<rect width="22" height="16" fill="white"/>
</clipPath>
<clipPath id="clip1_297_4277">
<rect width="22" height="16" rx="2" fill="white"/>
</clipPath>
</defs>
</svg>
