<svg width="22" height="16" viewBox="0 0 22 16" fill="none" xmlns="http://www.w3.org/2000/svg">
<g clip-path="url(#clip0_297_4270)">
<g clip-path="url(#clip1_297_4270)">
<rect width="22" height="16" rx="2" fill="#3ECBF8"/>
<path d="M19.9048 0H2.09524C0.93807 0 0 0.955126 0 2.13333V13.8667C0 15.0449 0.93807 16 2.09524 16H19.9048C21.0619 16 22 15.0449 22 13.8667V2.13333C22 0.955126 21.0619 0 19.9048 0Z" fill="#3ECBF8"/>
<path fill-rule="evenodd" clip-rule="evenodd" d="M4.69855 4.784C5.60998 4.72533 6.28569 4.51733 6.28569 4.26666C6.28569 4.01706 5.60998 3.808 4.69855 3.74933C4.64093 2.82133 4.43664 2.13333 4.19045 2.13333C3.94531 2.13333 3.73998 2.82133 3.68236 3.74933C2.77093 3.808 2.09521 4.016 2.09521 4.26666C2.09521 4.51626 2.77093 4.72533 3.68236 4.784C3.73998 5.712 3.94426 6.4 4.19045 6.4C4.4356 6.4 4.64093 5.712 4.69855 4.784Z" fill="#F93939"/>
<path fill-rule="evenodd" clip-rule="evenodd" d="M4.69843 4.78401C5.60986 4.72534 6.28557 4.51734 6.28557 4.26667C6.28557 4.01707 5.60986 3.80801 4.69843 3.74934C4.64081 2.82134 4.43653 2.13334 4.19034 2.13334C3.94519 2.13334 3.73986 2.82134 3.68224 3.74934C2.77081 3.80801 2.0951 4.01601 2.0951 4.26667C2.0951 4.51627 2.77081 4.72534 3.68224 4.78401C3.73986 5.71201 3.94415 6.40001 4.19034 6.40001C4.43548 6.40001 4.64081 5.71201 4.69843 4.78401ZM4.72986 5.31734L5.22224 4.81601C5.14367 6.09387 4.88177 6.93334 4.19034 6.93334C3.49891 6.93334 3.237 6.09281 3.15948 4.81707L3.64977 5.31627C2.39681 5.23734 1.57129 4.97067 1.57129 4.26667C1.57129 3.56267 2.39681 3.29601 3.64977 3.21707L3.15948 3.71627C3.237 2.44054 3.49891 1.60001 4.19034 1.60001C4.88177 1.60001 5.14367 2.44054 5.22119 3.71627L4.73091 3.21707C5.98386 3.29601 6.80938 3.56267 6.80938 4.26667C6.80938 4.97067 5.98386 5.23734 4.73091 5.31627L4.72986 5.31734Z" fill="white"/>
<path fill-rule="evenodd" clip-rule="evenodd" d="M0 10H22V11H0V10ZM0 12H22V13H0V12Z" fill="#FFDA2C"/>
</g>
</g>
<defs>
<clipPath id="clip0_297_4270">
<rect width="22" height="16" fill="white"/>
</clipPath>
<clipPath id="clip1_297_4270">
<rect width="22" height="16" rx="2" fill="white"/>
</clipPath>
</defs>
</svg>
