<svg width="22" height="16" viewBox="0 0 22 16" fill="none" xmlns="http://www.w3.org/2000/svg">
<g clip-path="url(#clip0_297_4237)">
<g clip-path="url(#clip1_297_4237)">
<rect width="22" height="16" rx="2" fill="#1A47B8"/>
<path d="M10.9999 12.8C13.6036 12.8 15.7142 10.651 15.7142 8.00001C15.7142 5.34905 13.6036 3.20001 10.9999 3.20001C8.3963 3.20001 6.28564 5.34905 6.28564 8.00001C6.28564 10.651 8.3963 12.8 10.9999 12.8Z" fill="white"/>
<path fill-rule="evenodd" clip-rule="evenodd" d="M8.90479 8.53333H13.0953V9.59999H8.90479V8.53333Z" fill="#CBCBCB"/>
<path fill-rule="evenodd" clip-rule="evenodd" d="M8.38086 5.33333H9.42848V6.4H8.38086V5.33333ZM10.4761 4.26666H11.5237V5.33333H10.4761V4.26666ZM12.5713 5.33333H13.619V6.4H12.5713V5.33333ZM13.619 7.46666H14.6666V8.53333H13.619V7.46666ZM12.5713 9.6H13.619V10.6667H12.5713V9.6Z" fill="#249F58"/>
<path fill-rule="evenodd" clip-rule="evenodd" d="M11.5239 6.39999H12.5715V7.46666H11.5239V6.39999Z" fill="#151515"/>
<path fill-rule="evenodd" clip-rule="evenodd" d="M11.5239 7.46667H12.5715V8.53334H11.5239V7.46667Z" fill="#AE6A3E"/>
<path fill-rule="evenodd" clip-rule="evenodd" d="M9.42871 6.39999H10.4763V7.46666H9.42871V6.39999Z" fill="#AE6A3E"/>
<path fill-rule="evenodd" clip-rule="evenodd" d="M9.42871 7.46667H10.4763V8.53334H9.42871V7.46667Z" fill="#FFDA2C"/>
<path fill-rule="evenodd" clip-rule="evenodd" d="M10.4764 10.6667H11.524V11.7333H10.4764V10.6667ZM8.38112 9.60001H9.42873V10.6667H8.38112V9.60001ZM7.3335 7.46667H8.38112V8.53334H7.3335V7.46667Z" fill="#249F58"/>
<path fill-rule="evenodd" clip-rule="evenodd" d="M0 13.8667H22V16H0V13.8667ZM0 0H22V2.13333H0V0Z" fill="#F93939"/>
</g>
</g>
<defs>
<clipPath id="clip0_297_4237">
<rect width="22" height="16" fill="white"/>
</clipPath>
<clipPath id="clip1_297_4237">
<rect width="22" height="16" rx="2" fill="white"/>
</clipPath>
</defs>
</svg>
