<svg width="22" height="16" viewBox="0 0 22 16" fill="none" xmlns="http://www.w3.org/2000/svg">
<g clip-path="url(#clip0_297_4215)">
<g clip-path="url(#clip1_297_4215)">
<rect width="22" height="16" rx="2" fill="#FFDA2C"/>
<path d="M19.9048 0H2.09524C0.93807 0 0 0.955126 0 2.13333V13.8667C0 15.0449 0.93807 16 2.09524 16H19.9048C21.0619 16 22 15.0449 22 13.8667V2.13333C22 0.955126 21.0619 0 19.9048 0Z" fill="#FFDA2C"/>
<path fill-rule="evenodd" clip-rule="evenodd" d="M0 0L22 14.9333L21.8711 16.1067L0 16V0Z" fill="#1A47B8"/>
<path fill-rule="evenodd" clip-rule="evenodd" d="M1.04785 3.20001H2.09547V4.26668H1.04785V3.20001ZM4.19071 5.33335H5.23833V6.40001H4.19071V5.33335ZM7.33357 7.46668H8.38119V8.53335H7.33357V7.46668ZM10.4764 9.60001H11.524V10.6667H10.4764V9.60001ZM13.6193 11.7333H14.6669V12.8H13.6193V11.7333ZM16.7621 13.8667H17.8098V14.9333H16.7621V13.8667Z" fill="white"/>
</g>
</g>
<defs>
<clipPath id="clip0_297_4215">
<rect width="22" height="16" fill="white"/>
</clipPath>
<clipPath id="clip1_297_4215">
<rect width="22" height="16" rx="2" fill="white"/>
</clipPath>
</defs>
</svg>
