<svg width="22" height="16" viewBox="0 0 22 16" fill="none" xmlns="http://www.w3.org/2000/svg">
<g clip-path="url(#clip0_297_4205)">
<rect width="22" height="16" rx="2" fill="#249F58"/>
<path fill-rule="evenodd" clip-rule="evenodd" d="M11.0002 2.13333L18.8574 8L11.0002 13.8667L3.14307 8" fill="#FFDA2C"/>
<path d="M11.0002 11.7333C13.0252 11.7333 14.6668 10.0619 14.6668 8C14.6668 5.93813 13.0252 4.26666 11.0002 4.26666C8.97512 4.26666 7.3335 5.93813 7.3335 8C7.3335 10.0619 8.97512 11.7333 11.0002 11.7333Z" fill="#1A47B8"/>
<path fill-rule="evenodd" clip-rule="evenodd" d="M9.42871 9.60001V10.6667H10.4763V9.60001H9.42871ZM11.5239 9.60001V10.6667H12.5716V9.60001H11.5239Z" fill="white"/>
<path fill-rule="evenodd" clip-rule="evenodd" d="M8.38086 6.39999C8.38086 6.39999 10.7527 6.82666 12.4624 7.57119L14.6666 8.53333" fill="white"/>
<path d="M8.38086 6.39999C8.38086 6.39999 10.7527 6.82666 12.4624 7.57119L14.6666 8.53333" stroke="white"/>
</g>
<defs>
<clipPath id="clip0_297_4205">
<rect width="22" height="16" fill="white"/>
</clipPath>
</defs>
</svg>
