<svg width="22" height="16" viewBox="0 0 22 16" fill="none" xmlns="http://www.w3.org/2000/svg">
<g clip-path="url(#clip0_297_4177)">
<g clip-path="url(#clip1_297_4177)">
<rect width="22" height="16" rx="2" fill="#F93939"/>
<path fill-rule="evenodd" clip-rule="evenodd" d="M8.38088 5.33334H8.90469L9.4285 6.40001H8.38088V5.33334ZM9.4285 6.40001H10.4761V7.46668H9.4285V6.40001ZM8.38088 7.46668H9.4285V8.53334H8.38088V7.46668ZM7.33326 8.53334H8.38088V9.60001H7.33326V8.53334ZM7.33326 9.60001H8.38088V10.6667H7.33326V9.60001ZM6.80945 9.60001H7.33326V10.6667H6.28564L6.80945 9.60001ZM9.4285 8.53334H11.5237V10.6667H9.4285V8.53334ZM13.619 5.33334H13.0952L12.5714 6.40001H13.619V5.33334ZM12.5714 6.40001H11.5237V7.46668H12.5714V6.40001ZM13.619 7.46668H12.5714V8.53334H13.619V7.46668ZM14.6666 8.53334H13.619V9.60001H14.6666V8.53334ZM14.6666 9.60001H13.619V10.6667H14.6666V9.60001ZM15.1904 9.60001H14.6666V10.6667H15.7142L15.1904 9.60001ZM12.5714 8.53334H11.5237V10.6667H12.5714V8.53334Z" fill="white"/>
<path opacity="0.7" fill-rule="evenodd" clip-rule="evenodd" d="M9.42873 7.46666H10.4764V8.53333H9.42873V7.46666ZM8.38112 8.53333H9.42873V10.6667H8.38112V8.53333ZM8.38112 6.39999H9.42873V7.46666H8.38112V6.39999ZM7.85731 7.46666H8.38112V8.53333H7.3335L7.85731 7.46666ZM12.5716 7.46666H11.524V8.53333H12.5716V7.46666ZM13.6192 8.53333H12.5716V10.6667H13.6192V8.53333ZM13.6192 6.39999H12.5716V7.46666H13.6192V6.39999ZM14.143 7.46666H13.6192V8.53333H14.6668L14.143 7.46666ZM11.524 6.39999H10.4764V8.53333H11.524V6.39999Z" fill="white"/>
<path opacity="0.7" fill-rule="evenodd" clip-rule="evenodd" d="M10.4761 5.33334H11.5237V6.40001H10.4761V5.33334Z" fill="white"/>
<path fill-rule="evenodd" clip-rule="evenodd" d="M0 0H22V4H0V0ZM0 12H22V16H0V12Z" fill="#232C80"/>
</g>
</g>
<defs>
<clipPath id="clip0_297_4177">
<rect width="22" height="16" fill="white"/>
</clipPath>
<clipPath id="clip1_297_4177">
<rect width="22" height="16" rx="2" fill="white"/>
</clipPath>
</defs>
</svg>
