<svg width="22" height="16" viewBox="0 0 22 16" fill="none" xmlns="http://www.w3.org/2000/svg">
<g clip-path="url(#clip0_297_4160)">
<rect width="22" height="16" rx="2" fill="#1A47B8"/>
<path fill-rule="evenodd" clip-rule="evenodd" d="M0 8.53333H22V9.59999H0V8.53333Z" fill="white"/>
<path fill-rule="evenodd" clip-rule="evenodd" d="M0 9.60001H22V10.6667H0V9.60001Z" fill="#F93939"/>
<path fill-rule="evenodd" clip-rule="evenodd" d="M0 10.6667H22V11.7333H0V10.6667Z" fill="white"/>
<path fill-rule="evenodd" clip-rule="evenodd" d="M5.23805 7.46666H6.28567V8.53333H5.23805V7.46666ZM7.33329 6.39999H8.38091V7.46666H7.33329V6.39999ZM9.42852 7.46666H10.4761V8.53333H9.42852V7.46666ZM10.4761 9.59999H11.5238V10.6667H10.4761V9.59999ZM4.19043 9.59999H5.23805V10.6667H4.19043V9.59999ZM9.42852 11.7333H10.4761V12.8H9.42852V11.7333ZM7.33329 12.8H8.38091V13.8667H7.33329V12.8ZM5.23805 11.7333H6.28567V12.8H5.23805V11.7333Z" fill="#FFDA2C"/>
</g>
<defs>
<clipPath id="clip0_297_4160">
<rect width="22" height="16" fill="white"/>
</clipPath>
</defs>
</svg>
