<svg width="22" height="16" viewBox="0 0 22 16" fill="none" xmlns="http://www.w3.org/2000/svg">
<g clip-path="url(#clip0_297_4151)">
<g clip-path="url(#clip1_297_4151)">
<path d="M19.9048 0H2.09524C0.93807 0 0 0.955126 0 2.13333V13.8667C0 15.0449 0.93807 16 2.09524 16H19.9048C21.0619 16 22 15.0449 22 13.8667V2.13333C22 0.955126 21.0619 0 19.9048 0Z" fill="white"/>
<path fill-rule="evenodd" clip-rule="evenodd" d="M0 11H22V16H0V11Z" fill="#FFDA2C"/>
<path fill-rule="evenodd" clip-rule="evenodd" d="M0 9H22V12H0V9Z" fill="#249F58"/>
<path fill-rule="evenodd" clip-rule="evenodd" d="M0 0H22V6H0V0Z" fill="#1A47B8"/>
<path fill-rule="evenodd" clip-rule="evenodd" d="M3.14307 2.13333H4.19069V3.2H3.14307V2.13333Z" fill="#FFDA2C"/>
<path fill-rule="evenodd" clip-rule="evenodd" d="M2.09521 2.13335H3.14283V3.20001H2.09521V2.13335ZM4.19045 2.13335H5.23807V3.20001H4.19045V2.13335ZM3.14283 3.20001H4.19045V4.26668H3.14283V3.20001ZM3.14283 1.06668H4.19045V2.13335H3.14283V1.06668Z" fill="#D4AF2C"/>
<path fill-rule="evenodd" clip-rule="evenodd" d="M9 0H13V16H9V0Z" fill="#F93939"/>
</g>
</g>
<defs>
<clipPath id="clip0_297_4151">
<rect width="22" height="16" fill="white"/>
</clipPath>
<clipPath id="clip1_297_4151">
<rect width="22" height="16" rx="2" fill="white"/>
</clipPath>
</defs>
</svg>
