<svg width="22" height="16" viewBox="0 0 22 16" fill="none" xmlns="http://www.w3.org/2000/svg">
<g clip-path="url(#clip0_297_4125)">
<g clip-path="url(#clip1_297_4125)">
<rect width="22" height="16" rx="2" fill="white"/>
<path fill-rule="evenodd" clip-rule="evenodd" d="M0 0H22V4H0V0Z" fill="#FFDA2C"/>
<path fill-rule="evenodd" clip-rule="evenodd" d="M0 8H22V12H0V8Z" fill="#F93939"/>
<path fill-rule="evenodd" clip-rule="evenodd" d="M0 12H22V16H0V12Z" fill="#232C80"/>
<path fill-rule="evenodd" clip-rule="evenodd" d="M0 0L12.5714 8L0 16V0Z" fill="#00B731"/>
<path fill-rule="evenodd" clip-rule="evenodd" d="M6.28569 11.5627C5.98188 11.6736 5.65712 11.7333 5.31874 11.7333C3.53779 11.7333 2.09521 10.0619 2.09521 8C2.09521 5.93813 3.53883 4.26666 5.31874 4.26666C5.65607 4.26666 5.98083 4.3264 6.28569 4.43733C4.97826 4.91306 4.02912 6.32853 4.02912 8C4.02912 9.67146 4.97826 11.0869 6.28569 11.5627ZM6.28569 5.33333H7.33331V6.4H6.28569V5.33333ZM6.28569 7.46666H7.33331V8.53333H6.28569V7.46666ZM6.28569 9.6H7.33331V10.6667H6.28569V9.6Z" fill="white"/>
</g>
</g>
<defs>
<clipPath id="clip0_297_4125">
<rect width="22" height="16" fill="white"/>
</clipPath>
<clipPath id="clip1_297_4125">
<rect width="22" height="16" rx="2" fill="white"/>
</clipPath>
</defs>
</svg>
