<svg width="22" height="16" viewBox="0 0 22 16" fill="none" xmlns="http://www.w3.org/2000/svg">
<g clip-path="url(#clip0_297_4106)">
<g clip-path="url(#clip1_297_4106)">
<rect width="22" height="16" rx="2" fill="white"/>
<path fill-rule="evenodd" clip-rule="evenodd" d="M0 11H22V16H0V11Z" fill="#1A47B8"/>
<path fill-rule="evenodd" clip-rule="evenodd" d="M0 0H22V5H0V0Z" fill="#F93939"/>
<path fill-rule="evenodd" clip-rule="evenodd" d="M8.38086 4.26666H9.42848V5.33333H8.38086V4.26666ZM10.4761 3.2H11.5237V5.33333H10.4761V3.2ZM12.5713 4.26666H13.619V5.33333H12.5713V4.26666Z" fill="#3A99FF"/>
<path fill-rule="evenodd" clip-rule="evenodd" d="M11.5239 3.2H12.5716V5.33333H11.5239V3.2ZM9.42871 3.2H10.4763V5.33333H9.42871V3.2Z" fill="#1A47B8"/>
<mask id="mask0_297_4106" style="mask-type:alpha" maskUnits="userSpaceOnUse" x="8" y="5" width="6" height="7">
<path d="M13.619 9.06666C13.619 10.5387 12.4456 11.7333 10.9999 11.7333C9.55419 11.7333 8.38086 10.5387 8.38086 9.06666V5.33333H13.619V9.06666Z" fill="white"/>
</mask>
<g mask="url(#mask0_297_4106)">
<path d="M13.619 9.06666C13.619 10.5387 12.4456 11.7333 10.9999 11.7333C9.55419 11.7333 8.38086 10.5387 8.38086 9.06666V5.33333H13.619V9.06666Z" fill="#F93939"/>
<path fill-rule="evenodd" clip-rule="evenodd" d="M9.42848 10.6667H10.4761V11.7333H9.42848V10.6667ZM11.5237 10.6667H12.5713V11.7333H11.5237V10.6667ZM10.4761 9.59999H11.5237V10.6667H10.4761V9.59999ZM9.42848 8.53333H10.4761V9.59999H9.42848V8.53333ZM11.5237 8.53333H12.5713V9.59999H11.5237V8.53333ZM10.4761 7.46666H11.5237V8.53333H10.4761V7.46666ZM9.42848 6.39999H10.4761V7.46666H9.42848V6.39999ZM11.5237 6.39999H12.5713V7.46666H11.5237V6.39999ZM10.4761 5.33333H11.5237V6.39999H10.4761V5.33333ZM12.5713 5.33333H13.619V6.39999H12.5713V5.33333ZM12.5713 7.46666H13.619V8.53333H12.5713V7.46666ZM12.5713 9.59999H13.619V10.6667H12.5713V9.59999ZM8.38086 9.59999H9.42848V10.6667H8.38086V9.59999ZM8.38086 7.46666H9.42848V8.53333H8.38086V7.46666ZM8.38086 5.33333H9.42848V6.39999H8.38086V5.33333Z" fill="white"/>
</g>
</g>
</g>
<defs>
<clipPath id="clip0_297_4106">
<rect width="22" height="16" fill="white"/>
</clipPath>
<clipPath id="clip1_297_4106">
<rect width="22" height="16" rx="2" fill="white"/>
</clipPath>
</defs>
</svg>
