<svg width="22" height="16" viewBox="0 0 22 16" fill="none" xmlns="http://www.w3.org/2000/svg">
<g clip-path="url(#clip0_297_4096)">
<rect width="22" height="16" rx="2" fill="#1A47B8"/>
<path fill-rule="evenodd" clip-rule="evenodd" d="M5.2383 5.33333H4.70966C4.41671 5.33333 4.19069 5.57211 4.19069 5.86666C4.19069 6.1526 4.42304 6.4 4.70966 6.4H5.2383V6.93825C5.2383 7.23653 5.47282 7.46666 5.76211 7.46666C6.04295 7.46666 6.28592 7.23008 6.28592 6.93825V6.4H6.81456C7.10752 6.4 7.33354 6.16122 7.33354 5.86666C7.33354 5.58073 7.10119 5.33333 6.81456 5.33333H6.28592V4.79508C6.28592 4.4968 6.05141 4.26666 5.76211 4.26666C5.48128 4.26666 5.2383 4.50324 5.2383 4.79508V5.33333ZM3.14307 3.2H4.19069V4.26666H3.14307V3.2Z" fill="white"/>
<path d="M22 10H0V12H22V10Z" fill="#FFDA2C"/>
</g>
<defs>
<clipPath id="clip0_297_4096">
<rect width="22" height="16" fill="white"/>
</clipPath>
</defs>
</svg>
