<svg width="22" height="16" viewBox="0 0 22 16" fill="none" xmlns="http://www.w3.org/2000/svg">
<g clip-path="url(#clip0_297_4066)">
<g clip-path="url(#clip1_297_4066)">
<rect width="22" height="16" rx="2" fill="#249F58"/>
<path fill-rule="evenodd" clip-rule="evenodd" d="M10.4762 7.46667H0V8.53333H10.4762V16H11.5238V8.53333H22V7.46667H11.5238V0H10.4762V7.46667Z" fill="#151515"/>
<path fill-rule="evenodd" clip-rule="evenodd" d="M9.42857 6.4V7.46667H10.4762V0H9.42857V6.4H0V7.46667H10.4762V6.4H9.42857ZM10.4762 7.46667H22V6.4H9.42857V7.46667H10.4762V6.4H9.42857V16H10.4762V7.46667Z" fill="#FFDA2C"/>
<path fill-rule="evenodd" clip-rule="evenodd" d="M12.5714 9.6V8.53333H11.5238V16H12.5714V9.6H22V8.53333H11.5238V9.6H12.5714ZM0 8.53333H13.619V9.6H0V8.53333ZM11.5238 0H12.5714V9.6H11.5238V0Z" fill="white"/>
<path d="M11.0002 11.7333C13.0252 11.7333 14.6668 10.0619 14.6668 8C14.6668 5.93813 13.0252 4.26666 11.0002 4.26666C8.97512 4.26666 7.3335 5.93813 7.3335 8C7.3335 10.0619 8.97512 11.7333 11.0002 11.7333Z" fill="#F93939"/>
<path fill-rule="evenodd" clip-rule="evenodd" d="M9.42871 6.39999H10.4763V7.46666H9.42871V6.39999ZM11.5239 6.39999H12.5716V7.46666H11.5239V6.39999ZM11.5239 8.53333H12.5716V9.59999H11.5239V8.53333ZM9.42871 8.53333H10.4763V9.59999H9.42871V8.53333Z" fill="#0A6A30"/>
<path fill-rule="evenodd" clip-rule="evenodd" d="M10.4761 6.39999H11.5237V8.53333H10.4761V6.39999Z" fill="#955DCC"/>
</g>
</g>
<defs>
<clipPath id="clip0_297_4066">
<rect width="22" height="16" fill="white"/>
</clipPath>
<clipPath id="clip1_297_4066">
<rect width="22" height="16" rx="2" fill="white"/>
</clipPath>
</defs>
</svg>
