<svg width="22" height="16" viewBox="0 0 22 16" fill="none" xmlns="http://www.w3.org/2000/svg">
<g clip-path="url(#clip0_297_4046)">
<g clip-path="url(#clip1_297_4046)">
<path d="M19.9048 0H2.09524C0.93807 0 0 0.955126 0 2.13333V13.8667C0 15.0449 0.93807 16 2.09524 16H19.9048C21.0619 16 22 15.0449 22 13.8667V2.13333C22 0.955126 21.0619 0 19.9048 0Z" fill="#1A47B8"/>
<path fill-rule="evenodd" clip-rule="evenodd" d="M0 12H22V16H0V12Z" fill="#F93939"/>
<path fill-rule="evenodd" clip-rule="evenodd" d="M0 0H22V8H0V0Z" fill="#FFDA2C"/>
<path fill-rule="evenodd" clip-rule="evenodd" d="M6.28564 4.26666H9.4285L10.9999 5.33333L12.5714 4.26666H15.7142L12.5714 5.33333L11.5237 6.4H10.4761L9.4285 5.33333L6.28564 4.26666Z" fill="#151515"/>
<path d="M11.0001 10.6667C11.868 10.6667 12.5716 9.71153 12.5716 8.53333C12.5716 7.35512 11.868 6.39999 11.0001 6.39999C10.1323 6.39999 9.42871 7.35512 9.42871 8.53333C9.42871 9.71153 10.1323 10.6667 11.0001 10.6667Z" fill="#3ECBF8"/>
<path fill-rule="evenodd" clip-rule="evenodd" d="M8.38112 7.46666V9.59999L10.4764 10.6667H11.524L13.6192 9.59999V7.46666L14.6668 9.59999L13.6192 10.6667L11.524 11.7333H10.4764L8.38112 10.6667L7.3335 9.59999L8.38112 7.46666Z" fill="#FFDA2C"/>
</g>
</g>
<defs>
<clipPath id="clip0_297_4046">
<rect width="22" height="16" fill="white"/>
</clipPath>
<clipPath id="clip1_297_4046">
<rect width="22" height="16" rx="2" fill="white"/>
</clipPath>
</defs>
</svg>
