<svg width="22" height="16" viewBox="0 0 22 16" fill="none" xmlns="http://www.w3.org/2000/svg">
<g clip-path="url(#clip0_297_4025)">
<g clip-path="url(#clip1_297_4025)">
<rect width="22" height="16" rx="2" fill="white"/>
<path fill-rule="evenodd" clip-rule="evenodd" d="M0 11H22V16H0V11Z" fill="#F93939"/>
<path fill-rule="evenodd" clip-rule="evenodd" d="M0 0H22V5H0V0Z" fill="#00B731"/>
<path fill-rule="evenodd" clip-rule="evenodd" d="M10.9999 7.46666C11.289 7.46666 11.5237 7.22773 11.5237 6.93333C11.5237 6.63893 11.289 6.39999 10.9999 6.39999C10.7107 6.39999 10.4761 6.63893 10.4761 6.93333C10.4761 7.22773 10.7107 7.46666 10.9999 7.46666ZM13.0951 7.46666C13.3843 7.46666 13.6189 7.22773 13.6189 6.93333C13.6189 6.63893 13.3843 6.39999 13.0951 6.39999C12.806 6.39999 12.5713 6.63893 12.5713 6.93333C12.5713 7.22773 12.806 7.46666 13.0951 7.46666ZM15.1904 7.46666C15.4795 7.46666 15.7142 7.22773 15.7142 6.93333C15.7142 6.63893 15.4795 6.39999 15.1904 6.39999C14.9012 6.39999 14.6666 6.63893 14.6666 6.93333C14.6666 7.22773 14.9012 7.46666 15.1904 7.46666Z" fill="#FFDA2C"/>
<path fill-rule="evenodd" clip-rule="evenodd" d="M12.0477 8.53333C12.3369 8.53333 12.5715 8.29439 12.5715 7.99999C12.5715 7.70559 12.3369 7.46666 12.0477 7.46666C11.7586 7.46666 11.5239 7.70559 11.5239 7.99999C11.5239 8.29439 11.7586 8.53333 12.0477 8.53333ZM14.143 8.53333C14.4321 8.53333 14.6668 8.29439 14.6668 7.99999C14.6668 7.70559 14.4321 7.46666 14.143 7.46666C13.8538 7.46666 13.6192 7.70559 13.6192 7.99999C13.6192 8.29439 13.8538 8.53333 14.143 8.53333Z" fill="#00B731"/>
<path fill-rule="evenodd" clip-rule="evenodd" d="M12.5713 7.46666H13.6189V9.59999H12.5713V7.46666Z" fill="#AE6A3E"/>
<path fill-rule="evenodd" clip-rule="evenodd" d="M0 0V16.0352L7.33333 8L0 0Z" fill="#3A99FF"/>
</g>
</g>
<defs>
<clipPath id="clip0_297_4025">
<rect width="22" height="16" fill="white"/>
</clipPath>
<clipPath id="clip1_297_4025">
<rect width="22" height="16" rx="2" fill="white"/>
</clipPath>
</defs>
</svg>
