<svg width="22" height="16" viewBox="0 0 22 16" fill="none" xmlns="http://www.w3.org/2000/svg">
<g clip-path="url(#clip0_297_3990)">
<rect width="22" height="16" rx="2" fill="#3ECBF8"/>
<path fill-rule="evenodd" clip-rule="evenodd" d="M18.8572 10.6667V6.93333C18.8572 6.04266 18.1532 5.33333 17.2858 5.33333H15.1906C14.3252 5.33333 13.6191 6.04799 13.6191 6.93333V10.6667C13.6191 10.8608 14.6668 12.8 16.2382 12.8C17.8096 12.8 18.8572 10.8555 18.8572 10.6667Z" fill="white"/>
<path fill-rule="evenodd" clip-rule="evenodd" d="M16.762 8.53333V9.72586H18.8572V10.752H16.762V12.8H15.7144V10.752H13.6191V9.72586H15.7144V8.53333H13.6191V5.33333H18.8572V8.53333H16.762Z" fill="#F93939"/>
<path fill-rule="evenodd" clip-rule="evenodd" d="M14.6665 6.39999H17.8094V7.46666H14.6665V6.39999Z" fill="#FFDA2C"/>
<path d="M9.4288 1.06667H2.09547C1.51689 1.06667 1.04785 1.54423 1.04785 2.13333V7.46667C1.04785 8.05577 1.51689 8.53333 2.09547 8.53333H9.4288C10.0074 8.53333 10.4764 8.05577 10.4764 7.46667V2.13333C10.4764 1.54423 10.0074 1.06667 9.4288 1.06667Z" fill="white"/>
<path fill-rule="evenodd" clip-rule="evenodd" d="M5.23807 5.33333H2.09521V4.26666H5.23807V2.13333H6.28569V4.26666H9.42855V5.33333H6.28569V7.46666H5.23807V5.33333ZM7.85712 6.4V7.46666H9.42855V6.4H7.85712ZM7.85712 2.13333V3.2H9.42855V2.13333H7.85712ZM2.09521 6.4V7.46666H3.66664V6.4H2.09521ZM2.09521 2.13333V3.2H3.66664V2.13333H2.09521Z" fill="#F93939"/>
</g>
<defs>
<clipPath id="clip0_297_3990">
<rect width="22" height="16" fill="white"/>
</clipPath>
</defs>
</svg>
