<svg width="22" height="16" viewBox="0 0 22 16" fill="none" xmlns="http://www.w3.org/2000/svg">
<g clip-path="url(#clip0_297_3969)">
<g clip-path="url(#clip1_297_3969)">
<rect width="22" height="16" rx="2" fill="white"/>
<path fill-rule="evenodd" clip-rule="evenodd" d="M9.42857 9.6H0V6.4H9.42857V0H12.5714V6.4H22V9.6H12.5714V16H9.42857V9.6Z" fill="#F93939"/>
<path fill-rule="evenodd" clip-rule="evenodd" d="M15.7142 11.7333H14.6666V12.8H15.7142V13.8667H16.7619V12.8H17.8095V11.7333H16.7619V10.6667H15.7142V11.7333ZM15.7142 3.2H14.6666V4.26666H15.7142V5.33333H16.7619V4.26666H17.8095V3.2H16.7619V2.13333H15.7142V3.2ZM5.23805 3.2H4.19043V4.26666H5.23805V5.33333H6.28567V4.26666H7.33329V3.2H6.28567V2.13333H5.23805V3.2ZM5.23805 11.7333H4.19043V12.8H5.23805V13.8667H6.28567V12.8H7.33329V11.7333H6.28567V10.6667H5.23805V11.7333Z" fill="#F93939"/>
</g>
</g>
<defs>
<clipPath id="clip0_297_3969">
<rect width="22" height="16" fill="white"/>
</clipPath>
<clipPath id="clip1_297_3969">
<rect width="22" height="16" rx="2" fill="white"/>
</clipPath>
</defs>
</svg>
