<svg width="22" height="16" viewBox="0 0 22 16" fill="none" xmlns="http://www.w3.org/2000/svg">
<g clip-path="url(#clip0_297_3899)">
<rect width="22" height="16" rx="2" fill="#F93939"/>
<path fill-rule="evenodd" clip-rule="evenodd" d="M10.6387 8.01493C7.79753 6.7904 9.05676 3.01866 11.7753 3.2064C11.2243 3.4944 11.1447 4.032 11.459 4.52906C11.811 5.088 11.4275 5.98506 10.9519 6.20373C10.1704 6.56106 10.0143 7.51573 10.6376 8.01493H10.6387ZM10.8765 7.8848C11.1415 4.75626 15.0565 4.8096 15.7165 7.49866C15.2786 7.056 14.7527 7.14453 14.3839 7.6032C13.9722 8.1152 13.0157 8.0192 12.6658 7.62773C12.0896 6.98346 11.1468 7.1264 10.8765 7.88586V7.8848ZM10.9729 8.19733C13.99 7.54133 15.0837 11.3675 12.7507 12.7989C13.0398 12.2411 12.8031 11.7536 12.2646 11.5296C11.6632 11.2779 11.4726 10.3189 11.7387 9.86346C12.1766 9.1136 11.7659 8.23893 10.9739 8.19626L10.9729 8.19733ZM7.07153 11.712C7.67915 11.8187 8.06153 11.4379 8.10448 10.848C8.15372 10.1867 8.98972 9.70666 9.49781 9.824C10.3338 10.016 11.0242 9.34826 10.8178 8.56746C12.3641 11.2875 9.128 13.5275 7.07048 11.7109L7.07153 11.712ZM6.4461 5.86666C6.56657 6.4832 7.05162 6.70933 7.60896 6.53866C8.23229 6.3488 8.97295 6.97173 9.04734 7.49866C9.17095 8.36053 10.03 8.77653 10.6711 8.30293C8.73305 10.7456 5.51686 8.4736 6.4461 5.8656V5.86666Z" fill="white"/>
</g>
<defs>
<clipPath id="clip0_297_3899">
<rect width="22" height="16" fill="white"/>
</clipPath>
</defs>
</svg>
