<svg width="22" height="16" viewBox="0 0 22 16" fill="none" xmlns="http://www.w3.org/2000/svg">
<g clip-path="url(#clip0_297_3885)">
<g clip-path="url(#clip1_297_3885)">
<rect width="22" height="16" rx="2" fill="white"/>
<path fill-rule="evenodd" clip-rule="evenodd" d="M10.9999 10.6667C12.4456 10.6667 13.619 9.472 13.619 8C13.619 6.528 12.4456 5.33334 10.9999 5.33334C9.55419 5.33334 8.38086 6.528 8.38086 8C8.38086 9.472 9.55419 10.6667 10.9999 10.6667ZM10.9999 9.6C11.8673 9.6 12.5713 8.8832 12.5713 8C12.5713 7.1168 11.8673 6.4 10.9999 6.4C10.1325 6.4 9.42848 7.1168 9.42848 8C9.42848 8.8832 10.1325 9.6 10.9999 9.6Z" fill="#1A47B8"/>
<path d="M10.9999 8.53333C11.2892 8.53333 11.5237 8.29455 11.5237 8C11.5237 7.70545 11.2892 7.46667 10.9999 7.46667C10.7106 7.46667 10.4761 7.70545 10.4761 8C10.4761 8.29455 10.7106 8.53333 10.9999 8.53333Z" fill="#1A47B8"/>
<path fill-rule="evenodd" clip-rule="evenodd" d="M0 11H22V16H0V11Z" fill="#249F58"/>
<path fill-rule="evenodd" clip-rule="evenodd" d="M0 0H22V5H0V0Z" fill="#FF6C2D"/>
</g>
</g>
<defs>
<clipPath id="clip0_297_3885">
<rect width="22" height="16" fill="white"/>
</clipPath>
<clipPath id="clip1_297_3885">
<rect width="22" height="16" rx="2" fill="white"/>
</clipPath>
</defs>
</svg>
