<svg width="22" height="16" viewBox="0 0 22 16" fill="none" xmlns="http://www.w3.org/2000/svg">
<g clip-path="url(#clip0_297_3836)">
<rect width="22" height="16" rx="2" fill="#03BCDB"/>
<path fill-rule="evenodd" clip-rule="evenodd" d="M2.09521 2.66133C2.09521 2.37013 2.33826 2.13333 2.61902 2.13333C2.90817 2.13333 3.14283 2.36373 3.14283 2.66133V4.80533C3.14283 5.09653 2.89979 5.33333 2.61902 5.33333C2.32988 5.33333 2.09521 5.10293 2.09521 4.80533V2.66133ZM3.14283 4.79466C3.14283 4.50346 3.38588 4.26666 3.66664 4.26666C3.95579 4.26666 4.19045 4.49706 4.19045 4.79466V6.93866C4.19045 7.22987 3.94741 7.46666 3.66664 7.46666C3.3775 7.46666 3.14283 7.23627 3.14283 6.93866V4.79466ZM3.14283 9.06133C3.14283 8.77013 3.38588 8.53333 3.66664 8.53333C3.95579 8.53333 4.19045 8.76373 4.19045 9.06133V11.2053C4.19045 11.4965 3.94741 11.7333 3.66664 11.7333C3.3775 11.7333 3.14283 11.5029 3.14283 11.2053V9.06133ZM2.09521 11.1947C2.09521 10.9035 2.33826 10.6667 2.61902 10.6667C2.90817 10.6667 3.14283 10.8971 3.14283 11.1947V13.3387C3.14283 13.6299 2.89979 13.8667 2.61902 13.8667C2.32988 13.8667 2.09521 13.6363 2.09521 13.3387V11.1947ZM2.09521 6.93333C2.09521 6.63893 2.33826 6.4 2.61902 6.4C2.90817 6.4 3.14283 6.64746 3.14283 6.93333C3.14283 7.22773 2.89979 7.46666 2.61902 7.46666C2.32988 7.46666 2.09521 7.2192 2.09521 6.93333ZM3.14283 2.66666C3.14283 2.37226 3.38588 2.13333 3.66664 2.13333C3.95579 2.13333 4.19045 2.3808 4.19045 2.66666C4.19045 2.96106 3.94741 3.2 3.66664 3.2C3.3775 3.2 3.14283 2.95253 3.14283 2.66666ZM2.09521 8C2.09521 7.7056 2.33826 7.46666 2.61902 7.46666C2.90817 7.46666 3.14283 7.71413 3.14283 8C3.14283 8.2944 2.89979 8.53333 2.61902 8.53333C2.32988 8.53333 2.09521 8.28586 2.09521 8ZM3.14283 13.3333C3.14283 13.0389 3.38588 12.8 3.66664 12.8C3.95579 12.8 4.19045 13.0475 4.19045 13.3333C4.19045 13.6277 3.94741 13.8667 3.66664 13.8667C3.3775 13.8667 3.14283 13.6192 3.14283 13.3333ZM2.09521 9.06667C2.09521 8.77226 2.33826 8.53333 2.61902 8.53333C2.90817 8.53333 3.14283 8.7808 3.14283 9.06667C3.14283 9.36106 2.89979 9.6 2.61902 9.6C2.32988 9.6 2.09521 9.35253 2.09521 9.06667Z" fill="#FFDA2C"/>
<path d="M12.0478 9.6C13.4942 9.6 14.6668 8.4061 14.6668 6.93334C14.6668 5.46058 13.4942 4.26667 12.0478 4.26667C10.6013 4.26667 9.42871 5.46058 9.42871 6.93334C9.42871 8.4061 10.6013 9.6 12.0478 9.6Z" fill="#FFDA2C"/>
<path fill-rule="evenodd" clip-rule="evenodd" d="M8.38086 7.46667L9.42848 9.6L12.0475 10.6667L14.6666 9.6L15.7142 7.46667V10.6667L12.0475 11.7333L8.38086 10.6667V7.46667Z" fill="#FFDA2C"/>
</g>
<defs>
<clipPath id="clip0_297_3836">
<rect width="22" height="16" fill="white"/>
</clipPath>
</defs>
</svg>
