<svg width="22" height="16" viewBox="0 0 22 16" fill="none" xmlns="http://www.w3.org/2000/svg">
<g clip-path="url(#clip0_297_3826)">
<g clip-path="url(#clip1_297_3826)">
<rect width="22" height="16" rx="2" fill="#151515"/>
<path fill-rule="evenodd" clip-rule="evenodd" d="M0 10.6667H22V11.7333H0V10.6667Z" fill="white"/>
<path fill-rule="evenodd" clip-rule="evenodd" d="M0 11.7333H22V16H0V11.7333Z" fill="#0A6A30"/>
<path fill-rule="evenodd" clip-rule="evenodd" d="M0 5.33334H22V10.6667H0V5.33334Z" fill="#F93939"/>
<path fill-rule="evenodd" clip-rule="evenodd" d="M0 4.26667H22V5.33334H0V4.26667Z" fill="white"/>
<path fill-rule="evenodd" clip-rule="evenodd" d="M13.0051 6.30827C13.0805 6.30827 13.5289 5.5936 13.5289 4.70827C13.5289 3.82507 13.0805 3.10827 13.0051 3.10827C12.9317 3.10827 12.4813 3.82507 12.4813 4.70827C12.4813 5.5936 12.9317 6.30827 13.0051 6.30827ZM9.92613 5.84C9.87375 5.89334 9.0566 5.712 8.44479 5.08587C7.83194 4.4608 7.65175 3.63094 7.70518 3.5776C7.75756 3.52427 8.5726 3.7056 9.18651 4.33174C9.80041 4.9568 9.97956 5.78667 9.92718 5.84107L9.92613 5.84ZM11.8946 10.6752C11.947 10.6251 12.7641 10.7957 13.377 11.3792C13.9898 11.9659 14.17 12.7413 14.1177 12.7915C14.0653 12.8416 13.2481 12.6709 12.6342 12.0875C12.0214 11.5008 11.8412 10.7253 11.8946 10.6752ZM9.92613 10.6752C9.87375 10.6251 9.0566 10.7957 8.44479 11.3792C7.83194 11.9659 7.65175 12.7413 7.70518 12.7915C7.75756 12.8416 8.5726 12.6709 9.18651 12.0875C9.80041 11.5008 9.97956 10.7253 9.92718 10.6752H9.92613Z" fill="white"/>
<path fill-rule="evenodd" clip-rule="evenodd" d="M10.9999 12.8C11.3739 12.8 13.619 10.6507 13.619 8C13.619 5.34933 11.3739 3.2 10.9999 3.2C10.6259 3.2 8.38086 5.34933 8.38086 8C8.38086 10.6507 10.6259 12.8 10.9999 12.8Z" fill="#F93939"/>
<path fill-rule="evenodd" clip-rule="evenodd" d="M8.90467 9.6C8.978 9.6 9.42848 8.8832 9.42848 8C9.42848 7.1168 8.978 6.4 8.90467 6.4C8.83134 6.4 8.38086 7.1168 8.38086 8C8.38086 8.8832 8.83134 9.6 8.90467 9.6ZM13.0951 9.6C13.1685 9.6 13.619 8.8832 13.619 8C13.619 7.1168 13.1685 6.4 13.0951 6.4C13.0218 6.4 12.5713 7.1168 12.5713 8C12.5713 8.8832 13.0218 9.6 13.0951 9.6Z" fill="#151515"/>
<path d="M11.5237 8C11.5237 7.11635 11.2892 6.4 10.9999 6.4C10.7106 6.4 10.4761 7.11635 10.4761 8C10.4761 8.88366 10.7106 9.6 10.9999 9.6C11.2892 9.6 11.5237 8.88366 11.5237 8Z" fill="white"/>
</g>
</g>
<defs>
<clipPath id="clip0_297_3826">
<rect width="22" height="16" fill="white"/>
</clipPath>
<clipPath id="clip1_297_3826">
<rect width="22" height="16" rx="2" fill="white"/>
</clipPath>
</defs>
</svg>
