<svg width="22" height="16" viewBox="0 0 22 16" fill="none" xmlns="http://www.w3.org/2000/svg">
<g clip-path="url(#clip0_297_3811)">
<rect width="22" height="16" rx="2" fill="#F93939"/>
<path fill-rule="evenodd" clip-rule="evenodd" d="M10.6919 10.1173C10.7935 10.128 10.8962 10.1333 10.9999 10.1333C11.1047 10.1333 11.2063 10.128 11.3079 10.1173L10.9999 9.33334L10.6919 10.1173ZM9.27134 9.536C8.72343 9.0944 8.38086 8.45014 8.38086 7.73334C8.38086 6.88747 8.85857 6.144 9.57934 5.71734L10.4761 8L9.27134 9.536ZM12.4205 5.71734C13.1412 6.144 13.619 6.88747 13.619 7.73334C13.619 8.4512 13.2753 9.09547 12.7285 9.536L11.5237 8L12.4205 5.71734ZM12.3157 5.6576C11.9281 5.45067 11.4797 5.33334 10.9999 5.33334C10.5201 5.33334 10.0707 5.45067 9.6841 5.6576L10.9999 7.33227L12.3157 5.6576Z" fill="#FFDA2C"/>
<path fill-rule="evenodd" clip-rule="evenodd" d="M10.9999 12.8C13.6033 12.8 15.7142 10.6507 15.7142 8C15.7142 5.34933 13.6033 3.2 10.9999 3.2C8.3966 3.2 6.28564 5.34933 6.28564 8C6.28564 10.6507 8.3966 12.8 10.9999 12.8ZM10.9999 11.7333C13.025 11.7333 14.6666 10.0619 14.6666 8C14.6666 5.93813 13.025 4.26666 10.9999 4.26666C8.97488 4.26666 7.33326 5.93813 7.33326 8C7.33326 10.0619 8.97488 11.7333 10.9999 11.7333Z" fill="#FFDA2C"/>
</g>
<defs>
<clipPath id="clip0_297_3811">
<rect width="22" height="16" fill="white"/>
</clipPath>
</defs>
</svg>
