<svg width="22" height="16" viewBox="0 0 22 16" fill="none" xmlns="http://www.w3.org/2000/svg">
<g clip-path="url(#clip0_297_3795)">
<g clip-path="url(#clip1_297_3795)">
<rect width="22" height="16" rx="2" fill="white"/>
<path fill-rule="evenodd" clip-rule="evenodd" d="M10.5809 6.18667L9.42848 8.53334H12.5713L11.419 6.18667C11.485 6.09707 11.5237 5.9872 11.5237 5.86667C11.5237 5.57227 11.2891 5.33334 10.9999 5.33334C10.7108 5.33334 10.4761 5.57227 10.4761 5.86667C10.4761 5.9872 10.5149 6.09707 10.5809 6.18667ZM13.619 9.6C13.619 10.1888 12.4456 10.6667 10.9999 10.6667C9.55419 10.6667 8.38086 10.1888 8.38086 9.6V8.53334H13.619V9.6Z" fill="#151515"/>
<path fill-rule="evenodd" clip-rule="evenodd" d="M0 12H22V16H0V12Z" fill="#249F58"/>
<path fill-rule="evenodd" clip-rule="evenodd" d="M0 0H22V4H0V0Z" fill="#1A47B8"/>
</g>
</g>
<defs>
<clipPath id="clip0_297_3795">
<rect width="22" height="16" fill="white"/>
</clipPath>
<clipPath id="clip1_297_3795">
<rect width="22" height="16" rx="2" fill="white"/>
</clipPath>
</defs>
</svg>
