<svg width="22" height="16" viewBox="0 0 22 16" fill="none" xmlns="http://www.w3.org/2000/svg">
<g clip-path="url(#clip0_297_3779)">
<rect width="22" height="16" rx="2" fill="#F93939"/>
<path fill-rule="evenodd" clip-rule="evenodd" d="M0 0H22V8H0V0Z" fill="#1A47B8"/>
<path fill-rule="evenodd" clip-rule="evenodd" d="M4.19043 5.33333H8.38091V6.4H4.19043V5.33333Z" fill="#D4AF2C"/>
<path fill-rule="evenodd" clip-rule="evenodd" d="M5.24878 3.35147C4.92611 3.26613 4.55735 3.2 4.19069 3.2C3.14307 3.2 3.14307 3.73334 3.14307 4.26667C3.14307 4.8 4.19069 5.33333 4.19069 5.33333H8.38116C8.38116 5.33333 9.42878 4.8 9.42878 4.26667C9.42878 3.73334 9.42878 3.2 8.38116 3.2C8.01449 3.2 7.64573 3.26613 7.32307 3.35147C7.3304 3.30133 7.33354 3.2512 7.33354 3.2C7.33354 2.6112 6.86421 2.13334 6.28592 2.13334C5.70764 2.13334 5.2383 2.6112 5.2383 3.2C5.2383 3.2512 5.24145 3.30133 5.24878 3.35147Z" fill="#FFDA2C"/>
</g>
<defs>
<clipPath id="clip0_297_3779">
<rect width="22" height="16" fill="white"/>
</clipPath>
</defs>
</svg>
