<svg width="22" height="16" viewBox="0 0 22 16" fill="none" xmlns="http://www.w3.org/2000/svg">
<g clip-path="url(#clip0_297_3749)">
<rect width="22" height="16" rx="2" fill="white"/>
<rect width="22" height="1.14872" fill="#AF010D"/>
<rect y="2.29744" width="22" height="1.14872" fill="#AF010D"/>
<rect y="4.59487" width="22" height="1.14872" fill="#AF010D"/>
<rect y="6.89231" width="22" height="1.14872" fill="#AF010D"/>
<rect y="9.18974" width="22" height="1.14872" fill="#AF010D"/>
<rect y="11.4872" width="22" height="1.14872" fill="#AF010D"/>
<rect y="13.7846" width="22" height="1.14872" fill="#AF010D"/>
<path fill-rule="evenodd" clip-rule="evenodd" d="M0 0H11.5238V9.19467H0V0Z" fill="#1A47B8"/>
<path fill-rule="evenodd" clip-rule="evenodd" d="M7.3335 4.26667H8.38112V5.33333H7.3335V4.26667Z" fill="#FFDA2C"/>
<path fill-rule="evenodd" clip-rule="evenodd" d="M7.85735 6.4C7.37964 7.04747 6.61907 7.46667 5.76211 7.46667C4.3164 7.46667 3.14307 6.272 3.14307 4.8C3.14307 3.328 4.3164 2.13334 5.76211 2.13334C6.61907 2.13334 7.37964 2.55254 7.85735 3.2H6.28592C5.4185 3.2 4.7145 3.9168 4.7145 4.8C4.7145 5.6832 5.4185 6.4 6.28592 6.4H7.85735Z" fill="#FFDA2C"/>
</g>
<defs>
<clipPath id="clip0_297_3749">
<rect width="22" height="16" fill="white"/>
</clipPath>
</defs>
</svg>
