<svg width="22" height="16" viewBox="0 0 22 16" fill="none" xmlns="http://www.w3.org/2000/svg">
<g clip-path="url(#clip0_297_3710)">
<rect width="22" height="16" rx="2" fill="#3A99FF"/>
<path fill-rule="evenodd" clip-rule="evenodd" d="M10.4764 4.26667H9.94733C9.654 4.26667 9.42876 4.5056 9.42876 4.8C9.42876 5.08587 9.66133 5.33333 9.94733 5.33333H10.4764V5.872C10.4764 6.17067 10.711 6.4 11.0002 6.4C11.2809 6.4 11.524 6.1632 11.524 5.872V5.33333H12.053C12.3464 5.33333 12.5716 5.0944 12.5716 4.8C12.5716 4.51413 12.339 4.26667 12.053 4.26667H11.524V3.728C11.524 3.42933 11.2893 3.2 11.0002 3.2C10.7194 3.2 10.4764 3.4368 10.4764 3.728V4.26667ZM14.6669 7.46667H14.1378C13.8445 7.46667 13.6192 7.7056 13.6192 8C13.6192 8.28587 13.8518 8.53333 14.1378 8.53333H14.6669V9.072C14.6669 9.37067 14.9015 9.6 15.1907 9.6C15.4714 9.6 15.7145 9.3632 15.7145 9.072V8.53333H16.2435C16.5369 8.53333 16.7621 8.2944 16.7621 8C16.7621 7.71413 16.5295 7.46667 16.2435 7.46667H15.7145V6.928C15.7145 6.62933 15.4798 6.4 15.1907 6.4C14.9099 6.4 14.6669 6.6368 14.6669 6.928V7.46667ZM10.4764 10.6667H9.94733C9.654 10.6667 9.42876 10.9056 9.42876 11.2C9.42876 11.4859 9.66133 11.7333 9.94733 11.7333H10.4764V12.272C10.4764 12.5707 10.711 12.8 11.0002 12.8C11.2809 12.8 11.524 12.5632 11.524 12.272V11.7333H12.053C12.3464 11.7333 12.5716 11.4944 12.5716 11.2C12.5716 10.9141 12.339 10.6667 12.053 10.6667H11.524V10.128C11.524 9.82933 11.2893 9.6 11.0002 9.6C10.7194 9.6 10.4764 9.8368 10.4764 10.128V10.6667ZM6.2859 7.46667H5.75685C5.46352 7.46667 5.23828 7.7056 5.23828 8C5.23828 8.28587 5.47085 8.53333 5.75685 8.53333H6.2859V9.072C6.2859 9.37067 6.52057 9.6 6.80971 9.6C7.09047 9.6 7.33352 9.3632 7.33352 9.072V8.53333H7.86257C8.1559 8.53333 8.38114 8.2944 8.38114 8C8.38114 7.71413 8.14857 7.46667 7.86257 7.46667H7.33352V6.928C7.33352 6.62933 7.09885 6.4 6.80971 6.4C6.52895 6.4 6.2859 6.6368 6.2859 6.928V7.46667Z" fill="white"/>
</g>
<defs>
<clipPath id="clip0_297_3710">
<rect width="22" height="16" fill="white"/>
</clipPath>
</defs>
</svg>
