<svg width="22" height="16" viewBox="0 0 22 16" fill="none" xmlns="http://www.w3.org/2000/svg">
<g clip-path="url(#clip0_297_3691)">
<g clip-path="url(#clip1_297_3691)">
<rect width="22" height="16" rx="2" fill="#1A47B8"/>
<path fill-rule="evenodd" clip-rule="evenodd" d="M0 0H7.33333V16H0V0Z" fill="#F93939"/>
<path fill-rule="evenodd" clip-rule="evenodd" d="M2.09521 7.46667H3.14283V11.7333H2.09521V7.46667ZM5.23807 7.46667H6.28569V11.7333H5.23807V7.46667Z" fill="#FFDA2C"/>
<path d="M4.19069 11.7333C4.76927 11.7333 5.2383 11.2558 5.2383 10.6667C5.2383 10.0776 4.76927 9.6 4.19069 9.6C3.6121 9.6 3.14307 10.0776 3.14307 10.6667C3.14307 11.2558 3.6121 11.7333 4.19069 11.7333Z" fill="#FFDA2C"/>
<path d="M4.19069 8.53333C4.76927 8.53333 5.2383 8.05577 5.2383 7.46667C5.2383 6.87756 4.76927 6.4 4.19069 6.4C3.6121 6.4 3.14307 6.87756 3.14307 7.46667C3.14307 8.05577 3.6121 8.53333 4.19069 8.53333Z" fill="#FFDA2C"/>
<path fill-rule="evenodd" clip-rule="evenodd" d="M4.19069 3.2L5.2383 5.33333H3.14307L4.19069 3.2Z" fill="#FFDA2C"/>
<path fill-rule="evenodd" clip-rule="evenodd" d="M14.6665 0H21.9998V16H14.6665V0Z" fill="#F93939"/>
</g>
</g>
<defs>
<clipPath id="clip0_297_3691">
<rect width="22" height="16" fill="white"/>
</clipPath>
<clipPath id="clip1_297_3691">
<rect width="22" height="16" rx="2" fill="white"/>
</clipPath>
</defs>
</svg>
