<svg width="22" height="16" viewBox="0 0 22 16" fill="none" xmlns="http://www.w3.org/2000/svg">
<g clip-path="url(#clip0_297_3685)">
<rect width="22" height="16" rx="2" fill="#D4AF2C"/>
<rect x="1.04785" y="1.06667" width="19.9048" height="13.8667" fill="#AF010D"/>
<path fill-rule="evenodd" clip-rule="evenodd" d="M11.0002 5.09653L9.77759 4.26667L8.96359 5.09653H9.77759L8.96359 5.9264L7.3335 5.09653V9.24587L9.77759 8.41387L8.96359 10.0736H8.14854L8.96359 10.9035L9.77759 10.0736L11.0002 11.7333V5.09653ZM12.2227 4.26667L13.0367 5.09653H12.2227L13.0367 5.9264L14.6668 5.09653V9.24587L12.2227 8.41387L13.0367 10.0736H13.8518L13.0367 10.9035L12.2227 10.0736L11.0002 11.7333V5.09653L12.2227 4.26667Z" fill="#D4AF2C"/>
<path fill-rule="evenodd" clip-rule="evenodd" d="M9.42871 6.93867C9.42871 6.05333 10.1264 5.33333 11.0001 5.33333C11.8676 5.33333 12.5716 6.0512 12.5716 6.93867V6.5728C12.5716 7.45813 12.0394 8.6592 11.3982 9.2416L11.0001 9.6L10.602 9.2416C9.95566 8.65493 9.42871 7.46027 9.42871 6.5728V6.93867Z" fill="#1A47B8"/>
<path fill-rule="evenodd" clip-rule="evenodd" d="M9.42871 6.4H12.5716V7.46667H9.42871V6.4Z" fill="#AE6A3E"/>
</g>
<defs>
<clipPath id="clip0_297_3685">
<rect width="22" height="16" fill="white"/>
</clipPath>
</defs>
</svg>
