<svg width="22" height="16" viewBox="0 0 22 16" fill="none" xmlns="http://www.w3.org/2000/svg">
<g clip-path="url(#clip0_297_3639)">
<g clip-path="url(#clip1_297_3639)">
<rect width="22" height="16" rx="2" fill="#1A47B8"/>
<path d="M19.9048 0H2.09524C0.93807 0 0 0.955126 0 2.13333V13.8667C0 15.0449 0.93807 16 2.09524 16H19.9048C21.0619 16 22 15.0449 22 13.8667V2.13333C22 0.955126 21.0619 0 19.9048 0Z" fill="#1A47B8"/>
<path fill-rule="evenodd" clip-rule="evenodd" d="M15.7144 4.26667V5.33333H16.762V4.26667H15.7144ZM17.8096 6.4V7.46667H18.8572V6.4H17.8096ZM13.6191 7.46667V8.53333H14.6668V7.46667H13.6191ZM15.7144 11.7333V12.8H16.762V11.7333H15.7144Z" fill="#F93939"/>
<path d="M9.4288 1.06667H2.09547C1.51689 1.06667 1.04785 1.54423 1.04785 2.13333V7.46667C1.04785 8.05577 1.51689 8.53333 2.09547 8.53333H9.4288C10.0074 8.53333 10.4764 8.05577 10.4764 7.46667V2.13333C10.4764 1.54423 10.0074 1.06667 9.4288 1.06667Z" fill="white"/>
<path fill-rule="evenodd" clip-rule="evenodd" d="M5.23807 5.33333H2.09521V4.26667H5.23807V2.13333H6.28569V4.26667H9.42855V5.33333H6.28569V7.46667H5.23807V5.33333ZM7.85712 6.4V7.46667H9.42855V6.4H7.85712ZM7.85712 2.13333V3.2H9.42855V2.13333H7.85712ZM2.09521 6.4V7.46667H3.66664V6.4H2.09521ZM2.09521 2.13333V3.2H3.66664V2.13333H2.09521Z" fill="#F93939"/>
</g>
</g>
<defs>
<clipPath id="clip0_297_3639">
<rect width="22" height="16" fill="white"/>
</clipPath>
<clipPath id="clip1_297_3639">
<rect width="22" height="16" rx="2" fill="white"/>
</clipPath>
</defs>
</svg>
