<svg width="22" height="16" viewBox="0 0 22 16" fill="none" xmlns="http://www.w3.org/2000/svg">
<g clip-path="url(#clip0_297_3617)">
<rect width="22" height="16" rx="2" fill="#1A47B8"/>
<path fill-rule="evenodd" clip-rule="evenodd" d="M0 3.2H22V4.26667H0V3.2Z" fill="white"/>
<path fill-rule="evenodd" clip-rule="evenodd" d="M0 4.26667H22V11.7333H0V4.26667Z" fill="#F93939"/>
<path d="M5.76211 10.6667C7.20857 10.6667 8.38116 9.47276 8.38116 8C8.38116 6.52724 7.20857 5.33333 5.76211 5.33333C4.31565 5.33333 3.14307 6.52724 3.14307 8C3.14307 9.47276 4.31565 10.6667 5.76211 10.6667Z" fill="white"/>
<path fill-rule="evenodd" clip-rule="evenodd" d="M5.75992 9.0411L4.50278 9.7131L4.74373 8.2891L3.72754 7.28217L5.13135 7.07417L5.75992 5.77923L6.38849 7.07523L7.7923 7.2843L6.77611 8.2923L7.01706 9.71737" fill="#F93939"/>
<path fill-rule="evenodd" clip-rule="evenodd" d="M0 11.7333H22V12.8H0V11.7333Z" fill="white"/>
</g>
<defs>
<clipPath id="clip0_297_3617">
<rect width="22" height="16" fill="white"/>
</clipPath>
</defs>
</svg>
