<svg width="22" height="16" viewBox="0 0 22 16" fill="none" xmlns="http://www.w3.org/2000/svg">
<g clip-path="url(#clip0_297_3596)">
<rect width="22" height="16" rx="2" fill="#0A6A30"/>
<path fill-rule="evenodd" clip-rule="evenodd" d="M16.7347 6.37227C16.6655 7.008 16.4686 7.46667 16.2381 7.46667C16.0076 7.46667 15.8107 7.008 15.7415 6.37227C15.1171 6.30187 14.6667 6.10133 14.6667 5.86667C14.6667 5.632 15.1171 5.43147 15.7415 5.36107C15.8107 4.72533 16.0076 4.26667 16.2381 4.26667C16.4686 4.26667 16.6655 4.72533 16.7347 5.36107C17.359 5.43147 17.8095 5.632 17.8095 5.86667C17.8095 6.10133 17.359 6.30187 16.7347 6.37227ZM0 0H6V16H0V0Z" fill="white"/>
<path fill-rule="evenodd" clip-rule="evenodd" d="M18.8259 7.43253C18.8468 7.6192 18.8573 7.808 18.8573 8C18.8573 10.6507 16.7463 12.8 14.143 12.8C11.5397 12.8 9.42871 10.6507 9.42871 8C9.42871 5.34933 11.5397 3.2 14.143 3.2C14.3316 3.2 14.517 3.21067 14.7003 3.232C12.9068 3.47733 11.5239 5.04213 11.5239 6.93333C11.5239 8.9952 13.1656 10.6667 15.1906 10.6667C17.0491 10.6667 18.5849 9.25867 18.8259 7.43253Z" fill="white"/>
</g>
<defs>
<clipPath id="clip0_297_3596">
<rect width="22" height="16" fill="white"/>
</clipPath>
</defs>
</svg>
