<svg width="22" height="16" viewBox="0 0 22 16" fill="none" xmlns="http://www.w3.org/2000/svg">
<g clip-path="url(#clip0_297_3579)">
<g clip-path="url(#clip1_297_3579)">
<rect width="22" height="16" rx="2" fill="white"/>
<path d="M19.9048 0H2.09524C0.93807 0 0 0.955126 0 2.13333V13.8667C0 15.0449 0.93807 16 2.09524 16H19.9048C21.0619 16 22 15.0449 22 13.8667V2.13333C22 0.955126 21.0619 0 19.9048 0Z" fill="white"/>
<path fill-rule="evenodd" clip-rule="evenodd" d="M6.25843 5.3056C6.18929 5.94133 5.99233 6.4 5.76186 6.4C5.53138 6.4 5.33443 5.94133 5.26529 5.3056C4.64091 5.2352 4.19043 5.03467 4.19043 4.8C4.19043 4.56533 4.64091 4.3648 5.26529 4.2944C5.33443 3.65867 5.53138 3.2 5.76186 3.2C5.99233 3.2 6.18929 3.65867 6.25843 4.2944C6.88281 4.3648 7.33329 4.56533 7.33329 4.8C7.33329 5.03467 6.88281 5.2352 6.25843 5.3056Z" fill="#1A47B8"/>
<path fill-rule="evenodd" clip-rule="evenodd" d="M16.7345 12.7723C16.6654 13.408 16.4684 13.8667 16.2379 13.8667C16.0075 13.8667 15.8105 13.408 15.7414 12.7723C15.117 12.7019 14.6665 12.5013 14.6665 12.2667C14.6665 12.032 15.117 11.8315 15.7414 11.7611C15.8105 11.1253 16.0064 10.6667 16.2379 10.6667C16.4684 10.6667 16.6654 11.1253 16.7345 11.7611C17.3589 11.8315 17.8094 12.0309 17.8094 12.2667C17.8094 12.5013 17.3589 12.7019 16.7345 12.7723Z" fill="#F93939"/>
<path fill-rule="evenodd" clip-rule="evenodd" d="M0 8H11V16H0V8Z" fill="#1A47B8"/>
<path fill-rule="evenodd" clip-rule="evenodd" d="M11 0H22V8H11V0Z" fill="#F93939"/>
</g>
</g>
<defs>
<clipPath id="clip0_297_3579">
<rect width="22" height="16" fill="white"/>
</clipPath>
<clipPath id="clip1_297_3579">
<rect width="22" height="16" rx="2" fill="white"/>
</clipPath>
</defs>
</svg>
