<svg width="22" height="16" viewBox="0 0 22 16" fill="none" xmlns="http://www.w3.org/2000/svg">
<g clip-path="url(#clip0_297_3569)">
<g clip-path="url(#clip1_297_3569)">
<rect width="22" height="16" rx="2" fill="#AF010D"/>
<path fill-rule="evenodd" clip-rule="evenodd" d="M12.5713 3.2L14.6666 5.33334C14.6666 5.33334 12.5713 4.26667 11.5237 5.33334L10.4761 6.4H13.6189L18.857 9.6L16.7618 6.4H18.857C18.857 6.4 18.857 5.33334 17.8094 4.26667C16.7618 3.2 15.7142 3.2 15.7142 3.2V2.13334L14.6666 3.2H12.5713Z" fill="#FFDA2C"/>
<path fill-rule="evenodd" clip-rule="evenodd" d="M0 0L22 16H0V0Z" fill="#151515"/>
<path d="M5.76209 8.53333C6.05138 8.53333 6.2859 8.29455 6.2859 8C6.2859 7.70545 6.05138 7.46667 5.76209 7.46667C5.4728 7.46667 5.23828 7.70545 5.23828 8C5.23828 8.29455 5.4728 8.53333 5.76209 8.53333Z" fill="white"/>
<path d="M3.66688 10.6667C3.95617 10.6667 4.19069 10.4279 4.19069 10.1333C4.19069 9.83878 3.95617 9.6 3.66688 9.6C3.37758 9.6 3.14307 9.83878 3.14307 10.1333C3.14307 10.4279 3.37758 10.6667 3.66688 10.6667Z" fill="white"/>
<path d="M7.85731 10.6667C8.1466 10.6667 8.38112 10.4279 8.38112 10.1333C8.38112 9.83878 8.1466 9.6 7.85731 9.6C7.56801 9.6 7.3335 9.83878 7.3335 10.1333C7.3335 10.4279 7.56801 10.6667 7.85731 10.6667Z" fill="white"/>
<path d="M5.76209 13.8667C6.05138 13.8667 6.2859 13.6279 6.2859 13.3333C6.2859 13.0388 6.05138 12.8 5.76209 12.8C5.4728 12.8 5.23828 13.0388 5.23828 13.3333C5.23828 13.6279 5.4728 13.8667 5.76209 13.8667Z" fill="white"/>
<path d="M6.80945 12.8C7.09875 12.8 7.33326 12.5612 7.33326 12.2667C7.33326 11.9721 7.09875 11.7333 6.80945 11.7333C6.52016 11.7333 6.28564 11.9721 6.28564 12.2667C6.28564 12.5612 6.52016 12.8 6.80945 12.8Z" fill="white"/>
</g>
</g>
<defs>
<clipPath id="clip0_297_3569">
<rect width="22" height="16" fill="white"/>
</clipPath>
<clipPath id="clip1_297_3569">
<rect width="22" height="16" rx="2" fill="white"/>
</clipPath>
</defs>
</svg>
