<svg width="22" height="16" viewBox="0 0 22 16" fill="none" xmlns="http://www.w3.org/2000/svg">
<g clip-path="url(#clip0_297_3539)">
<rect width="22" height="16" rx="2" fill="#F93939"/>
<path fill-rule="evenodd" clip-rule="evenodd" d="M0 0H7V16H0V0Z" fill="#249F58"/>
<path d="M7.33329 10.6667C9.06904 10.6667 10.4761 9.23398 10.4761 7.46667C10.4761 5.69936 9.06904 4.26667 7.33329 4.26667C5.59753 4.26667 4.19043 5.69936 4.19043 7.46667C4.19043 9.23398 5.59753 10.6667 7.33329 10.6667Z" fill="#FFDA2C"/>
<path fill-rule="evenodd" clip-rule="evenodd" d="M9.42876 8.53334V5.33334H5.23828V8.53334C5.23828 9.12214 6.1759 9.6 7.33352 9.6C8.49114 9.6 9.42876 9.12214 9.42876 8.53334Z" fill="#F93939"/>
<path fill-rule="evenodd" clip-rule="evenodd" d="M6.28564 6.4H8.38088V8.53333H6.28564V6.4Z" fill="white"/>
<path fill-rule="evenodd" clip-rule="evenodd" d="M6.28564 6.4H7.33326V7.46667H6.28564V6.4ZM7.33326 7.46667H8.38088V8.53333H7.33326V7.46667Z" fill="#1A47B8"/>
</g>
<defs>
<clipPath id="clip0_297_3539">
<rect width="22" height="16" fill="white"/>
</clipPath>
</defs>
</svg>
