<svg width="22" height="16" viewBox="0 0 22 16" fill="none" xmlns="http://www.w3.org/2000/svg">
<g clip-path="url(#clip0_297_3522)">
<g clip-path="url(#clip1_297_3522)">
<rect width="22" height="16" rx="2" fill="#FFDA2C"/>
<path fill-rule="evenodd" clip-rule="evenodd" d="M0 12H22V16H0V12Z" fill="#0A6A30"/>
<path fill-rule="evenodd" clip-rule="evenodd" d="M0 0H22V7H0V0Z" fill="#03BCDB"/>
<path fill-rule="evenodd" clip-rule="evenodd" d="M17.7824 4.23893C18.4067 4.16853 18.8572 3.968 18.8572 3.73333C18.8572 3.49866 18.4067 3.29813 17.7824 3.22773C17.7132 2.592 17.5163 2.13333 17.2858 2.13333C17.0553 2.13333 16.8584 2.592 16.7892 3.22773C16.1648 3.29813 15.7144 3.49866 15.7144 3.73333C15.7144 3.968 16.1648 4.16853 16.7892 4.23893C16.8584 4.87466 17.0553 5.33333 17.2858 5.33333C17.5163 5.33333 17.7132 4.87466 17.7824 4.23893Z" fill="#FFDA2C"/>
</g>
</g>
<defs>
<clipPath id="clip0_297_3522">
<rect width="22" height="16" fill="white"/>
</clipPath>
<clipPath id="clip1_297_3522">
<rect width="22" height="16" rx="2" fill="white"/>
</clipPath>
</defs>
</svg>
