<svg width="22" height="16" viewBox="0 0 22 16" fill="none" xmlns="http://www.w3.org/2000/svg">
<g clip-path="url(#clip0_297_3500)">
<rect width="22" height="16" rx="2" fill="white"/>
<path fill-rule="evenodd" clip-rule="evenodd" d="M0 8H22V16H0V8Z" fill="#3A99FF"/>
<path fill-rule="evenodd" clip-rule="evenodd" d="M8.38086 4.26667H13.619V5.33334L10.9999 6.4L8.38086 5.33334V4.26667Z" fill="#D4AF2C"/>
<path fill-rule="evenodd" clip-rule="evenodd" d="M13.619 9.06667C13.619 7.59467 12.4456 6.4 10.9999 6.4C9.55419 6.4 8.38086 7.59467 8.38086 9.06667C8.38086 10.5387 9.55419 11.7333 10.9999 11.7333C12.4456 11.7333 13.619 10.5387 13.619 9.06667ZM10.9999 10.6667C11.8673 10.6667 12.5713 9.712 12.5713 8.53333C12.5713 7.35467 11.8673 6.4 10.9999 6.4C10.1325 6.4 9.42848 7.35467 9.42848 8.53333C9.42848 9.712 10.1325 10.6667 10.9999 10.6667Z" fill="#249F58"/>
<path d="M10.9999 9.6C11.2892 9.6 11.5237 9.12244 11.5237 8.53333C11.5237 7.94423 11.2892 7.46667 10.9999 7.46667C10.7106 7.46667 10.4761 7.94423 10.4761 8.53333C10.4761 9.12244 10.7106 9.6 10.9999 9.6Z" fill="#D4AF2C"/>
</g>
<defs>
<clipPath id="clip0_297_3500">
<rect width="22" height="16" fill="white"/>
</clipPath>
</defs>
</svg>
