<svg width="22" height="16" viewBox="0 0 22 16" fill="none" xmlns="http://www.w3.org/2000/svg">
<g clip-path="url(#clip0_297_3495)">
<g clip-path="url(#clip1_297_3495)">
<rect width="22" height="16" rx="2" fill="#FFDA2C"/>
<path fill-rule="evenodd" clip-rule="evenodd" d="M0 11.7333V16H22V11.7333H0ZM0 0V4.26667H22V0H0Z" fill="#00B731"/>
<path fill-rule="evenodd" clip-rule="evenodd" d="M0 0V16.0352L7.33333 8L0 0Z" fill="#F93939"/>
<path fill-rule="evenodd" clip-rule="evenodd" d="M10.9998 8.98134L9.80024 9.62454L10.0307 8.26454L9.05957 7.30134L10.4005 7.104L10.9998 5.86667L11.599 7.104L12.94 7.30134L11.9699 8.26454L12.2003 9.62454L10.9998 8.98134ZM17.2855 8.98134L16.086 9.62454L16.3164 8.26454L15.3453 7.30134L16.6862 7.104L17.2855 5.86667L17.8847 7.104L19.2257 7.30134L18.2556 8.26454L18.486 9.62454" fill="#151515"/>
</g>
</g>
<defs>
<clipPath id="clip0_297_3495">
<rect width="22" height="16" fill="white"/>
</clipPath>
<clipPath id="clip1_297_3495">
<rect width="22" height="16" rx="2" fill="white"/>
</clipPath>
</defs>
</svg>
