<svg width="22" height="16" viewBox="0 0 22 16" fill="none" xmlns="http://www.w3.org/2000/svg">
<g clip-path="url(#clip0_297_3492)">
<rect width="22" height="16" rx="2" fill="#249F58"/>
<path fill-rule="evenodd" clip-rule="evenodd" d="M16.7619 10.6667V9.6H5.23809L7.33333 10.6667H13.619C13.619 11.2555 14.323 11.7333 15.1905 11.7333C16.0579 11.7333 16.7619 11.2555 16.7619 10.6667ZM9.14571 4.1664C9.13314 4.1664 9.11428 4.1728 9.09018 4.18774C9.03361 4.22614 8.92256 4.34454 8.91837 4.48107C8.91523 4.55894 8.90057 4.55894 8.9498 4.60907C8.98542 4.66027 9.02314 4.656 9.09437 4.61654C9.13628 4.58454 9.1499 4.5664 9.16457 4.51414C9.18133 4.4288 9.07342 4.5568 9.0598 4.45867C9.03571 4.36907 9.10485 4.33067 9.1698 4.24534C9.1719 4.20267 9.1719 4.17067 9.14571 4.16854V4.1664ZM10.1965 4.17174C10.1755 4.176 10.1514 4.20374 10.1168 4.2656C10.0928 4.33174 9.98695 4.432 10.0645 4.63894C10.1252 4.77014 10.1514 4.9824 10.1231 5.22027C10.0791 5.28747 10.0708 5.31094 10.0131 5.37814C9.93352 5.46667 9.84552 5.44427 9.78057 5.41014C9.71771 5.36747 9.66952 5.34614 9.64123 5.21174C9.64647 4.9984 9.65904 4.64427 9.62028 4.5696C9.56371 4.4544 9.46942 4.49494 9.42961 4.53014C9.2379 4.71147 9.14256 5.01334 9.0839 5.25547C9.03152 5.4304 8.9739 5.3792 8.93409 5.3088C8.83666 5.21494 8.82933 4.48747 8.71199 4.608C8.52342 5.15627 8.8199 5.7568 9.02628 5.69814C9.17295 5.76214 9.26723 5.47414 9.32799 5.15947C9.3699 5.07094 9.40133 5.06027 9.42228 5.10614C9.41704 5.52427 9.45371 5.61814 9.55847 5.744C9.79314 5.92961 9.98799 5.76747 10.0037 5.75254L10.187 5.56694C10.2289 5.52427 10.2813 5.52 10.3389 5.5584C10.3955 5.61174 10.3882 5.70027 10.5066 5.76107C10.6092 5.80374 10.824 5.77174 10.8732 5.6832C10.9413 5.56587 10.957 5.52534 10.9885 5.48054C11.0367 5.41654 11.1194 5.44534 11.1194 5.4656C11.1121 5.50294 11.0639 5.54027 11.0964 5.60427C11.154 5.64694 11.1676 5.6192 11.2011 5.6096C11.3206 5.552 11.4107 5.28747 11.4107 5.28747C11.4159 5.18934 11.3614 5.1968 11.3269 5.21707C11.2797 5.24587 11.2776 5.25547 11.2326 5.28427C11.1729 5.2928 11.0597 5.33227 11.0042 5.24374C10.9466 5.13707 10.9466 4.98987 10.9026 4.88107C10.9026 4.87467 10.8261 4.7136 10.8963 4.704C10.9309 4.7104 11.0084 4.73067 11.0199 4.6656C11.0576 4.6016 10.9392 4.42027 10.8586 4.33067C10.7894 4.2528 10.693 4.2432 10.5998 4.32214C10.5338 4.384 10.5443 4.45227 10.5307 4.51734C10.5149 4.592 10.5181 4.6848 10.5935 4.784C10.6585 4.91414 10.7769 5.08267 10.737 5.31947C10.737 5.31947 10.6689 5.43254 10.5485 5.4176C10.4961 5.40694 10.4144 5.3856 10.3704 5.05494C10.3389 4.8064 10.3788 4.4576 10.2761 4.2944C10.252 4.2336 10.2321 4.17387 10.1986 4.17707L10.1965 4.17174ZM9.86333 4.19947C9.8319 4.20267 9.79733 4.24 9.76904 4.31147C9.74495 4.36694 9.71456 4.6528 9.7198 4.6528C9.69885 4.73814 9.80676 4.7744 9.85599 4.6656C9.92933 4.46294 9.92933 4.3776 9.93352 4.2944C9.92304 4.2304 9.89476 4.1984 9.86333 4.20054V4.19947ZM11.0922 4.2208C11.0608 4.22507 11.0346 4.24427 11.0251 4.29334C11.0115 4.4064 11.0189 4.46934 11.0377 4.56427C11.0513 4.62827 11.1425 4.7328 11.1865 4.79467C11.3991 5.08587 11.6055 5.37814 11.8025 5.68C11.8339 5.90614 11.8549 6.12587 11.8706 6.3456C11.9041 6.8256 11.9125 7.42294 11.8842 7.9296C11.9722 7.9328 12.1147 7.78347 12.1639 7.56694C12.1953 7.264 12.1534 6.6496 12.1492 6.4704L12.1388 6.21654C12.3692 6.60054 12.5913 7.00587 12.8092 7.4496C12.8899 7.4112 12.8721 6.9536 12.826 6.8896C12.65 6.5056 12.4069 6.12587 12.3305 5.97974C12.3022 5.9264 12.2069 5.78027 12.0948 5.61067C12.0738 5.36747 12.0508 5.16267 12.0361 5.1008C11.9994 4.8448 12.1388 5.1296 12.1199 4.98134C12.0738 4.72534 11.9355 4.55254 11.7721 4.31787C11.7197 4.2432 11.7197 4.22614 11.639 4.33707C11.5919 4.44907 11.5919 4.54294 11.6076 4.6304C11.5846 4.5984 11.5584 4.56214 11.5207 4.5152L11.2535 4.28481C11.2168 4.25814 11.1456 4.2176 11.0922 4.2208ZM14.7337 4.26027C14.718 4.25814 14.7023 4.2656 14.6813 4.2944C14.6447 4.3264 14.6059 4.3872 14.608 4.46507C14.6153 4.5984 14.6394 4.736 14.6478 4.8704L14.6583 4.92374C14.6436 4.90667 14.631 4.89174 14.6237 4.88534C14.3649 4.608 14.7421 4.8384 14.5734 4.62614C14.432 4.46614 14.3901 4.41707 14.2696 4.32107C14.2068 4.28267 14.1711 4.20587 14.1512 4.336C14.1429 4.45014 14.1345 4.58347 14.1408 4.67947C14.1408 4.7328 14.1963 4.83414 14.2434 4.8928C14.4152 5.10934 14.5912 5.33867 14.7672 5.5776C14.8049 6.06507 14.8144 6.512 14.851 7.00054C14.8468 7.2096 14.784 7.48694 14.7253 7.51254C14.7253 7.51254 14.6331 7.56587 14.5724 7.5072C14.5273 7.48907 14.3503 7.20534 14.3503 7.20534C14.2591 7.12 14.1984 7.14454 14.1345 7.20534C13.9564 7.38027 13.8747 7.7088 13.7542 7.93494C13.7228 7.98507 13.6358 8.0288 13.5384 7.93067C13.2901 7.58507 13.4336 7.09334 13.4043 7.22027C13.1843 7.47414 13.2807 7.8944 13.3309 7.98507C13.4043 8.1344 13.4629 8.2304 13.6033 8.30187C13.7343 8.39787 13.8338 8.3392 13.8904 8.26987C14.0203 8.13334 14.0224 7.7824 14.0831 7.71307C14.125 7.58507 14.2329 7.6064 14.2853 7.664C14.3377 7.73867 14.3964 7.78667 14.4708 7.8272C14.5923 7.936 14.7369 7.9552 14.8793 7.856C14.9768 7.80054 15.0407 7.728 15.0972 7.58507C15.1601 7.41867 15.1287 6.544 15.115 6.0576L15.3874 6.45867C15.4251 6.88534 15.4429 7.30667 15.4293 7.70987C15.4209 7.78987 15.7049 7.47094 15.7017 7.31947C15.7017 7.18827 15.7038 7.06774 15.7017 6.9568C15.841 7.1808 15.9741 7.408 16.0998 7.63947C16.1784 7.5968 16.1522 7.1456 16.1029 7.0848C15.9709 6.85867 15.8012 6.61547 15.6703 6.4256C15.6441 6.18774 15.6095 5.9072 15.5928 5.8208C15.5687 5.6864 15.5435 5.4848 15.5058 5.32587C15.4953 5.26507 15.4639 5.06667 15.4744 5.04854C15.489 5.00267 15.5477 5.04854 15.576 4.99734C15.6179 4.94934 15.4272 4.44267 15.3298 4.29974C15.2952 4.23574 15.2313 4.25707 15.1538 4.36374C15.0805 4.432 15.1077 4.58987 15.1349 4.74027C15.2062 5.12427 15.2711 5.51254 15.3214 5.90294C15.2271 5.75894 15.1119 5.58614 14.9988 5.4208L14.9841 5.34614C14.9841 5.3376 14.9694 5.03147 14.9558 4.95894C14.9527 4.92907 14.9453 4.92054 14.9768 4.9248C15.0082 4.95254 15.0124 4.9536 15.0323 4.9632C15.0658 4.96747 15.0951 4.91201 15.0742 4.85974L14.7704 4.29014C14.7599 4.27627 14.7452 4.26347 14.7285 4.26134L14.7337 4.26027ZM5.33656 4.27094C5.27895 4.26881 5.21818 4.30294 5.24228 4.37227C5.22761 4.4096 5.35123 4.53547 5.37323 4.6048C5.39104 4.65494 5.35228 4.8128 5.39418 4.8288C5.43085 4.8448 5.48218 4.71787 5.50104 4.6016C5.51152 4.5376 5.50418 4.31787 5.35752 4.27307C5.35018 4.27094 5.34285 4.27094 5.33447 4.26987L5.33656 4.27094ZM16.0432 4.27094C16.0296 4.27307 16.0139 4.29227 15.9909 4.3456C15.9332 4.4416 15.9133 4.61227 15.9364 4.76161C16.0726 5.71094 16.1773 6.6304 16.1983 7.47094C16.1857 7.552 16.1815 7.59467 16.1459 7.69494C16.0642 7.8016 15.9741 7.93387 15.8892 7.99787C15.8054 8.06187 15.6252 8.12374 15.5666 8.17067C15.378 8.27947 15.378 8.40534 15.5289 8.41067C15.7887 8.37867 16.0967 8.35734 16.3083 8.032C16.3649 7.94134 16.4319 7.69387 16.434 7.54134C16.4549 6.656 16.4235 5.78667 16.2926 5.1456C16.2842 5.0816 16.2569 4.93974 16.2674 4.9216C16.2831 4.8768 16.368 4.9248 16.3984 4.87467C16.4434 4.82774 16.1784 4.4832 16.0862 4.336C16.0673 4.29974 16.0548 4.2688 16.0401 4.272L16.0432 4.27094ZM13.3163 4.28587C13.3058 4.288 13.2911 4.30507 13.2618 4.34454C13.1885 4.5856 13.1633 4.78187 13.1916 4.93334C13.3802 5.92534 13.5688 6.82667 13.5394 7.77067C13.6274 7.77067 13.7301 7.5648 13.7741 7.36C13.7982 7.07734 13.7573 6.9056 13.751 6.74134C13.7437 6.57494 13.5667 5.23094 13.531 5.10614C13.487 4.86934 13.7028 5.07414 13.6798 4.9376C13.6044 4.76267 13.4179 4.51094 13.3613 4.3584C13.3404 4.31787 13.3362 4.28054 13.3194 4.28374L13.3163 4.28587ZM6.68066 4.30507C6.65971 4.30934 6.63561 4.32854 6.62828 4.3584C6.62304 4.37974 6.63666 4.41494 6.6178 4.4256C6.60733 4.43627 6.56752 4.4288 6.56961 4.37227C6.56961 4.35307 6.55599 4.33387 6.54866 4.32214C6.54028 4.31787 6.53504 4.3168 6.52037 4.3168C6.50256 4.3168 6.50256 4.32214 6.49314 4.33814C6.48895 4.35307 6.48266 4.368 6.48266 4.38507C6.48057 4.4064 6.47218 4.41174 6.45856 4.41494C6.4418 4.41494 6.44495 4.41707 6.43237 4.40747C6.4219 4.4 6.41352 4.3968 6.41352 4.38187C6.41352 4.36587 6.40933 4.3392 6.40514 4.33067C6.3978 4.32 6.38628 4.31574 6.37371 4.31254C6.30457 4.31254 6.30037 4.39574 6.30352 4.4256C6.29828 4.432 6.29618 4.57494 6.39047 4.61547C6.51618 4.67734 6.75504 4.65067 6.74666 4.44267C6.74666 4.42454 6.74142 4.36267 6.73933 4.34667C6.72676 4.31467 6.70266 4.304 6.67961 4.3072L6.68066 4.30507ZM8.38409 4.3072C8.34009 4.30934 8.30028 4.32214 8.26885 4.3392C8.18504 4.42134 8.16409 4.55254 8.23114 4.63467C8.29399 4.66667 8.35999 4.73067 8.31704 4.768C8.13476 4.96534 7.66018 5.29707 7.63609 5.35787V5.36427H7.64028V5.3664C7.66437 5.3824 7.9619 5.3824 7.99437 5.3664H7.99647C8.09914 5.32694 8.58314 4.76374 8.58314 4.76374C8.55799 4.7424 8.53495 4.72534 8.5098 4.70294C8.48256 4.67947 8.48571 4.656 8.5098 4.63254C8.62923 4.56214 8.59152 4.40534 8.52866 4.33387C8.47628 4.31041 8.42809 4.30187 8.38409 4.30507V4.3072ZM12.8365 4.3072C12.8239 4.3104 12.8082 4.32854 12.7841 4.38187C12.7265 4.47787 12.6877 4.6432 12.6929 4.79787C12.8166 5.67254 12.8543 6.43734 12.936 7.312C12.9423 7.39734 12.9297 7.51894 12.8752 7.568C12.6699 7.7856 12.3755 8.05227 12.0549 8.176C12.0204 8.21547 12.1409 8.38294 12.2959 8.38294C12.5557 8.35094 12.7841 8.20374 12.9978 7.81227C13.0533 7.7216 13.1529 7.5264 13.1549 7.37494C13.1759 6.48747 13.113 5.79627 12.981 5.15627C12.9737 5.09227 12.9789 5.01761 12.9894 5.00054C13.0062 4.97921 13.0628 5.00054 13.0942 4.9504C13.1382 4.90347 12.9748 4.52054 12.8826 4.3744C12.8637 4.33707 12.8532 4.3072 12.8365 4.30827V4.3072ZM5.93895 4.336C5.90333 4.34027 5.8698 4.36801 5.85304 4.41067C5.8478 4.54934 5.84676 4.68801 5.86352 4.81814C5.92637 5.04534 5.94418 5.2448 5.97457 5.47627C5.98504 5.78774 5.79857 5.61067 5.80695 5.45707C5.84885 5.25654 5.83837 4.94187 5.80066 4.86187C5.76923 4.78187 5.73571 4.76267 5.66237 4.77654C5.60476 4.77227 5.45495 4.93654 5.41304 5.21387C5.41304 5.21387 5.37742 5.35467 5.36276 5.48054C5.3418 5.6224 5.24961 5.72374 5.18466 5.46134C5.12914 5.26934 5.09561 4.80001 5.00237 4.90881C4.97514 5.27574 4.94371 5.92214 5.24961 5.98827C5.62047 6.02454 5.41514 5.3504 5.54923 5.22774C5.57542 5.16907 5.62256 5.168 5.62571 5.24374V5.81654C5.62152 6.00214 5.74095 6.0576 5.83523 6.096C5.93266 6.08854 5.99657 6.09174 6.03428 6.18774L6.08142 7.17974C6.08142 7.17974 6.30561 7.24374 6.31609 6.62187C6.32656 6.256 6.24276 5.94987 6.29199 5.8784C6.29409 5.808 6.38209 5.80374 6.44285 5.83894C6.54028 5.90827 6.58323 5.9936 6.73409 5.95947C6.96457 5.89547 7.10076 5.7824 7.1039 5.6032C7.09342 5.43254 7.07247 5.26187 6.99914 5.0912C7.00961 5.06134 6.95723 4.98134 6.96771 4.9504C7.00752 5.0144 7.07037 5.01014 7.08295 4.9504C7.04523 4.8192 6.98447 4.6944 6.88599 4.64107C6.80533 4.5664 6.68695 4.58241 6.64295 4.73387C6.62199 4.90881 6.7058 5.11574 6.83152 5.28534C6.85666 5.35147 6.89437 5.46134 6.87761 5.56054C6.81161 5.59894 6.74561 5.58187 6.68904 5.5232C6.68904 5.5232 6.5078 5.38454 6.5078 5.35254C6.55704 5.03787 6.51828 5.00054 6.49209 4.9152C6.47323 4.7936 6.41666 4.7552 6.37161 4.672C6.32552 4.62187 6.26371 4.62187 6.23542 4.672C6.15371 4.81387 6.19142 5.12 6.25009 5.25547C6.29199 5.38134 6.35695 5.46027 6.32657 5.46027C6.30142 5.5296 6.24904 5.5136 6.21133 5.43147C6.15895 5.2608 6.14637 5.00907 6.14637 4.89494C6.13066 4.75414 6.11285 4.45227 6.02066 4.37547C5.99657 4.34134 5.96828 4.3296 5.93999 4.3328L5.93895 4.336ZM7.24009 4.336C7.22228 4.34027 7.20133 4.35094 7.17723 4.35734C7.09866 4.38187 7.02533 4.4512 7.04837 4.5856C7.14266 5.1616 7.20237 5.60214 7.29561 6.17814C7.30923 6.2464 7.25371 6.33494 7.18247 6.32747C7.06095 6.24214 7.03057 6.07147 6.82314 6.08C6.67228 6.08 6.50047 6.24854 6.47952 6.40854C6.45437 6.53654 6.44599 6.6752 6.47952 6.78614C6.58428 6.91414 6.71209 6.90134 6.82314 6.87147C6.91428 6.83414 6.99076 6.74347 7.02218 6.7648C7.04314 6.8 7.02009 7.09974 6.59266 7.33014C6.32866 7.45174 6.11914 7.47947 6.00599 7.26187C5.93685 7.12534 6.01228 6.6048 5.84047 6.72427C5.33133 8.05974 7.03161 8.24534 7.22123 6.77974C7.2338 6.73707 7.27047 6.69654 7.29771 6.7072C7.30818 6.71254 7.31866 6.72854 7.32285 6.7584C7.28304 8.08534 6.00704 8.17707 5.79123 7.75894C5.73676 7.6608 5.72104 7.44107 5.7158 7.31094C5.70533 7.23094 5.68647 7.18507 5.66342 7.16694C5.61104 7.12747 5.5419 7.23094 5.52723 7.40907C5.50628 7.55307 5.51152 7.59254 5.51152 7.7312C5.58066 8.77974 7.22228 8.32854 7.48942 7.46454C7.62142 7.01654 7.48628 6.6784 7.53133 6.6368L7.53447 6.63467H7.53761L7.54285 6.63254C7.70628 6.81174 7.93466 6.65387 7.98495 6.59307C8.0059 6.56107 8.06037 6.53974 8.09809 6.5824C8.2238 6.67414 8.44799 6.6304 8.49409 6.46507C8.52133 6.30507 8.54437 6.1408 8.54961 5.96907C8.4658 5.99574 8.39876 6.01494 8.37152 6.04374C8.36523 6.0512 8.36104 6.05974 8.35895 6.06827L8.33799 6.21014C8.33799 6.21547 8.3359 6.21867 8.3338 6.2208C8.33066 6.22827 8.32333 6.2336 8.31914 6.2368C8.2898 6.2528 8.23847 6.24427 8.23533 6.20054C8.19656 6.0192 8.03418 5.99574 7.93571 6.2784C7.86971 6.33174 7.74714 6.3424 7.73666 6.26134C7.75237 6.07147 7.67695 6.04587 7.52714 6.13547L7.38256 5.02614C7.44542 5.02294 7.50199 5.0688 7.56066 4.99627C7.4978 4.8 7.36685 4.40107 7.29247 4.36267H7.29037L7.2799 4.352C7.2799 4.34987 7.27676 4.34881 7.27466 4.34774L7.27047 4.34134C7.26628 4.34134 7.26209 4.3392 7.25999 4.33814C7.25266 4.336 7.24637 4.336 7.23904 4.336H7.24009ZM12.3127 4.34027C12.2477 4.33814 12.1765 4.37974 12.2037 4.46294C12.1869 4.5088 12.343 4.6624 12.3682 4.7456C12.4132 4.8736 12.3336 4.9984 12.3808 5.01654C12.4248 5.03574 12.4855 4.8832 12.5065 4.74134C12.5337 4.62614 12.4541 4.39147 12.3389 4.34347L12.3127 4.34134V4.34027ZM8.35999 4.48C8.38933 4.47787 8.42495 4.50561 8.4438 4.54401C8.46161 4.58667 8.45218 4.62614 8.42285 4.6336C8.39142 4.64107 8.35161 4.6144 8.33276 4.57174C8.3139 4.52907 8.32228 4.4896 8.35371 4.48214H8.35999V4.48ZM15.6902 4.67414C15.6305 4.672 15.5645 4.7168 15.5917 4.80747C15.577 4.85654 15.7174 5.02294 15.7415 5.11467C15.7625 5.17867 15.7101 5.38774 15.752 5.40694C15.7918 5.42827 15.8463 5.26187 15.8672 5.10827C15.8798 5.02294 15.819 4.72961 15.7153 4.67734C15.708 4.67521 15.6996 4.67307 15.6912 4.67307L15.6902 4.67414ZM11.6359 4.77654C11.6432 4.80107 11.6485 4.8256 11.6516 4.8512C11.6642 4.90454 11.6747 4.95787 11.6851 5.01334C11.639 4.9472 11.6013 4.89387 11.5835 4.87467C11.4788 4.74667 11.5856 4.79147 11.6359 4.77654ZM12.5714 5.24374C12.5484 5.248 12.5264 5.26827 12.519 5.30027C12.5128 5.31947 12.5274 5.3536 12.5086 5.36427C12.4981 5.37494 12.4562 5.36854 12.4593 5.31094C12.4593 5.29174 12.4457 5.27147 12.4384 5.2608C12.43 5.25547 12.4248 5.25334 12.4101 5.25334C12.3923 5.25334 12.3923 5.25867 12.3829 5.27467C12.3787 5.2896 12.3724 5.30454 12.3724 5.32267C12.3724 5.344 12.364 5.3504 12.3493 5.35467C12.3326 5.35467 12.3357 5.35467 12.3221 5.3472C12.3137 5.33654 12.3043 5.3344 12.3043 5.31947C12.3043 5.30347 12.3011 5.27894 12.2959 5.26827C12.2886 5.2576 12.2781 5.2544 12.2645 5.25014C12.1964 5.25014 12.1911 5.3312 12.1953 5.36107C12.1911 5.36747 12.188 5.51254 12.2823 5.55307C12.4101 5.61387 12.6489 5.58507 12.6385 5.37814C12.6385 5.36 12.6332 5.29814 12.6322 5.28214C12.6186 5.25014 12.5945 5.23947 12.5725 5.24267L12.5714 5.24374ZM8.30761 5.2864C8.29295 5.2864 8.27199 5.29067 8.2479 5.3056C8.1358 5.36747 8.09285 5.55094 8.16409 5.6576C8.22695 5.7536 8.33171 5.7184 8.34533 5.7184C8.45533 5.73334 8.52028 5.50934 8.52028 5.50934C8.52028 5.50934 8.52342 5.44534 8.39456 5.5648C8.33799 5.57547 8.33171 5.55414 8.31704 5.52214C8.30447 5.4656 8.30656 5.4048 8.33276 5.34827C8.34533 5.31307 8.33276 5.29067 8.30761 5.28854V5.2864ZM14.3346 5.3152C14.2717 5.312 14.2057 5.3536 14.1879 5.44C14.1879 5.4912 14.2109 5.51894 14.2068 5.56587C14.2015 5.59254 14.1753 5.60854 14.1104 5.57867C14.1209 5.568 14.0685 5.49547 14.0685 5.49547C14.0192 5.46347 13.9532 5.49547 13.9092 5.52534C13.8851 5.57014 13.8673 5.64587 13.8946 5.72267C13.9658 5.85814 14.212 6.08854 14.3293 6.09067C14.3314 5.96907 14.3429 5.80694 14.3503 5.70667C14.3524 5.66827 14.3608 5.62667 14.3974 5.61707C14.433 5.6064 14.4949 5.65334 14.4949 5.61387C14.4886 5.53707 14.4739 5.42187 14.432 5.36854C14.4089 5.33654 14.3723 5.31734 14.3356 5.3152H14.3346ZM9.34476 5.73867L9.34161 5.74187C9.34161 5.74187 9.33952 5.74187 9.33847 5.744C9.3259 5.75467 9.31123 5.776 9.27876 5.79734C9.22323 5.86134 9.2138 5.9072 9.2159 6.0352C9.22009 6.04907 9.32066 6.33707 9.40761 6.53867C9.46628 6.7488 9.51971 6.98987 9.48095 7.21707C9.34476 7.51787 9.07237 7.78774 8.80733 7.93494C8.67114 7.9776 8.5559 7.96267 8.52447 7.9328C8.44695 7.87947 8.4459 7.78347 8.45114 7.76854V7.76534C8.67323 7.60747 8.9278 7.47947 9.12685 7.05387C9.18552 6.89067 9.20437 6.79254 9.14571 6.54187C9.12266 6.44587 9.09333 6.3712 9.03047 6.30294H9.03256C9.07028 6.2848 9.16876 6.3584 9.18447 6.3136C9.16037 6.192 9.07971 6.03094 8.99066 5.94774C8.91104 5.87307 8.82304 5.8656 8.7518 5.9328C8.67009 5.97974 8.65333 6.14614 8.69209 6.2912C8.73609 6.4 8.85447 6.4192 8.93828 6.64C8.94037 6.65494 8.96656 6.80534 8.92466 6.8672C8.88904 6.976 8.44799 7.33014 8.41657 7.35147L8.41342 7.3536L8.41133 7.35574H8.40923H8.40714V7.35254C8.40504 7.344 8.40714 7.32054 8.40714 7.28534C8.40399 7.2192 8.43123 7.0688 8.42809 7.04214V7.04C8.28142 7.136 8.23218 7.42934 8.20599 7.5168C7.83618 7.776 7.41714 7.96907 7.17514 8.23147C7.04942 8.43414 8.04257 8.0032 8.1578 7.95094L8.16095 7.95414C8.18399 7.97867 8.18504 8.064 8.25104 8.14187C8.3558 8.28374 8.57371 8.3712 8.78742 8.3168C9.14571 8.1856 9.35314 7.93707 9.56266 7.6608C9.59199 7.61814 9.63914 7.58187 9.68314 7.616C9.82666 7.94454 10.2436 8.1792 10.781 8.20267C10.9068 8.04907 10.847 7.97334 10.7968 7.94134C10.781 7.93067 10.5296 7.8304 10.4898 7.7312C10.4657 7.63947 10.5254 7.55734 10.6449 7.49654C10.9906 7.45387 11.33 7.40587 11.6589 7.29814C11.6621 7.18507 11.727 7.0176 11.771 6.94401C11.8025 6.89387 11.8203 6.88854 11.8276 6.88214V6.88H11.8297V6.8768V6.86614L11.7731 6.832L10.67 6.82774C10.6564 6.8224 10.6469 6.81707 10.6407 6.81174L10.6386 6.80854C10.6386 6.80854 10.6365 6.80854 10.6365 6.8064C10.6365 6.80427 10.6344 6.80427 10.6344 6.80427V6.80534V6.8032V6.80107V6.79894L10.6365 6.79574C10.6417 6.78934 10.6553 6.78187 10.671 6.7744C10.935 6.7392 11.4023 6.66134 11.4337 6.20374C11.4285 5.9648 11.3331 5.80907 11.0461 5.7664C10.8345 5.7824 10.6836 5.9904 10.7077 6.21867C10.6972 6.27947 10.7287 6.4 10.6658 6.41387C10.2614 6.45227 9.81933 6.7104 9.80466 6.896H9.80257H9.80047H9.79837C9.79837 6.89814 9.79628 6.89814 9.79523 6.89814H9.79104H9.78895H9.78476C9.75856 6.8896 9.72504 6.8448 9.73028 6.784C9.71456 6.464 9.6119 6.10134 9.45266 5.824C9.39504 5.76534 9.36885 5.74187 9.35418 5.73867H9.35104H9.3479H9.3458H9.34476ZM10.4008 5.9072C10.3798 5.91147 10.3557 5.93067 10.3484 5.96267C10.3431 5.984 10.3589 6.01814 10.34 6.0288C10.3295 6.03947 10.2876 6.03307 10.2897 5.97547C10.2897 5.95734 10.2761 5.93707 10.2688 5.92534C10.2604 5.92 10.2551 5.91894 10.2415 5.91894C10.2237 5.91894 10.2227 5.9232 10.2132 5.93814C10.208 5.95307 10.2028 5.97014 10.2028 5.98614C10.2007 6.00747 10.1923 6.01387 10.1787 6.016C10.1619 6.016 10.1661 6.0192 10.1525 6.01067C10.1441 6.00214 10.1336 5.99787 10.1336 5.98294C10.1336 5.96694 10.1305 5.94027 10.1263 5.9296C10.1189 5.92214 10.1074 5.91894 10.0949 5.91467C10.0247 5.91467 10.0215 5.99467 10.0247 6.0256C10.0194 6.03094 10.0163 6.17494 10.1106 6.21547C10.2363 6.27734 10.5401 6.24107 10.4668 6.0416C10.4668 6.02347 10.4615 5.9616 10.4605 5.9456C10.4469 5.9136 10.4228 5.90294 10.3997 5.90614L10.4008 5.9072ZM14.6593 6.08534H14.6489C14.6489 6.08534 14.0601 6.512 14.0465 6.52694C13.9878 6.58027 14.0171 6.7648 14.0465 6.74347C14.0884 6.75947 14.6803 6.35094 14.6688 6.30294C14.6949 6.30507 14.7075 6.0928 14.6583 6.08427L14.6593 6.08534ZM10.957 6.14934C10.9801 6.14614 11.0115 6.15467 11.0409 6.17067C11.0859 6.1984 11.1142 6.2368 11.1089 6.26667V6.27094C11.1069 6.27094 11.1069 6.27094 11.1069 6.27307V6.2752C11.1069 6.2752 11.1048 6.2752 11.1048 6.27734C11.1048 6.27947 11.1016 6.2816 11.0995 6.28374C11.0786 6.30507 11.0304 6.3008 10.9843 6.27307C10.9403 6.24854 10.9141 6.20907 10.9162 6.18134V6.17814L10.9214 6.16747C10.9214 6.16747 10.9214 6.16534 10.9235 6.16427L10.9288 6.15787C10.9361 6.15254 10.9455 6.1472 10.957 6.1472V6.14934ZM5.80485 6.256C5.50104 6.2624 5.05371 6.66347 5.04218 6.88534L6.00599 6.416C5.95361 6.33494 6.00285 6.2624 5.80485 6.256ZM6.79276 6.39467C6.82209 6.3968 6.85352 6.41174 6.87028 6.4544C6.88495 6.49387 6.87028 6.5344 6.85247 6.55467V6.55787C6.8378 6.57494 6.7938 6.56854 6.76133 6.56854C6.72256 6.5664 6.70371 6.56 6.68066 6.528C6.66809 6.49067 6.70161 6.45547 6.71733 6.42987L6.72466 6.4192C6.73514 6.40854 6.75609 6.4 6.77704 6.39787L6.79066 6.39574L6.79276 6.39467ZM14.5451 6.51947C14.4896 6.52587 14.4383 6.57814 14.4613 6.66134C14.4467 6.7104 14.5347 6.88214 14.5588 6.9728C14.5797 7.0368 14.5315 7.22134 14.5745 7.23947C14.6143 7.2608 14.718 7.1328 14.7148 6.96854C14.7253 6.8832 14.6855 6.57387 14.5818 6.52267C14.5692 6.51947 14.5567 6.5184 14.5441 6.51947H14.5451ZM7.9619 6.8224C7.91371 6.8256 7.87076 6.8512 7.89066 6.92054C7.88752 6.9696 8.02685 7.0304 8.03418 7.14454C8.05304 7.1936 8.00276 7.3472 8.04466 7.36C8.08237 7.376 8.13476 7.25334 8.15466 7.1424C8.16514 7.08054 8.10647 6.86507 8.00799 6.8256C7.99228 6.82134 7.97656 6.82027 7.96085 6.82134L7.9619 6.8224ZM9.93142 7.09547H9.94399C10.0676 7.1296 10.2478 7.13387 10.4049 7.1488C10.5338 7.15947 10.5967 7.25974 10.4783 7.30347C10.3589 7.344 10.2447 7.37814 10.2447 7.55094C10.2593 7.63627 10.2551 7.68107 10.2426 7.70027C10.2426 7.70347 10.2394 7.7056 10.2384 7.70667C10.2384 7.70667 10.2384 7.7088 10.2363 7.7088V7.71094H10.2331L10.2258 7.71414H10.2206C10.1923 7.71947 10.1514 7.6928 10.121 7.67574C10.0477 7.6224 9.84342 7.4944 9.81409 7.21707C9.8099 7.15307 9.85599 7.09974 9.92933 7.0944L9.93142 7.09547ZM5.11866 7.3088C5.11133 7.3088 5.09771 7.33227 5.07676 7.35894C4.89447 7.65227 4.87771 8.09067 4.97828 8.22294C5.03066 8.28374 5.11866 8.31147 5.18361 8.29227C5.29885 8.24214 5.34809 8.0064 5.3198 7.92107C5.28314 7.86027 5.25276 7.85067 5.21504 7.90187C5.13437 8.0672 5.0998 7.95307 5.09456 7.8592C5.08199 7.68534 5.09876 7.5232 5.11761 7.3952C5.12809 7.3312 5.12809 7.30667 5.11761 7.30667L5.11866 7.3088ZM11.2965 7.69494C11.2829 7.69494 11.2692 7.69707 11.2546 7.7056C11.2514 7.7056 11.1247 7.79094 11.0838 7.8528C11.0587 7.872 11.0629 7.888 11.0691 7.92214C11.088 7.968 11.1215 7.95414 11.1613 7.9328C11.2137 7.92427 11.2378 7.95947 11.2347 8.0224C11.2106 8.1024 11.2451 8.1312 11.2451 8.13654C11.2451 8.1408 11.2944 8.18454 11.353 8.1504C11.4756 8.1024 11.5521 8.0544 11.7249 8.01707C11.77 8.01707 11.7668 7.89334 11.6956 7.88907C11.6013 7.89334 11.5175 7.89974 11.4232 7.9744C11.3656 7.9872 11.3562 7.95094 11.3426 7.91894C11.3279 7.84 11.3761 7.78454 11.3656 7.7248C11.3677 7.728 11.3363 7.6992 11.2954 7.69707L11.2965 7.69494ZM15.2523 7.84427L15.1685 7.8528C15.1308 7.86027 15.1182 7.87734 15.1109 7.92427C15.114 7.9936 15.1559 7.9904 15.1999 8.01814C15.225 8.05014 15.2418 8.08 15.1978 8.13547C15.1559 8.1728 15.1276 8.19414 15.0857 8.23147C15.0679 8.2656 15.0543 8.3168 15.115 8.33387C15.225 8.36587 15.4796 8.19734 15.4796 8.1952C15.5215 8.1632 15.5069 8.1024 15.5037 8.1024C15.4786 8.07467 15.4241 8.09174 15.3885 8.0864C15.3707 8.0864 15.3151 8.07787 15.3403 8.02667C15.3633 7.99467 15.3717 7.97654 15.3874 7.93707C15.4031 7.89867 15.3874 7.87307 15.3267 7.85174C15.2952 7.84534 15.2743 7.8432 15.2502 7.84427H15.2523ZM13.7301 11.9616C14.0129 11.9755 14.2769 11.9648 14.5577 11.9787C14.6038 12.0171 14.5818 12.1067 14.5525 12.1216L14.5472 12.1237H14.5441H14.5399L14.3031 12.1173V12.1035C14.2801 12.0373 14.1229 12.0416 14.0852 12.0928V12.096C14.0831 12.096 14.0821 12.0992 14.0821 12.1003L14.08 12.1056V12.1184C13.9543 12.1344 13.8443 12.1141 13.7207 12.1099C13.684 12.064 13.6892 11.9819 13.7311 11.9605L13.7301 11.9616Z" fill="white"/>
</g>
<defs>
<clipPath id="clip0_297_3492">
<rect width="22" height="16" fill="white"/>
</clipPath>
</defs>
</svg>
