<svg width="22" height="16" viewBox="0 0 22 16" fill="none" xmlns="http://www.w3.org/2000/svg">
<g clip-path="url(#clip0_297_3464)">
<rect width="22" height="16" rx="2" fill="white"/>
<path fill-rule="evenodd" clip-rule="evenodd" d="M0 0H22V10H0V0Z" fill="#F93939"/>
<path fill-rule="evenodd" clip-rule="evenodd" d="M6.28569 8.3872C5.98188 8.4832 5.65712 8.53333 5.31874 8.53333C3.53779 8.53333 2.09521 7.1008 2.09521 5.33333C2.09521 3.56586 3.53883 2.13333 5.31874 2.13333C5.65607 2.13333 5.98083 2.18453 6.28569 2.27946C4.97826 2.688 4.02912 3.9008 4.02912 5.33333C4.02912 6.76586 4.97826 7.97866 6.28569 8.3872ZM8.38093 3.2H9.42855V4.26666H8.38093V3.2ZM10.4762 4.26666H11.5238V5.33333H10.4762V4.26666ZM9.42855 6.4H10.4762V7.46666H9.42855V6.4ZM6.28569 4.26666H7.33331V5.33333H6.28569V4.26666ZM7.33331 6.4H8.38093V7.46666H7.33331V6.4Z" fill="white"/>
</g>
<defs>
<clipPath id="clip0_297_3464">
<rect width="22" height="16" fill="white"/>
</clipPath>
</defs>
</svg>
