<svg width="22" height="16" viewBox="0 0 22 16" fill="none" xmlns="http://www.w3.org/2000/svg">
<g clip-path="url(#clip0_297_3457)">
<g clip-path="url(#clip1_297_3457)">
<rect width="22" height="16" rx="2" fill="#1A47B8"/>
<path d="M22 0H0V8H22V0Z" fill="#F93939"/>
<path fill-rule="evenodd" clip-rule="evenodd" d="M0 0L10.4762 8L0 16V0Z" fill="white"/>
<path fill-rule="evenodd" clip-rule="evenodd" d="M1.04785 5.33333H3.14309L4.19071 6.39999L5.23833 5.33333H7.33357L5.23833 6.39999H3.14309L1.04785 5.33333Z" fill="#AE6A3E"/>
<path d="M4.19069 10.6667C4.76927 10.6667 5.2383 9.71153 5.2383 8.53333C5.2383 7.35512 4.76927 6.39999 4.19069 6.39999C3.6121 6.39999 3.14307 7.35512 3.14307 8.53333C3.14307 9.71153 3.6121 10.6667 4.19069 10.6667Z" fill="#3ECBF8"/>
<path fill-rule="evenodd" clip-rule="evenodd" d="M3.14283 7.46666V9.59999H4.19045H5.23807V7.46666L6.28569 9.59999L5.23807 10.6667H3.14283L2.09521 9.59999L3.14283 7.46666Z" fill="#FFDA2C"/>
</g>
</g>
<defs>
<clipPath id="clip0_297_3457">
<rect width="22" height="16" fill="white"/>
</clipPath>
<clipPath id="clip1_297_3457">
<rect width="22" height="16" rx="2" fill="white"/>
</clipPath>
</defs>
</svg>
