<svg width="22" height="16" viewBox="0 0 22 16" fill="none" xmlns="http://www.w3.org/2000/svg">
<g clip-path="url(#clip0_297_3442)">
<g clip-path="url(#clip1_297_3442)">
<rect width="22" height="16" rx="2" fill="#1A47B8"/>
<path fill-rule="evenodd" clip-rule="evenodd" d="M0 11H22V16H0V11Z" fill="#F93939"/>
<path fill-rule="evenodd" clip-rule="evenodd" d="M0 0H22V5H0V0Z" fill="white"/>
<path d="M6.80936 3.2H4.71412C4.13554 3.2 3.6665 3.67756 3.6665 4.26666V6.93333C3.6665 7.52243 4.13554 8 4.71412 8H6.80936C7.38795 8 7.85698 7.52243 7.85698 6.93333V4.26666C7.85698 3.67756 7.38795 3.2 6.80936 3.2Z" fill="#F93939"/>
<path d="M6.28567 3.2H5.23805C4.65946 3.2 4.19043 3.67756 4.19043 4.26666V6.4C4.19043 6.9891 4.65946 7.46666 5.23805 7.46666H6.28567C6.86425 7.46666 7.33329 6.9891 7.33329 6.4V4.26666C7.33329 3.67756 6.86425 3.2 6.28567 3.2Z" fill="#1A47B8"/>
<path fill-rule="evenodd" clip-rule="evenodd" d="M5.23828 4.26666H6.2859V5.33333H5.23828V4.26666Z" fill="#FFDA2C"/>
<path fill-rule="evenodd" clip-rule="evenodd" d="M4.19043 6.4L5.76186 5.86667L7.33329 6.4L6.28567 7.46667H5.23805L4.19043 6.4Z" fill="white"/>
</g>
</g>
<defs>
<clipPath id="clip0_297_3442">
<rect width="22" height="16" fill="white"/>
</clipPath>
<clipPath id="clip1_297_3442">
<rect width="22" height="16" rx="2" fill="white"/>
</clipPath>
</defs>
</svg>
