<svg width="22" height="16" viewBox="0 0 22 16" fill="none" xmlns="http://www.w3.org/2000/svg">
<g clip-path="url(#clip0_297_3437)">
<g clip-path="url(#clip1_297_3437)">
<rect width="22" height="16" rx="2" fill="#1A47B8"/>
<path fill-rule="evenodd" clip-rule="evenodd" d="M0 16H22V0L0 16Z" fill="#FFDA2C"/>
<path fill-rule="evenodd" clip-rule="evenodd" d="M2.09521 16H22V2.13333L2.09521 16Z" fill="#249F58"/>
<path fill-rule="evenodd" clip-rule="evenodd" d="M5.366 6.0352L4.71857 6.4L4.84219 5.62773L4.31838 5.0816L5.04124 4.96853L5.366 4.26666L5.69076 4.96853L6.41362 5.0816L5.88981 5.62773L6.01343 6.4L5.366 6.0352ZM3.27076 3.90186L2.62333 4.26666L2.74695 3.4944L2.22314 2.94826L2.946 2.8352L3.27076 2.13333L3.59553 2.8352L4.31838 2.94826L3.79457 3.4944L3.91819 4.26666L3.27076 3.90186ZM7.46124 3.90186L6.81381 4.26666L6.93743 3.4944L6.41362 2.94826L7.13648 2.8352L7.46124 2.13333L7.786 2.8352L8.50886 2.94826L7.98505 3.4944L8.10867 4.26666L7.46124 3.90186ZM7.46124 8.16853L6.81381 8.53333L6.93743 7.76106L6.41362 7.21493L7.13648 7.10186L7.46124 6.4L7.786 7.10186L8.50886 7.21493L7.98505 7.76106L8.10867 8.53333L7.46124 8.16853ZM3.27076 8.16853L2.62333 8.53333L2.74695 7.76106L2.22314 7.21493L2.946 7.10186L3.27076 6.4L3.59553 7.10186L4.31838 7.21493L3.79457 7.76106L3.91819 8.53333L3.27076 8.16853Z" fill="white"/>
</g>
</g>
<defs>
<clipPath id="clip0_297_3437">
<rect width="22" height="16" fill="white"/>
</clipPath>
<clipPath id="clip1_297_3437">
<rect width="22" height="16" rx="2" fill="white"/>
</clipPath>
</defs>
</svg>
