<svg width="22" height="16" viewBox="0 0 22 16" fill="none" xmlns="http://www.w3.org/2000/svg">
<g clip-path="url(#clip0_297_3419)">
<rect width="22" height="16" rx="2" fill="white"/>
<path fill-rule="evenodd" clip-rule="evenodd" d="M14.6668 7.99999C14.6668 10.0619 13.0252 11.7333 11.0002 11.7333C8.97512 11.7333 7.3335 10.0619 7.3335 7.99999C7.3335 6.80533 9.7954 6.30399 11.8676 6.49279C12.0876 6.43306 12.3244 6.39999 12.5716 6.39999C13.7292 6.39999 14.6668 7.11679 14.6668 7.99999Z" fill="#232C80"/>
<path fill-rule="evenodd" clip-rule="evenodd" d="M10.4764 7.46666C10.4764 7.46666 11.414 6.4 12.5716 6.4C13.7292 6.4 14.6668 7.1168 14.6668 8C14.6668 5.93813 13.0252 4.26666 11.0002 4.26666C9.53664 4.26666 8.27321 5.1392 7.6855 6.40213C7.3335 7.46666 7.3335 7.77813 7.3335 8C7.85731 8.53333 8.43978 8.53333 8.90492 8.53333C9.37007 8.53333 9.78807 8.32746 10.0762 8L10.4764 7.46666Z" fill="#F93939"/>
<path fill-rule="evenodd" clip-rule="evenodd" d="M15.7142 5.33333H17.8095L15.7142 3.2H14.6666L15.7142 5.33333ZM6.28567 5.33333H4.19043L6.28567 3.2H7.33329L6.28567 5.33333ZM15.7142 10.6667H17.8095L15.7142 12.8H14.6666L15.7142 10.6667ZM6.28567 10.6667H4.19043L6.28567 12.8H7.33329L6.28567 10.6667Z" fill="#151515"/>
</g>
<defs>
<clipPath id="clip0_297_3419">
<rect width="22" height="16" fill="white"/>
</clipPath>
</defs>
</svg>
