<svg width="22" height="16" viewBox="0 0 22 16" fill="none" xmlns="http://www.w3.org/2000/svg">
<g clip-path="url(#clip0_297_3391)">
<g clip-path="url(#clip1_297_3391)">
<rect width="22" height="16" rx="2" fill="#FFDA2C"/>
<rect width="22" height="16" fill="#FFDA2C"/>
<rect opacity="0.3" width="22" height="16" fill="#FF6C2D"/>
<path fill-rule="evenodd" clip-rule="evenodd" d="M2.09521 2.13333H5.23807V13.8667H2.09521V2.13333Z" fill="#0A6A30"/>
<path fill-rule="evenodd" clip-rule="evenodd" d="M5.23828 2.13333H8.38114V13.8667H5.23828V2.13333Z" fill="#FF6C2D"/>
<path opacity="0.2" fill-rule="evenodd" clip-rule="evenodd" d="M5.23828 2.13333H8.38114V13.8667H5.23828V2.13333Z" fill="#151515"/>
<path fill-rule="evenodd" clip-rule="evenodd" d="M9.42871 2.13333H19.9049V13.8667H9.42871V2.13333ZM13.1321 11.3238L13.1928 11.2768L13.218 11.3238C13.2525 11.3878 13.3479 11.3856 13.4107 11.3238L13.46 11.2736L13.5019 11.3216C13.5542 11.3856 13.6527 11.3856 13.7156 11.3216C13.7617 11.2768 13.768 11.2758 13.7973 11.311C13.8141 11.3302 13.8654 11.3536 13.9104 11.3611C13.9921 11.376 13.9942 11.375 14.0414 11.2779C14.0833 11.1968 14.0885 11.1648 14.0791 11.0859C14.0728 11.0326 14.0655 10.9494 14.0634 10.8992C14.0613 10.8075 14.0613 10.8064 14.1598 10.7606C14.2121 10.735 14.275 10.7008 14.2991 10.6838C14.3379 10.656 14.4458 10.4843 14.4458 10.4491C14.4458 10.4406 14.4039 10.4278 14.3515 10.4192C14.1472 10.3872 14.1126 10.2379 14.2467 9.96055C14.4636 9.51042 14.5945 9.06989 14.5956 8.78935C14.5956 8.66455 14.6008 8.62189 14.6134 8.65069C14.6616 8.76055 14.5746 9.22669 14.4426 9.56269L14.3902 9.69815L14.4405 9.68215C14.4678 9.67149 14.6322 9.57869 14.8041 9.47309C15.2755 9.18509 15.4379 9.12749 15.7438 9.14455C15.9994 9.15949 16.1083 9.22669 16.2885 9.48375C16.3849 9.61922 16.4771 9.71629 16.6447 9.85922C17.0051 10.1643 17.0198 10.1899 17.0365 10.5483C17.0543 10.911 17.047 10.9323 16.8427 10.992C16.6699 11.0432 16.5599 11.152 16.5316 11.3046C16.5169 11.3867 16.5494 11.3899 16.6363 11.3131L16.6992 11.2576L16.7285 11.3131C16.7662 11.3878 16.8459 11.3878 16.9119 11.3131L16.9611 11.2598L17.0114 11.3131C17.091 11.3984 17.1968 11.3792 17.2261 11.2704C17.2314 11.2512 17.2471 11.2576 17.2785 11.2939C17.3361 11.3622 17.4839 11.392 17.5006 11.3366C17.5069 11.3174 17.4943 11.2672 17.4744 11.2256C17.3885 11.0507 17.3613 10.9664 17.3592 10.8715C17.3592 10.7392 17.3875 10.6752 17.4996 10.5664C17.6358 10.4352 17.6777 10.2678 17.575 10.2678C17.5121 10.2678 17.4472 10.1899 17.4074 10.0651C17.3236 9.81442 17.3393 9.53175 17.464 9.06242C17.5897 8.58242 17.6043 8.49709 17.6054 8.17709C17.6054 7.91789 17.6022 7.87309 17.5582 7.73122C17.5321 7.64589 17.4776 7.51575 17.4388 7.44535L17.3686 7.31735L17.4598 7.21282C17.7395 6.89922 17.6829 6.38509 17.3445 6.18882C17.2429 6.12695 17.2167 6.12162 17.0365 6.12482C16.9276 6.12482 16.7641 6.14402 16.6699 6.16749C16.5735 6.18882 16.4121 6.20802 16.3011 6.20802C16.1251 6.20802 16.0958 6.20375 16.0287 6.15469C15.9575 6.10349 15.9449 6.08002 15.9313 5.96269C15.9292 5.93709 15.9166 5.91362 15.9041 5.90935C15.88 5.89869 15.7679 6.02669 15.7532 6.08642C15.7448 6.11415 15.7375 6.11202 15.7144 6.07575C15.6987 6.04909 15.6767 5.99042 15.6652 5.94562C15.6369 5.83042 15.6715 5.74295 15.77 5.67895L15.8485 5.62989L15.8045 5.59149C15.7102 5.51255 15.55 5.56589 15.4923 5.69815C15.4756 5.73335 15.4578 5.76429 15.4525 5.76429C15.4473 5.76429 15.4159 5.72909 15.3834 5.68642C15.2619 5.52642 15.3038 5.28749 15.4672 5.21389C15.5531 5.17549 15.6296 5.20535 15.6453 5.28322C15.6694 5.40269 15.7459 5.24589 15.7322 5.10402C15.7218 5.01015 15.7218 5.00589 15.771 5.00589C15.8381 5.00589 15.9805 5.12535 16.0256 5.21922C16.078 5.32589 16.0727 5.49655 16.0151 5.62242L15.9732 5.72162L16.0298 5.70669C16.1136 5.68322 16.1974 5.61069 16.2393 5.52535C16.2833 5.43362 16.2885 5.25549 16.2498 5.15842C16.211 5.06562 16.2152 5.05175 16.2707 5.08375C16.3671 5.13709 16.4174 5.19469 16.4561 5.29709C16.4918 5.38775 16.4939 5.41015 16.475 5.50509C16.4645 5.56375 16.4383 5.64055 16.4184 5.67575C16.387 5.73229 16.387 5.74189 16.4111 5.74189C16.4561 5.74189 16.5525 5.68322 16.5861 5.63522C16.6028 5.60962 16.628 5.54989 16.6416 5.49869L16.6657 5.40909L16.694 5.47735C16.7338 5.57335 16.8092 5.66189 16.9035 5.71629C17.0051 5.77602 17.047 5.78029 16.9946 5.72482C16.959 5.68749 16.893 5.42615 16.9129 5.40162C16.9234 5.38669 17.0617 5.52962 17.2167 5.71949C17.3655 5.90082 17.4577 5.95842 17.5939 5.95842C17.7688 5.95842 17.8694 5.75362 17.7929 5.56055C17.7458 5.44749 17.6441 5.43255 17.5855 5.52855C17.5582 5.57335 17.5509 5.60855 17.5582 5.65442C17.5687 5.71202 17.5645 5.71842 17.5268 5.71842C17.4744 5.71842 17.376 5.63309 17.2 5.43255C16.9307 5.12855 16.6028 4.87042 16.3671 4.77655C16.2152 4.71469 15.8915 4.69122 15.7385 4.72962C15.5709 4.77015 15.3719 4.90029 15.265 5.03895C15.0743 5.28429 15.0722 5.60962 15.2577 5.90722L15.3101 5.99255L15.2744 6.06722C15.2221 6.17815 15.2262 6.32642 15.2849 6.43522C15.3111 6.48322 15.3373 6.52269 15.3436 6.52269C15.3499 6.52269 15.3561 6.49069 15.3582 6.45335C15.3635 6.35735 15.3939 6.29335 15.4462 6.26882C15.4923 6.24535 15.5227 6.25602 15.7375 6.37122C15.9627 6.49389 16.3325 6.50135 16.7264 6.39255C16.9202 6.34135 17.1476 6.34455 17.2481 6.40109C17.4315 6.50562 17.4744 6.77655 17.3393 6.98242C17.2806 7.06989 17.2241 7.10615 17.0355 7.17655C16.8909 7.22989 16.8574 7.23415 16.5295 7.22989C16.2498 7.22562 16.1492 7.23309 16.035 7.26509C15.9114 7.30029 15.836 7.30349 15.4714 7.29175L15.0502 7.27682L15.0974 7.33015C15.1225 7.35789 15.1602 7.39415 15.1781 7.40802C15.2095 7.43149 15.2095 7.43469 15.1613 7.45815C15.133 7.47309 15.0722 7.48375 15.0251 7.48375H14.9381L14.9277 7.58402C14.9214 7.63949 14.9214 7.70135 14.9277 7.72589C14.9381 7.76109 14.935 7.76535 14.9067 7.75255C14.89 7.74189 14.8397 7.72589 14.7957 7.71309C14.7517 7.70029 14.693 7.67575 14.6647 7.65655C14.6165 7.62455 14.6123 7.62455 14.5935 7.66722C14.5788 7.70562 14.4321 7.85282 14.4101 7.85282C14.407 7.85282 14.4028 7.82402 14.3997 7.78882C14.3997 7.75469 14.3787 7.66402 14.3536 7.58829C14.3305 7.51362 14.3054 7.43042 14.2991 7.40482C14.2886 7.36642 14.2855 7.36429 14.2729 7.39415C14.2656 7.41229 14.2541 7.46349 14.2478 7.50829C14.2425 7.55095 14.2205 7.62562 14.1996 7.66829L14.1619 7.74722L14.1378 7.67895C14.1126 7.60642 14.0697 7.52962 14.054 7.52962C14.0487 7.52962 14.0393 7.55415 14.033 7.58295C14.0225 7.64162 13.9209 7.80695 13.8968 7.80695C13.8863 7.80695 13.879 7.76002 13.879 7.70349C13.879 7.64589 13.8717 7.60002 13.8612 7.60002C13.8528 7.60002 13.8444 7.61389 13.8444 7.63202C13.8444 7.67469 13.7575 7.80589 13.7292 7.80589C13.7156 7.80589 13.6957 7.82082 13.6831 7.84002C13.6517 7.88909 13.6255 7.88269 13.6381 7.82935C13.6454 7.80269 13.6412 7.74402 13.6297 7.69602L13.6014 7.58402C13.5972 7.56695 13.5668 7.57122 13.5008 7.60002C13.394 7.64589 13.3583 7.63842 13.4128 7.57869C13.4338 7.55735 13.4652 7.48482 13.4809 7.41655C13.4977 7.34829 13.5228 7.28855 13.5375 7.28109C13.5563 7.27469 13.5553 7.28429 13.5322 7.32589C13.5165 7.35575 13.5029 7.39629 13.5029 7.41549C13.5029 7.43469 13.4893 7.47949 13.4746 7.51682C13.46 7.55522 13.4505 7.58829 13.4537 7.59149C13.4579 7.59682 13.4977 7.57655 13.5438 7.54669L13.6276 7.49335V7.54135C13.6276 7.56802 13.6381 7.63735 13.6485 7.69709L13.6716 7.80375L13.7281 7.76855C13.7858 7.73229 13.8413 7.60322 13.8413 7.50402C13.8413 7.45282 13.8622 7.46135 13.8706 7.51469L13.9 7.64269L13.9251 7.74295L13.9639 7.67895C13.9848 7.64375 14.0131 7.57549 14.0246 7.52642C14.0456 7.44322 14.0749 7.40695 14.0749 7.46775C14.0749 7.51255 14.165 7.67042 14.1818 7.65762C14.1901 7.65122 14.2069 7.59149 14.2184 7.52535C14.2436 7.38669 14.2834 7.29282 14.3096 7.31202C14.3201 7.32055 14.3221 7.33335 14.3169 7.34402C14.3127 7.35469 14.3326 7.44535 14.363 7.54455C14.3944 7.64375 14.4259 7.74402 14.4311 7.76642C14.4416 7.80375 14.4521 7.79842 14.517 7.72055C14.5589 7.67255 14.5945 7.61922 14.5987 7.60109C14.605 7.57549 14.6144 7.57655 14.6511 7.60749C14.7035 7.65229 14.8816 7.72482 14.8952 7.70562C14.9004 7.69922 14.9057 7.63629 14.9057 7.56695L14.9088 7.43895L14.9612 7.45282C14.9895 7.46135 15.0481 7.46029 15.0921 7.45282L15.1718 7.43682L15.1016 7.37069C15.0628 7.33442 15.023 7.28749 15.0136 7.26615C15.0031 7.24482 14.9675 7.22349 14.9298 7.22029C14.8219 7.20749 14.6322 7.06349 14.6322 6.99629C14.6322 6.98242 14.6584 7.00375 14.6909 7.04429C14.7621 7.13175 14.8606 7.18722 14.9465 7.18722H15.0115L14.9717 7.11682C14.9486 7.07415 14.9277 6.99735 14.9224 6.93229C14.9151 6.83095 14.9067 6.81495 14.8281 6.74029C14.781 6.69549 14.7213 6.62829 14.6972 6.59095L14.6532 6.52375L14.6301 6.60375C14.6176 6.64855 14.6019 6.68375 14.5966 6.68375C14.5903 6.68375 14.5652 6.65815 14.5442 6.62722C14.5201 6.59522 14.4961 6.56962 14.4919 6.56962C14.4845 6.56962 14.4646 6.61229 14.4447 6.66562L14.4101 6.75842L14.3829 6.70509C14.3672 6.67309 14.3326 6.62189 14.3043 6.58775C14.2761 6.55149 14.2603 6.52375 14.2708 6.52375C14.2813 6.52375 14.3169 6.56002 14.3494 6.60375L14.4091 6.68482L14.4332 6.62509C14.4468 6.59095 14.4521 6.53655 14.4458 6.49282C14.4353 6.42882 14.4374 6.42669 14.4562 6.46615C14.4667 6.49175 14.5013 6.54082 14.5327 6.57282L14.5893 6.63682L14.6281 6.54082C14.6668 6.44482 14.6679 6.44482 14.6846 6.50029C14.7087 6.57709 14.8784 6.76695 15.023 6.87575C15.044 6.89282 15.0356 6.83309 14.9947 6.69975C14.9842 6.66455 14.9738 6.60055 14.9738 6.55789C14.9738 6.49389 14.9612 6.46509 14.9004 6.40322C14.8145 6.31362 14.7873 6.25069 14.7705 6.10669C14.7642 6.04802 14.7496 5.98295 14.737 5.96269C14.7192 5.93069 14.7161 5.94882 14.7213 6.05655C14.7234 6.13122 14.7161 6.22082 14.7045 6.25922L14.6836 6.32749L14.6668 6.26989C14.6563 6.23789 14.6176 6.18455 14.5778 6.14722C14.5359 6.11202 14.5097 6.07682 14.5149 6.06935C14.5201 6.06295 14.5621 6.09495 14.6061 6.14189C14.6741 6.21335 14.6899 6.22082 14.6982 6.18989C14.7087 6.15255 14.6982 5.99149 14.6773 5.88055C14.6668 5.82295 14.6668 5.82295 14.7192 5.89122C14.7569 5.94455 14.7768 6.00429 14.7925 6.11095C14.8135 6.24642 14.824 6.27095 14.9161 6.37762C14.9717 6.44482 15.0209 6.49495 15.023 6.49069C15.0272 6.48642 15.0335 6.31575 15.0387 6.11202C15.0492 5.72269 15.0387 5.62989 14.9685 5.50935L14.9329 5.44749L14.9884 5.36535C15.0618 5.25869 15.0953 5.17335 15.11 5.05602L15.1225 4.96002L15.0597 5.04215C15.0073 5.10829 14.9832 5.12322 14.9235 5.12322C14.8638 5.12322 14.8397 5.11042 14.8009 5.05175C14.7527 4.98242 14.6668 4.91629 14.5851 4.88322C14.5537 4.87255 14.5432 4.87682 14.5432 4.90455C14.5432 4.92589 14.5275 4.98349 14.5065 5.03469L14.4699 5.12855L14.3923 5.02402C14.3441 4.96002 14.2876 4.91095 14.2457 4.89602C14.1378 4.85762 14.1325 4.86082 14.1325 4.97069C14.1325 5.13389 14.0801 5.16482 13.9859 5.05602C13.9157 4.97069 13.856 4.95362 13.7208 4.97389L13.6161 4.98989L13.637 5.05389C13.6517 5.10722 13.6475 5.12855 13.614 5.18935C13.5595 5.28749 13.4882 5.33015 13.3793 5.33015C13.329 5.33015 13.2661 5.34402 13.2389 5.36215C13.2127 5.37815 13.1467 5.39842 13.0922 5.40482C13.0378 5.41229 12.9801 5.42615 12.9634 5.43362C12.9382 5.44642 12.9351 5.43575 12.9424 5.35682C12.9561 5.23522 12.8942 5.14669 12.7958 5.14669C12.6701 5.14669 12.6124 5.29922 12.6617 5.50082C12.671 5.5349 12.6803 5.58745 12.6866 5.62345L12.6889 5.63629C12.6962 5.67362 12.7518 5.77282 12.823 5.86775C12.8901 5.95949 12.9529 6.05442 12.9634 6.07895C12.9739 6.10349 13.0084 6.14295 13.0399 6.16642L13.0975 6.20909L13.0901 6.12695C13.0818 6.03522 13.0964 6.02029 13.1321 6.08429C13.1457 6.10882 13.1781 6.14615 13.2054 6.16962C13.2473 6.20375 13.2546 6.20482 13.2546 6.17389C13.2546 6.15255 13.263 6.10989 13.2735 6.07362L13.2944 6.00962L13.3259 6.09709C13.3447 6.14509 13.4055 6.25495 13.46 6.34242C13.5668 6.50775 13.6318 6.69442 13.5982 6.73709C13.5846 6.75522 13.548 6.75309 13.4725 6.73282C13.4128 6.71789 13.3395 6.70935 13.3091 6.71469C13.2462 6.72535 13.2431 6.71469 13.2808 6.65069C13.3206 6.58349 13.3143 6.57282 13.2358 6.57282C13.1446 6.57282 12.9194 6.51309 12.8324 6.46615C12.7486 6.42349 12.7277 6.43415 12.7036 6.54082L12.6585 6.73815L12.6344 6.84482L12.7256 6.83415C12.7759 6.82669 12.8408 6.81282 12.8691 6.80002C12.8984 6.78935 12.9246 6.78295 12.9278 6.78615C12.9309 6.79042 12.9173 6.83309 12.8995 6.88002L12.8639 6.96535L12.9215 6.95042C12.9529 6.94189 13.0001 6.92055 13.0262 6.90349C13.0723 6.87362 13.0755 6.87575 13.1121 6.95362C13.1561 7.04962 13.1918 7.04642 13.1991 6.94295C13.2075 6.83842 13.2337 6.85442 13.2829 6.99415C13.328 7.12855 13.3772 7.17549 13.3856 7.09655C13.3887 7.07095 13.4128 7.02722 13.4411 7.00055C13.4966 6.94722 13.5385 6.96429 13.5616 7.04749C13.5878 7.13282 13.5322 7.22242 13.373 7.35469C13.0482 7.61922 12.8618 7.98189 12.8073 8.44269C12.7591 8.85869 12.91 9.28962 13.2127 9.59895C13.3573 9.74829 13.5878 9.90295 13.5731 9.84429C13.5123 9.59042 13.5144 9.10829 13.5773 9.02615C13.5878 9.01335 13.5836 9.06349 13.57 9.13709C13.5197 9.41229 13.5417 9.63095 13.6716 10.144C13.7868 10.6091 13.7721 10.8075 13.6066 10.9376C13.5542 10.9803 13.5186 10.9867 13.3761 10.9846C13.2211 10.9824 13.2043 10.9867 13.1541 11.04C13.1059 11.0934 13.0441 11.264 13.0441 11.343C13.0441 11.3856 13.0786 11.3803 13.1488 11.3259L13.1321 11.3238ZM11.9587 10.4704C11.9755 10.4416 11.9881 10.3958 11.9881 10.3691C11.9881 10.3286 12.0017 10.3179 12.0687 10.3051L12.1494 10.2902L12.097 10.2315C12.0321 10.1632 12.0258 10.1099 12.0823 10.1099C12.1379 10.1099 12.2332 10.031 12.2479 9.97122C12.2552 9.94562 12.251 9.90935 12.2395 9.89015C12.2081 9.84215 12.1483 9.84962 12.1379 9.90295C12.1253 9.96055 12.1064 9.96162 12.0614 9.90295C11.9943 9.81762 11.9922 9.63842 12.0582 9.53389C12.0876 9.48482 12.0876 9.48055 12.0478 9.43149C12.0059 9.37602 11.9744 9.26829 11.9954 9.24269C12.0017 9.23522 12.0352 9.24269 12.0687 9.25762C12.119 9.27895 12.1389 9.28109 12.1588 9.25762C12.2217 9.19362 12.1536 9.10829 12.0541 9.12749C12.0153 9.13495 11.9996 9.12749 11.9933 9.09975C11.9891 9.07842 11.9545 9.04962 11.9147 9.03575C11.8456 9.01229 11.8445 9.01442 11.8445 9.07842C11.8445 9.14989 11.8131 9.16375 11.7576 9.11789C11.7104 9.08055 11.6654 9.10935 11.6654 9.17655C11.6654 9.23842 11.7125 9.26935 11.7953 9.26189C11.8581 9.25655 11.8613 9.32162 11.8005 9.41335L11.7565 9.48055L11.7911 9.54775C11.8435 9.64695 11.8382 9.81229 11.7806 9.89442L11.7387 9.95842L11.7094 9.90722C11.6696 9.83575 11.6151 9.84109 11.5994 9.91789C11.5889 9.96802 11.5994 9.99042 11.6444 10.0438C11.6759 10.079 11.7209 10.1078 11.745 10.1078C11.8058 10.1078 11.8037 10.1718 11.7408 10.2379L11.6916 10.2891L11.7691 10.3051C11.811 10.3136 11.8445 10.3307 11.8445 10.3424C11.8445 10.3851 11.8969 10.5216 11.9147 10.5216C11.9252 10.5216 11.9461 10.5003 11.9598 10.4715L11.9587 10.4704ZM12.2238 8.15575C12.3977 8.05229 12.4123 7.78882 12.2489 7.71842C12.1808 7.69069 12.1379 7.70775 12.1127 7.76855C12.0918 7.81655 12.1054 7.90295 12.1337 7.90295C12.1421 7.90295 12.1494 7.91789 12.1494 7.93709C12.1494 8.02882 11.8843 8.07042 11.7764 7.99575C11.7387 7.96909 11.7241 7.90189 11.7555 7.90189C11.7764 7.90189 11.7942 7.83149 11.7827 7.78242C11.766 7.71629 11.7157 7.69282 11.6444 7.71842C11.4821 7.77602 11.4873 8.03415 11.6518 8.14509C11.788 8.23362 12.0855 8.23895 12.2259 8.15575H12.2238ZM12.1159 7.95309C12.1263 7.94242 12.1221 7.92109 12.1054 7.90295C12.0687 7.86349 12.0708 7.80482 12.1106 7.73762C12.1421 7.68749 12.1452 7.61282 12.1557 6.85655C12.1735 5.55095 12.2447 4.57069 12.339 4.33602C12.3767 4.24215 12.3704 4.24002 12.2741 4.33069C12.1483 4.44589 12.0541 4.59735 11.9702 4.81069C11.811 5.21602 11.7555 5.76215 11.7555 6.92695C11.7555 7.58829 11.7597 7.67362 11.7869 7.73762C11.8141 7.79522 11.8152 7.81762 11.7974 7.88055C11.7848 7.92109 11.7796 7.96055 11.7848 7.96589C11.8204 8.01282 12.0781 8.00109 12.1169 7.95202L12.1159 7.95309ZM11.5239 3.2H10.4763V4.26666H11.5239V3.2ZM18.8573 3.2H17.8097V4.26666H18.8573V3.2ZM11.5239 11.7333H10.4763V12.8H11.5239V11.7333ZM18.8573 11.7333H17.8097V12.8H18.8573V11.7333Z" fill="#AF010D"/>
</g>
</g>
<defs>
<clipPath id="clip0_297_3391">
<rect width="22" height="16" fill="white"/>
</clipPath>
<clipPath id="clip1_297_3391">
<rect width="22" height="16" rx="2" fill="white"/>
</clipPath>
</defs>
</svg>
