<svg width="22" height="16" viewBox="0 0 22 16" fill="none" xmlns="http://www.w3.org/2000/svg">
<g clip-path="url(#clip0_297_3339)">
<g clip-path="url(#clip1_297_3339)">
<rect width="22" height="16" rx="2" fill="#AF010D"/>
<path d="M19.9048 0H2.09524C0.93807 0 0 0.955126 0 2.13333V13.8667C0 15.0449 0.93807 16 2.09524 16H19.9048C21.0619 16 22 15.0449 22 13.8667V2.13333C22 0.955126 21.0619 0 19.9048 0Z" fill="#AF010D"/>
<path fill-rule="evenodd" clip-rule="evenodd" d="M0 0H12V11H0V0Z" fill="white"/>
<path fill-rule="evenodd" clip-rule="evenodd" d="M7.33354 4.26666V2.13333H5.2383V4.26666H3.14307V6.4H5.2383V8.53333H7.33354V6.4H9.42878V4.26666H7.33354Z" fill="#AF010D"/>
</g>
</g>
<defs>
<clipPath id="clip0_297_3339">
<rect width="22" height="16" fill="white"/>
</clipPath>
<clipPath id="clip1_297_3339">
<rect width="22" height="16" rx="2" fill="white"/>
</clipPath>
</defs>
</svg>
