<svg width="22" height="16" viewBox="0 0 22 16" fill="none" xmlns="http://www.w3.org/2000/svg">
<g clip-path="url(#clip0_297_3330)">
<rect width="22" height="16" rx="2" fill="#F93939"/>
<path d="M11.0002 11.7333C13.0252 11.7333 14.6668 10.0619 14.6668 8C14.6668 5.93813 13.0252 4.26666 11.0002 4.26666C8.97512 4.26666 7.3335 5.93813 7.3335 8C7.3335 10.0619 8.97512 11.7333 11.0002 11.7333Z" fill="white"/>
<path fill-rule="evenodd" clip-rule="evenodd" d="M12.5713 7.46666H13.6189V8.53333H12.5713V7.46666Z" fill="#F93939"/>
<path fill-rule="evenodd" clip-rule="evenodd" d="M13.0951 9.6C12.6174 10.2475 11.8569 10.6667 10.9999 10.6667C9.55419 10.6667 8.38086 9.472 8.38086 7.99999C8.38086 6.52799 9.55419 5.33333 10.9999 5.33333C11.8569 5.33333 12.6174 5.75253 13.0951 6.39999H11.5237C10.6563 6.39999 9.95229 7.11679 9.95229 7.99999C9.95229 8.8832 10.6563 9.6 11.5237 9.6H13.0951Z" fill="#F93939"/>
</g>
<defs>
<clipPath id="clip0_297_3330">
<rect width="22" height="16" fill="white"/>
</clipPath>
</defs>
</svg>
