<svg width="22" height="16" viewBox="0 0 22 16" fill="none" xmlns="http://www.w3.org/2000/svg">
<g clip-path="url(#clip0_297_3320)">
<rect width="22" height="16" rx="2" fill="#249F58"/>
<path fill-rule="evenodd" clip-rule="evenodd" d="M2.09521 0H3.14283V16H2.09521V0ZM4.19045 0H5.23807V16H4.19045V0ZM6.28569 0H7.33331V16H6.28569V0Z" fill="#D4AF2C"/>
<path fill-rule="evenodd" clip-rule="evenodd" d="M5.23807 0L7.33331 1.6L5.23807 3.2V0ZM5.23807 3.2L7.33331 4.8L5.23807 6.4V3.2ZM5.23807 6.4L7.33331 8L5.23807 9.6V6.4ZM5.23807 9.6L7.33331 11.2L5.23807 12.8V9.6ZM5.23807 12.8L7.33331 14.4L5.23807 16V12.8ZM4.19045 0L2.09521 1.6L4.19045 3.2V0ZM4.19045 3.2L2.09521 4.8L4.19045 6.4V3.2ZM4.19045 6.4L2.09521 8L4.19045 9.6V6.4ZM4.19045 9.6L2.09521 11.2L4.19045 12.8V9.6ZM4.19045 12.8L2.09521 14.4L4.19045 16V12.8ZM4.19045 0H5.23807V2.13333H4.19045V0ZM4.19045 13.8667H5.23807V16H4.19045V13.8667ZM4.19045 5.33333H5.23807V7.46667H4.19045V5.33333ZM4.19045 3.2H5.23807V4.26667H4.19045V3.2ZM4.19045 11.7333H5.23807V12.8H4.19045V11.7333ZM4.19045 8.53333H5.23807V10.6667H4.19045V8.53333Z" fill="#AE6A3E"/>
<path fill-rule="evenodd" clip-rule="evenodd" d="M11.7712 3.21493C11.8623 3.20426 11.9545 3.2 12.0478 3.2C13.4935 3.2 14.6668 4.39466 14.6668 5.86666C14.6668 7.33866 13.4935 8.53333 12.0478 8.53333C10.602 8.53333 9.42871 7.33866 9.42871 5.86666C9.42871 5.77066 9.43395 5.67786 9.44338 5.58506C9.5649 6.64533 10.4491 7.46666 11.5239 7.46666C12.6816 7.46666 13.6192 6.512 13.6192 5.33333C13.6192 4.24 12.8125 3.33866 11.7712 3.21493ZM10.4763 4.26666H11.5239V5.33333H10.4763V4.26666Z" fill="white"/>
<path opacity="0.5" fill-rule="evenodd" clip-rule="evenodd" d="M8.38086 4.26666H9.42848V5.33333H8.38086V4.26666ZM10.4761 2.13333H11.5237V3.2H10.4761V2.13333Z" fill="white"/>
</g>
<defs>
<clipPath id="clip0_297_3320">
<rect width="22" height="16" fill="white"/>
</clipPath>
</defs>
</svg>
