<svg width="22" height="16" viewBox="0 0 22 16" fill="none" xmlns="http://www.w3.org/2000/svg">
<g clip-path="url(#clip0_297_3315)">
<rect width="22" height="16" rx="2" fill="#3A99FF"/>
<path fill-rule="evenodd" clip-rule="evenodd" d="M14.6666 5.33333V6.39999H15.7142V5.33333H14.6666ZM17.8094 5.33333V6.39999H18.857V5.33333H17.8094ZM12.5713 8.53333V9.6H13.619V8.53333H12.5713ZM16.7618 9.6V10.6667H17.8094V9.6H16.7618ZM12.5713 11.7333V12.8H13.619V11.7333H12.5713ZM8.38086 10.6667V11.7333H9.42848V10.6667H8.38086Z" fill="#FFDA2C"/>
<path d="M9.4288 1.06667H2.09547C1.51689 1.06667 1.04785 1.54423 1.04785 2.13333V7.46667C1.04785 8.05577 1.51689 8.53333 2.09547 8.53333H9.4288C10.0074 8.53333 10.4764 8.05577 10.4764 7.46667V2.13333C10.4764 1.54423 10.0074 1.06667 9.4288 1.06667Z" fill="white"/>
<path fill-rule="evenodd" clip-rule="evenodd" d="M5.23807 5.33333H2.09521V4.26666H5.23807V2.13333H6.28569V4.26666H9.42855V5.33333H6.28569V7.46666H5.23807V5.33333ZM7.85712 6.4V7.46666H9.42855V6.4H7.85712ZM7.85712 2.13333V3.2H9.42855V2.13333H7.85712ZM2.09521 6.4V7.46666H3.66664V6.4H2.09521ZM2.09521 2.13333V3.2H3.66664V2.13333H2.09521Z" fill="#F93939"/>
</g>
<defs>
<clipPath id="clip0_297_3315">
<rect width="22" height="16" fill="white"/>
</clipPath>
</defs>
</svg>
