<svg width="22" height="16" viewBox="0 0 22 16" fill="none" xmlns="http://www.w3.org/2000/svg">
<g clip-path="url(#clip0_297_3307)">
<g clip-path="url(#clip1_297_3307)">
<rect width="22" height="16" rx="2" fill="#FFDA2C"/>
<path fill-rule="evenodd" clip-rule="evenodd" d="M0 0H22V2.13333H0V0Z" fill="#151515"/>
<path fill-rule="evenodd" clip-rule="evenodd" d="M0 4.26666H22V7.46666H0V4.26666Z" fill="#F93939"/>
<path fill-rule="evenodd" clip-rule="evenodd" d="M0 7.46666H22V10.6667H0V7.46666Z" fill="#151515"/>
<path d="M10.4764 10.6667C12.2121 10.6667 13.6192 9.23397 13.6192 7.46666C13.6192 5.69935 12.2121 4.26666 10.4764 4.26666C8.7406 4.26666 7.3335 5.69935 7.3335 7.46666C7.3335 9.23397 8.7406 10.6667 10.4764 10.6667Z" fill="white"/>
<path fill-rule="evenodd" clip-rule="evenodd" d="M10.4763 4.26666L9.42871 7.46666L10.4763 9.6L11.5239 7.46666V10.6667L12.5716 7.46666L11.5239 6.4L10.4763 7.46666V4.26666Z" fill="#151515"/>
<rect y="12.8" width="22" height="3.2" fill="#F93939"/>
</g>
</g>
<defs>
<clipPath id="clip0_297_3307">
<rect width="22" height="16" fill="white"/>
</clipPath>
<clipPath id="clip1_297_3307">
<rect width="22" height="16" rx="2" fill="white"/>
</clipPath>
</defs>
</svg>
