<svg width="22" height="16" viewBox="0 0 22 16" fill="none" xmlns="http://www.w3.org/2000/svg">
<g clip-path="url(#clip0_297_3283)">
<rect width="22" height="16" rx="2" fill="white"/>
<path fill-rule="evenodd" clip-rule="evenodd" d="M10.4762 3.2H22V5.33333H10.4762V3.2ZM10.4762 7.46666H22V9.6H10.4762V7.46666ZM0 11.7333H22V13.8667H0V11.7333Z" fill="#3A99FF"/>
<path fill-rule="evenodd" clip-rule="evenodd" d="M7.2076 7.33867C6.96664 8.66667 6.41141 9.6 5.76188 9.6C5.11236 9.6 4.55712 8.66773 4.31617 7.33867C3.01188 7.09333 2.09521 6.528 2.09521 5.86666C2.09521 5.20533 3.01083 4.64 4.31617 4.39466C4.55712 3.06666 5.11236 2.13333 5.76188 2.13333C6.41141 2.13333 6.96664 3.0656 7.2076 4.39466C8.51188 4.64 9.42855 5.20533 9.42855 5.86666C9.42855 6.528 8.51293 7.09333 7.2076 7.33867Z" fill="#D4AF2C"/>
<path fill-rule="evenodd" clip-rule="evenodd" d="M6.4816 6.59946C6.41455 8.30933 6.11807 9.6 5.76188 9.6C5.40569 9.6 5.10922 8.30933 5.04217 6.59946C3.36283 6.5312 2.09521 6.22933 2.09521 5.86666C2.09521 5.504 3.36283 5.20213 5.04217 5.13387C5.10922 3.424 5.40569 2.13333 5.76188 2.13333C6.11807 2.13333 6.41455 3.424 6.4816 5.13387C8.16093 5.20213 9.42855 5.504 9.42855 5.86666C9.42855 6.22933 8.16093 6.5312 6.4816 6.59946Z" fill="#FFDA2C"/>
<path d="M5.76186 7.46666C6.62973 7.46666 7.33329 6.75032 7.33329 5.86666C7.33329 4.98301 6.62973 4.26666 5.76186 4.26666C4.89398 4.26666 4.19043 4.98301 4.19043 5.86666C4.19043 6.75032 4.89398 7.46666 5.76186 7.46666Z" fill="#FFDA2C"/>
</g>
<defs>
<clipPath id="clip0_297_3283">
<rect width="22" height="16" fill="white"/>
</clipPath>
</defs>
</svg>
