<svg width="22" height="16" viewBox="0 0 22 16" fill="none" xmlns="http://www.w3.org/2000/svg">
<g clip-path="url(#clip0_297_3221)">
<g clip-path="url(#clip1_297_3221)">
<rect width="22" height="16" rx="2" fill="#249F58"/>
<path fill-rule="evenodd" clip-rule="evenodd" d="M0 2.13333H22V13.8667H0V2.13333Z" fill="#FFDA2C"/>
<path fill-rule="evenodd" clip-rule="evenodd" d="M0 4.26666H22V11.7333H0V4.26666Z" fill="#F93939"/>
<path fill-rule="evenodd" clip-rule="evenodd" d="M0 6.39999H22V9.59999H0V6.39999Z" fill="#151515"/>
<path fill-rule="evenodd" clip-rule="evenodd" d="M1.04762 0L12.5714 8L1.04762 16H0V0" fill="#151515"/>
<path fill-rule="evenodd" clip-rule="evenodd" d="M0 0L11.5238 8L0 16V0Z" fill="white"/>
<path fill-rule="evenodd" clip-rule="evenodd" d="M4.71438 9.33333L3.17438 10.1579L3.46772 8.41173L2.22314 7.17439L3.94438 6.92159L4.71438 5.33333L5.48438 6.92266L7.20562 7.17546L5.95895 8.4128L6.25229 10.1579" fill="#F93939"/>
<path fill-rule="evenodd" clip-rule="evenodd" d="M3.14307 9.59999H6.28592V8.53333L5.2383 7.46666C5.2383 7.46666 5.2383 6.39999 4.19069 6.39999H3.14307L4.19069 7.46666L3.14307 9.59999Z" fill="#FFDA2C"/>
</g>
</g>
<defs>
<clipPath id="clip0_297_3221">
<rect width="22" height="16" fill="white"/>
</clipPath>
<clipPath id="clip1_297_3221">
<rect width="22" height="16" rx="2" fill="white"/>
</clipPath>
</defs>
</svg>
