<svg width="32" height="32" viewBox="0 0 32 32" fill="none" xmlns="http://www.w3.org/2000/svg">
<path d="M13.3333 22.2114V25.3333C13.3333 26.8061 14.5272 28 16 28C17.4728 28 18.6667 26.8061 18.6667 25.3333V22.2114M16 4V5.33333M5.33333 16H4M7.4668 7.4668L6.66667 6.66667M24 7.4668L24.8003 6.66667M28 16H26.6667M22.6667 16C22.6667 19.6819 19.6819 22.6667 16 22.6667C12.3181 22.6667 9.33333 19.6819 9.33333 16C9.33333 12.3181 12.3181 9.33333 16 9.33333C19.6819 9.33333 22.6667 12.3181 22.6667 16Z" stroke="#E3FF77" stroke-width="2" stroke-linecap="round" stroke-linejoin="round"/>
</svg>
