<svg width="82" height="76" viewBox="0 0 82 76" fill="none" xmlns="http://www.w3.org/2000/svg">
<path d="M72.9087 61.0619L72.9086 61.0618L72.9124 61.0552C74.4174 58.4523 76.26 55.165 77.7543 51.9198C79.2493 48.673 80.3839 45.4925 80.4977 43.0889C80.1034 37.1515 76.5307 32.2791 71.2776 27.9895C66.0208 23.6968 59.1071 20.0089 52.0836 16.437C44.7769 12.721 37.0975 9.84508 29.9527 8.78511C22.8133 7.72594 16.2289 8.48271 11.078 12.0005C9.67313 13.3688 8.15114 15.8228 6.73373 18.4112C5.83239 20.0572 4.98158 21.7415 4.23341 23.2226C3.80217 24.0764 3.40503 24.8626 3.05197 25.535C-4.71772 40.3333 4.54461 60.328 23.8771 70.1599C43.2096 79.9917 65.139 75.8602 72.9087 61.0619Z" fill="url(#paint0_linear_382_7115)" stroke="black" stroke-width="0.375"/>
<path d="M57.5218 6.08754C38.1581 -3.76021 16.0635 0.610335 8.12571 15.7288C0.18794 30.8473 9.34768 51.1127 28.7114 60.9605C48.0751 70.8082 70.1697 66.4377 78.1075 51.3192C86.0452 36.2008 76.8855 15.9353 57.5218 6.08754Z" fill="url(#paint1_linear_382_7115)" stroke="black" stroke-width="0.375"/>
<path d="M55.1944 10.521C38.9494 2.25926 20.4251 5.93068 13.7729 18.6007C7.12065 31.2707 14.7943 48.2655 31.0394 56.5272C47.2844 64.7889 65.8087 61.1175 72.4609 48.4475C79.1132 35.7775 71.4395 18.7826 55.1944 10.521Z" stroke="black" stroke-width="0.375"/>
<path d="M46.6847 43.9875C43.8025 44.4203 41.3944 44.286 39.4605 43.5844C37.5517 42.8768 36.1427 41.7362 35.2334 40.1625L40.8897 38.8046C41.1851 39.1655 41.5064 39.4661 41.8537 39.7066C42.201 39.9471 42.6244 40.1153 43.1241 40.2112C43.6237 40.3072 44.2045 40.3405 44.8663 40.3111C45.5183 40.2625 46.2843 40.1326 47.1641 39.9214C48.9741 39.4868 50.1762 38.9931 50.7704 38.4403C51.38 37.8621 51.5094 37.2266 51.1586 36.5335C50.7299 35.6865 49.8805 35.178 48.6103 35.0079C47.3555 34.8126 45.4966 34.8163 43.0335 35.019C41.5786 35.1524 40.2453 35.1918 39.0335 35.1373C37.812 35.0635 36.715 34.8735 35.7424 34.5673C34.76 34.2418 33.9049 33.7778 33.1771 33.1753C32.4492 32.5728 31.8417 31.7903 31.3545 30.8277C30.5848 29.3069 30.6302 27.8927 31.4908 26.585C32.3668 25.252 33.9432 24.161 36.2202 23.3121L34.8755 20.6555L39.4006 19.5692L40.7452 22.2258C43.376 21.8533 45.5606 22.0197 47.2991 22.725C49.0278 23.411 50.3602 24.4837 51.2962 25.943L45.6399 27.301C45.1131 26.6502 44.4527 26.2366 43.6586 26.0602C42.8547 25.8646 41.7238 25.9418 40.2657 26.2919C38.7825 26.6479 37.7815 27.0934 37.2628 27.6281C36.744 28.1629 36.6405 28.7383 36.9523 29.3543C37.3226 30.0858 38.0974 30.5583 39.2768 30.7717C40.4716 30.9598 42.1902 30.9575 44.4326 30.7645C45.9727 30.6323 47.3737 30.5874 48.6358 30.6298C49.9229 30.6663 51.0654 30.8346 52.0631 31.1348C53.086 31.429 53.9788 31.8839 54.7416 32.4996C55.5197 33.09 56.1572 33.8762 56.6541 34.8579C57.4921 36.5135 57.4374 38.0487 56.4901 39.4636C55.5679 40.8724 53.8078 42.0183 51.2097 42.9011L52.8466 46.1352L48.3216 47.2216L46.6847 43.9875Z" fill="black"/>
<defs>
<linearGradient id="paint0_linear_382_7115" x1="-0.54645" y1="41.377" x2="71.9986" y2="64.7772" gradientUnits="userSpaceOnUse">
<stop stop-color="#653BE4"/>
<stop offset="0.330177" stop-color="#4E2AB5"/>
<stop offset="1" stop-color="#131604"/>
</linearGradient>
<linearGradient id="paint1_linear_382_7115" x1="9.57358" y1="16.2639" x2="67.9921" y2="66.4199" gradientUnits="userSpaceOnUse">
<stop stop-color="#DEBDEB"/>
<stop offset="0.677083" stop-color="#B88BE8"/>
<stop offset="1" stop-color="#885CC6"/>
</linearGradient>
</defs>
</svg>
