<svg width="184" height="193" viewBox="0 0 184 193" fill="none" xmlns="http://www.w3.org/2000/svg">
<path d="M157.805 31.1904L157.805 31.1905L157.797 31.184C152.346 26.6886 145.435 21.1422 138.486 16.4205C131.535 11.6974 124.574 7.82022 119.011 6.6272C105.031 5.25123 92.3213 11.715 80.3478 22.286C68.3694 32.8612 57.1615 47.5172 46.1924 62.4551C34.7727 78.0066 25.1498 94.7553 19.9418 110.968C14.736 127.174 13.9497 142.816 20.1538 156.194C22.7989 160.011 27.9249 164.51 33.3803 168.8C36.8475 171.526 40.4284 174.154 43.5736 176.462C45.384 177.791 47.05 179.014 48.4669 180.088C79.8716 203.904 129.849 189.991 160.08 148.823C190.31 107.655 189.21 55.0067 157.805 31.1904Z" fill="url(#paint0_linear_382_5793)" stroke="black" stroke-width="0.5"/>
<path d="M24.3127 45.8511C-5.96861 87.0885 -4.3738 140.211 27.7054 164.539C59.7846 188.867 110.35 175.301 140.631 134.063C170.913 92.826 169.318 39.7032 137.239 15.3754C105.16 -8.95242 54.594 4.61364 24.3127 45.8511Z" fill="url(#paint1_linear_382_5793)" stroke="black" stroke-width="0.5"/>
<path d="M33.6859 52.9596C8.27579 87.5634 9.62295 132.126 36.5255 152.528C63.428 172.93 105.848 161.559 131.258 126.955C156.669 92.3515 155.321 47.7888 128.419 27.3868C101.516 6.98479 59.0961 18.3557 33.6859 52.9596Z" stroke="black" stroke-width="0.5"/>
<path d="M62.4188 118.605C56.5865 117.448 52.7027 115.347 50.7675 112.304C48.8876 109.266 48.7329 105.611 50.3033 101.339L62.7628 102.45C62.5525 103.494 62.507 104.42 62.6262 105.228C62.7453 106.036 63.14 106.736 63.8101 107.327C64.4802 107.919 65.415 108.427 66.6145 108.853C67.8356 109.228 69.4152 109.501 71.3534 109.674C75.3404 110.03 78.3974 109.797 80.5242 108.977C82.728 108.11 84.2185 106.754 84.9957 104.91C85.9456 102.656 85.4952 100.861 83.6444 99.5271C81.8705 98.1463 78.6583 96.7703 74.0077 95.3989C71.2333 94.6201 68.8559 93.7171 66.8755 92.6901C64.9167 91.6118 63.4043 90.3607 62.3381 88.9367C61.2935 87.4615 60.7445 85.7647 60.6911 83.8463C60.6376 81.9279 61.1506 79.6879 62.2301 77.1263C63.9356 73.0789 66.834 69.8821 70.9253 67.5358C75.0936 65.1432 79.9869 63.8252 85.6053 63.5818L88.5845 56.5117L98.5522 57.4002L95.5729 64.4703C100.851 65.5787 104.286 67.5858 105.877 70.4918C107.489 73.3465 107.647 76.7892 106.351 80.8199L93.8914 79.7093C94.281 77.8304 93.9671 76.3937 92.9497 75.3994C91.9539 74.3538 89.8501 73.6879 86.6383 73.4016C83.3712 73.1103 80.7572 73.3823 78.7965 74.2175C76.8358 75.0527 75.51 76.2901 74.8192 77.9295C73.9988 79.8763 74.3925 81.5327 76.0002 82.8986C77.6849 84.2182 80.6526 85.4928 84.9034 86.7222C87.8223 87.5671 90.3274 88.508 92.4185 89.5449C94.565 90.5868 96.199 91.8221 97.3205 93.251C98.4975 94.6848 99.1295 96.3891 99.2168 98.3636C99.381 100.292 98.9125 102.562 97.8115 105.175C95.9549 109.581 92.7993 113.048 88.3447 115.574C83.9455 118.106 78.6261 119.412 72.3864 119.494L68.7595 128.101L58.7918 127.212L62.4188 118.605Z" fill="black"/>
<defs>
<linearGradient id="paint0_linear_382_5793" x1="197.204" y1="39.0212" x2="110.842" y2="205.156" gradientUnits="userSpaceOnUse">
<stop stop-color="#30341A"/>
<stop offset="0.330177" stop-color="#B6C458"/>
<stop offset="1" stop-color="#131604"/>
</linearGradient>
<linearGradient id="paint1_linear_382_5793" x1="29.6139" y1="161.228" x2="168.53" y2="45.2012" gradientUnits="userSpaceOnUse">
<stop stop-color="#F4FFAE"/>
<stop offset="0.541667" stop-color="#DDF253"/>
<stop offset="1" stop-color="#F5FFB1"/>
</linearGradient>
</defs>
</svg>
