<svg width="130" height="150" viewBox="0 0 130 150" fill="none" xmlns="http://www.w3.org/2000/svg">
<circle cx="1.48292" cy="1.48292" r="1.48292" transform="matrix(-0.986698 -0.162564 0.149068 -0.988827 4.92285 71.8218)" fill="white"/>
<path d="M52.704 13.8134C38.5663 15.9324 9.00754 30.3548 3.8744 71.0926" stroke="url(#paint0_linear_382_6835)" stroke-width="0.58684" stroke-linecap="round"/>
<circle cx="1.48292" cy="1.48292" r="1.48292" transform="matrix(-0.972789 -0.231694 0.22029 -0.975435 116.883 100.739)" fill="white"/>
<path d="M67.7167 137.572C79.6299 138.016 105.934 130.925 115.842 99.0055" stroke="url(#paint1_linear_382_6835)" stroke-width="0.58684" stroke-linecap="round"/>
<path d="M91.2827 49.4222L91.2826 49.4223L91.2767 49.4175C89.0892 47.6134 86.3177 45.3892 83.5318 43.4963C80.7443 41.6023 77.9641 40.0553 75.749 39.579C70.1724 39.0319 65.0945 41.6094 60.2978 45.8442C55.4976 50.0822 51.0038 55.9579 46.6004 61.9544C42.0197 68.1924 38.1627 74.9068 36.0761 81.4026C33.9911 87.8932 33.6798 94.145 36.1542 99.486C37.2088 101.005 39.2541 102.801 41.4415 104.521C42.8325 105.615 44.2668 106.668 45.5282 107.593C46.2553 108.127 46.925 108.618 47.4959 109.051C60.049 118.571 80.0591 113.023 92.1782 96.5192C104.297 80.0152 103.836 58.942 91.2827 49.4222Z" fill="url(#paint2_linear_382_6835)" stroke="black" stroke-width="0.37073"/>
<path d="M37.8177 55.2896C25.6791 71.8201 26.3372 93.0841 39.162 102.81C51.9869 112.536 72.2329 107.125 84.3716 90.5946C96.5102 74.0641 95.852 52.8001 83.0272 43.0741C70.2023 33.3482 49.9563 38.7592 37.8177 55.2896Z" fill="url(#paint3_linear_382_6835)" stroke="black" stroke-width="0.37073"/>
<path d="M41.5803 58.1431C31.397 72.011 31.9557 89.839 42.7027 97.9892C53.4497 106.139 70.4262 101.609 80.6096 87.7417C90.793 73.8738 90.2342 56.0458 79.4872 47.8956C68.7403 39.7454 51.7637 44.2753 41.5803 58.1431Z" stroke="black" stroke-width="0.37073"/>
<path d="M53.0454 84.4411C50.7043 83.9764 49.1454 83.1333 48.3686 81.9119C47.6141 80.6924 47.552 79.2253 48.1823 77.5106L53.1834 77.9564C53.099 78.3756 53.0808 78.7473 53.1286 79.0716C53.1764 79.396 53.3348 79.6768 53.6038 79.9141C53.8728 80.1515 54.248 80.3556 54.7295 80.5266C55.2196 80.6769 55.8537 80.7868 56.6316 80.8561C58.232 80.9988 59.459 80.9055 60.3127 80.5762C61.1973 80.2283 61.7956 79.6842 62.1075 78.9439C62.4888 78.039 62.308 77.3188 61.5651 76.7832C60.8531 76.229 59.5637 75.6766 57.697 75.1262C56.5834 74.8135 55.6291 74.4511 54.8342 74.0389C54.048 73.6061 53.4409 73.1039 53.013 72.5323C52.5937 71.9402 52.3733 71.2591 52.3519 70.4891C52.3304 69.719 52.5363 68.8199 52.9696 67.7917C53.6542 66.1671 54.8176 64.8839 56.4598 63.9421C58.1329 62.9818 60.0971 62.4527 62.3522 62.3551L63.5481 59.5172L67.549 59.8738L66.3531 62.7117C68.4719 63.1566 69.8505 63.9622 70.4891 65.1287C71.1363 66.2745 71.1997 67.6564 70.6794 69.2743L65.6782 68.8285C65.8346 68.0743 65.7086 67.4977 65.3002 67.0985C64.9005 66.6788 64.0561 66.4115 62.7669 66.2966C61.4555 66.1797 60.4062 66.2889 59.6192 66.6242C58.8322 66.9594 58.3001 67.456 58.0228 68.1141C57.6935 68.8955 57.8515 69.5604 58.4968 70.1087C59.173 70.6384 60.3643 71.1499 62.0705 71.6434C63.2421 71.9826 64.2476 72.3602 65.087 72.7764C65.9486 73.1946 66.6044 73.6905 67.0546 74.264C67.527 74.8396 67.7807 75.5236 67.8158 76.3162C67.8817 77.0902 67.6936 78.0016 67.2517 79.0504C66.5064 80.8189 65.2398 82.2102 63.4518 83.2243C61.686 84.2405 59.5508 84.7649 57.0463 84.7977L55.5905 88.2525L51.5895 87.8959L53.0454 84.4411Z" fill="black"/>
<defs>
<linearGradient id="paint0_linear_382_6835" x1="3.66856" y1="71.0624" x2="49.3977" y2="15.9278" gradientUnits="userSpaceOnUse">
<stop stop-color="white"/>
<stop offset="1" stop-color="white" stop-opacity="0"/>
</linearGradient>
<linearGradient id="paint1_linear_382_6835" x1="99.681" y1="93.57" x2="83.1378" y2="142.759" gradientUnits="userSpaceOnUse">
<stop stop-color="white"/>
<stop offset="1" stop-color="white" stop-opacity="0"/>
</linearGradient>
<linearGradient id="paint2_linear_382_6835" x1="107.148" y1="52.4969" x2="72.4826" y2="119.182" gradientUnits="userSpaceOnUse">
<stop stop-color="#30341A"/>
<stop offset="0.330177" stop-color="#B6C458"/>
<stop offset="1" stop-color="#131604"/>
</linearGradient>
<linearGradient id="paint3_linear_382_6835" x1="39.8778" y1="101.55" x2="95.6376" y2="54.9774" gradientUnits="userSpaceOnUse">
<stop stop-color="#F4FFAE"/>
<stop offset="0.541667" stop-color="#DDF253"/>
<stop offset="1" stop-color="#F5FFB1"/>
</linearGradient>
</defs>
</svg>
