<svg width="86" height="132" viewBox="0 0 86 132" fill="none" xmlns="http://www.w3.org/2000/svg">
<path d="M21.3888 1L85.0005 54.0097L49.9325 89.4854L21.3888 1Z" fill="url(#paint0_linear_382_5805)"/>
<path d="M1.00017 80.1068L21.3885 1L50.34 89.4854L1.00017 80.1068Z" fill="url(#paint1_linear_382_5805)"/>
<path d="M64.2041 131.078L1.00017 80.1067L49.9322 89.4853L64.2041 131.078Z" fill="url(#paint2_linear_382_5805)"/>
<path d="M85.0004 54.0093L64.2043 131.077L49.9324 89.485L85.0004 54.0093Z" fill="url(#paint3_linear_382_5805)"/>
<path d="M21.3888 1L21.1509 1.07675L20.886 0.255546L21.5489 0.807945L21.3888 1ZM85.0002 54.0095L85.1783 54.1849L85.0169 54.3488L84.8402 54.2015L85.0002 54.0095ZM49.9324 89.485L50.1704 89.4083L50.1756 89.4244L50.1786 89.4411L49.9324 89.485ZM49.9325 89.4854L49.6961 89.5666L49.6898 89.5483L49.6864 89.5294L49.9325 89.4854ZM64.2043 131.077L64.4457 131.142L64.2329 131.931L63.9678 131.158L64.2043 131.077ZM85.0002 54.01L84.7589 53.9448L84.7761 53.8809L84.8228 53.8339L85.0002 54.01ZM85.0005 54.0097L85.1596 53.8168L85.371 53.9912L85.178 54.1858L85.0005 54.0097ZM85.0003 54.0096L84.8413 54.2024L84.7172 54.1001L84.7589 53.9447L85.0003 54.0096ZM85.0004 54.0093L84.8223 53.8338L85.4879 53.1582L85.2419 54.0741L85.0004 54.0093ZM1.00017 80.1068L0.843231 80.3014L0.717896 80.2003L0.75808 80.0444L1.00017 80.1068ZM21.3885 1L21.1464 0.937606L21.3617 0.102458L21.6264 0.923249L21.3885 1ZM64.2041 131.078L64.4405 130.996L64.7219 131.816L64.0471 131.272L64.2041 131.078ZM49.9322 89.4854L49.6957 89.5666L49.6943 89.5622L49.9322 89.4854ZM21.5489 0.807945L85.1603 53.8174L84.8402 54.2015L21.2288 1.19206L21.5489 0.807945ZM49.6945 89.5618L21.1509 1.07675L21.6268 0.923249L50.1704 89.4083L49.6945 89.5618ZM49.6864 89.5294L49.6863 89.529L50.1786 89.4411L50.1786 89.4415L49.6864 89.5294ZM63.9678 131.158L49.6961 89.5666L50.169 89.4043L64.4408 130.996L63.9678 131.158ZM85.2416 54.0751L64.4457 131.142L63.9629 131.012L84.7589 53.9448L85.2416 54.0751ZM85.178 54.1858L85.1777 54.1861L84.8228 53.8339L84.823 53.8336L85.178 54.1858ZM85.1594 53.8167L85.1596 53.8168L84.8414 54.2026L84.8413 54.2024L85.1594 53.8167ZM85.2419 54.0741L85.2418 54.0744L84.7589 53.9447L84.759 53.9444L85.2419 54.0741ZM84.8221 53.834L84.8223 53.8338L85.1785 54.1847L85.1783 54.1849L84.8221 53.834ZM0.75808 80.0444L21.1464 0.937606L21.6306 1.06239L1.24226 80.1692L0.75808 80.0444ZM64.0471 131.272L0.843231 80.3014L1.1571 79.9122L64.361 130.883L64.0471 131.272ZM50.1687 89.4043L64.4405 130.996L63.9676 131.159L49.6957 89.5666L50.1687 89.4043ZM21.6264 0.923249L50.1701 89.4087L49.6943 89.5622L21.1506 1.07675L21.6264 0.923249Z" fill="black"/>
<path d="M21.3886 1.40759L64.2042 131.077" stroke="black" stroke-width="0.5"/>
<path d="M85.0002 54.0093L50.34 89.0772L1.00017 80.1064" stroke="black" stroke-width="0.5"/>
<defs>
<linearGradient id="paint0_linear_382_5805" x1="49.0002" y1="24" x2="53.1947" y2="89.4854" gradientUnits="userSpaceOnUse">
<stop stop-color="#DBB9EB"/>
<stop offset="1" stop-color="#9261CF"/>
</linearGradient>
<linearGradient id="paint1_linear_382_5805" x1="25.0002" y1="109" x2="25.0002" y2="1" gradientUnits="userSpaceOnUse">
<stop stop-color="#2A1F46"/>
<stop offset="1" stop-color="#5A35C7"/>
</linearGradient>
<linearGradient id="paint2_linear_382_5805" x1="72.3594" y1="137.194" x2="14.8642" y2="94.3785" gradientUnits="userSpaceOnUse">
<stop stop-color="#9F71D5"/>
<stop offset="1" stop-color="#885CB7"/>
</linearGradient>
<linearGradient id="paint3_linear_382_5805" x1="66.9998" y1="70" x2="66.9998" y2="119" gradientUnits="userSpaceOnUse">
<stop stop-color="#9362D0"/>
<stop offset="1" stop-color="#B990DE"/>
</linearGradient>
</defs>
</svg>
