<svg width="44" height="67" viewBox="0 0 44 67" fill="none" xmlns="http://www.w3.org/2000/svg">
<path d="M32.8057 1L0.99984 27.5049L18.5338 45.2427L32.8057 1Z" fill="url(#paint0_linear_382_7126)"/>
<path d="M43 40.5534L32.8058 1L18.3301 45.2427L43 40.5534Z" fill="url(#paint1_linear_382_7126)"/>
<path d="M11.3981 66.0388L43 40.5533L18.534 45.2427L11.3981 66.0388Z" fill="url(#paint2_linear_382_7126)"/>
<path d="M0.99971 27.5046L11.3978 66.0386L18.5337 45.2425L0.99971 27.5046Z" fill="url(#paint3_linear_382_7126)"/>
<path d="M43.0001 40.5534L43.1571 40.748L43.2824 40.6469L43.2422 40.491L43.0001 40.5534ZM32.806 1.00014L32.5683 0.922688L32.5457 0.991973L32.5639 1.06254L32.806 1.00014ZM11.3982 66.0388L11.1617 65.9577L10.8804 66.7776L11.5551 66.2334L11.3982 66.0388ZM18.5341 45.2427L18.7706 45.3239L18.8212 45.1763L18.7109 45.0659L18.5341 45.2427ZM18.534 45.2426L18.7107 45.0658L18.4275 44.7826L18.2975 45.1614L18.534 45.2426ZM11.3981 66.0386L11.1567 66.1038L11.3695 66.8923L11.6345 66.1198L11.3981 66.0386ZM1 27.5046L1.18149 27.3327L0.758633 27.5698L1 27.5046ZM1.00021 27.5049L0.818718 27.6768L0.980046 27.8471L1.16025 27.6969L1.00021 27.5049ZM32.8059 1.0001L32.966 1.19215L33.0221 1.14539L33.0442 1.07577L32.8059 1.0001ZM32.8059 1L33.0477 0.936222L32.8282 0.104217L32.5677 0.924321L32.8059 1ZM32.806 1.00006L32.5642 1.06384L32.6647 1.44455L32.9665 1.1917L32.806 1.00006ZM32.806 1L33.0437 1.07746L33.3139 0.248431L32.6455 0.808363L32.806 1ZM43.2422 40.491L33.0481 0.937748L32.5639 1.06254L42.758 40.6158L43.2422 40.491ZM11.5551 66.2334L43.1571 40.748L42.8432 40.3588L11.2412 65.8442L11.5551 66.2334ZM18.2976 45.1616L11.1617 65.9577L11.6346 66.1199L18.7706 45.3239L18.2976 45.1616ZM18.3572 45.4193L18.3573 45.4195L18.7109 45.0659L18.7107 45.0658L18.3572 45.4193ZM11.6345 66.1198L18.7704 45.3237L18.2975 45.1614L11.1616 65.9575L11.6345 66.1198ZM0.758633 27.5698L11.1567 66.1038L11.6394 65.9735L1.24137 27.4395L0.758633 27.5698ZM1.18169 27.3329L1.18149 27.3327L0.818512 27.6766L0.818718 27.6768L1.18169 27.3329ZM32.6459 0.808041L0.84016 27.3128L1.16025 27.6969L32.966 1.19215L32.6459 0.808041ZM32.5677 0.924321L32.5676 0.924417L33.0442 1.07577L33.0442 1.07568L32.5677 0.924321ZM33.0477 0.93628L33.0477 0.936222L32.5642 1.06378L32.5642 1.06384L33.0477 0.93628ZM32.6455 0.808363L32.6454 0.808419L32.9665 1.1917L32.9666 1.19164L32.6455 0.808363ZM33.0437 1.0776L33.0437 1.07746L32.5683 0.922548L32.5683 0.922688L33.0437 1.0776Z" fill="black"/>
<path d="M32.8057 1.2038L11.3979 66.0387" stroke="black" stroke-width="0.5"/>
<path d="M1 27.5046L18.3301 45.0386L43 40.5532" stroke="black" stroke-width="0.5"/>
<defs>
<linearGradient id="paint0_linear_382_7126" x1="16.9028" y1="1" x2="16.9028" y2="45.2427" gradientUnits="userSpaceOnUse">
<stop stop-color="#F8FFCB"/>
<stop offset="1" stop-color="#DEF255"/>
</linearGradient>
<linearGradient id="paint1_linear_382_7126" x1="52.1748" y1="-22.8544" x2="18.534" y2="75.8252" gradientUnits="userSpaceOnUse">
<stop stop-color="#626B2D"/>
<stop offset="1" stop-color="#161906"/>
</linearGradient>
<linearGradient id="paint2_linear_382_7126" x1="7.32039" y1="69.097" x2="36.068" y2="47.6893" gradientUnits="userSpaceOnUse">
<stop stop-color="#F1FF89"/>
<stop offset="1" stop-color="#98A34A"/>
</linearGradient>
<linearGradient id="paint3_linear_382_7126" x1="9.7667" y1="27.5046" x2="9.7667" y2="66.0386" gradientUnits="userSpaceOnUse">
<stop stop-color="#ECFF66"/>
<stop offset="1" stop-color="#9FAD3D"/>
</linearGradient>
</defs>
</svg>
