<svg width="140" height="125" viewBox="0 0 140 125" fill="none" xmlns="http://www.w3.org/2000/svg">
<mask id="path-1-inside-1_382_5837" fill="white">
<path fill-rule="evenodd" clip-rule="evenodd" d="M41.0263 25.822C40.6653 26.3485 40.3054 26.8734 39.9146 27.384L40.0492 27.5502L39.7464 27.7548L50.0082 40.1272L50.1581 40.0259L73.7426 69.1321L51 66L40.7825 72.9101C52.4696 99.8632 76.678 120.027 94.8827 117.94C99.2598 117.438 102.891 115.696 105.72 112.964L116 107.006L112.186 100.1C114.042 90.6908 112.37 78.4231 106.703 65.3541C95.0157 38.401 78.0863 11.485 59.9999 14.4999C57 15 49.4999 18.5001 44.9999 21.5001C43.1386 22.741 42.0781 24.2879 41.0263 25.822Z"/>
</mask>
<path fill-rule="evenodd" clip-rule="evenodd" d="M41.0263 25.822C40.6653 26.3485 40.3054 26.8734 39.9146 27.384L40.0492 27.5502L39.7464 27.7548L50.0082 40.1272L50.1581 40.0259L73.7426 69.1321L51 66L40.7825 72.9101C52.4696 99.8632 76.678 120.027 94.8827 117.94C99.2598 117.438 102.891 115.696 105.72 112.964L116 107.006L112.186 100.1C114.042 90.6908 112.37 78.4231 106.703 65.3541C95.0157 38.401 78.0863 11.485 59.9999 14.4999C57 15 49.4999 18.5001 44.9999 21.5001C43.1386 22.741 42.0781 24.2879 41.0263 25.822Z" fill="url(#paint0_linear_382_5837)"/>
<path d="M39.9146 27.384L39.5261 27.6988L39.2781 27.3928L39.5175 27.0801L39.9146 27.384ZM41.0263 25.822L40.6139 25.5393V25.5393L41.0263 25.822ZM40.0492 27.5502L40.4377 27.2354L40.7811 27.6592L40.3291 27.9646L40.0492 27.5502ZM39.7464 27.7548L39.3615 28.074L39.0093 27.6494L39.4665 27.3405L39.7464 27.7548ZM50.0082 40.1272L50.2881 40.5415L49.9126 40.7951L49.6234 40.4464L50.0082 40.1272ZM50.1581 40.0259L49.8783 39.6116L50.2581 39.355L50.5466 39.7111L50.1581 40.0259ZM73.7426 69.1321L74.1311 68.8173L74.9273 69.8L73.6744 69.6274L73.7426 69.1321ZM51 66L50.7199 65.5859L50.8785 65.4786L51.0682 65.5047L51 66ZM40.7825 72.9101L40.3238 73.109L40.1587 72.7283L40.5024 72.4959L40.7825 72.9101ZM94.8827 117.94L94.8257 117.443H94.8257L94.8827 117.94ZM105.72 112.964L105.372 112.604L105.416 112.562L105.469 112.531L105.72 112.964ZM116 107.006L116.438 106.765L116.674 107.193L116.251 107.439L116 107.006ZM112.186 100.1L111.748 100.341L111.66 100.182L111.695 100.003L112.186 100.1ZM106.703 65.3541L106.244 65.5531L106.703 65.3541ZM59.9999 14.4999L59.9177 14.0067L59.9999 14.4999ZM44.9999 21.5001L44.7226 21.0841L44.9999 21.5001ZM39.5175 27.0801C39.8991 26.5816 40.2517 26.0675 40.6139 25.5393L41.4386 26.1048C41.0789 26.6295 40.7117 27.1653 40.3116 27.6879L39.5175 27.0801ZM39.6608 27.865L39.5261 27.6988L40.303 27.0692L40.4377 27.2354L39.6608 27.865ZM39.4665 27.3405L39.7694 27.1359L40.3291 27.9646L40.0262 28.1692L39.4665 27.3405ZM49.6234 40.4464L39.3615 28.074L40.1312 27.4356L50.3931 39.808L49.6234 40.4464ZM50.438 40.4402L50.2881 40.5415L49.7283 39.7128L49.8783 39.6116L50.438 40.4402ZM73.3541 69.4469L49.7697 40.3407L50.5466 39.7111L74.1311 68.8173L73.3541 69.4469ZM51.0682 65.5047L73.8108 68.6368L73.6744 69.6274L50.9318 66.4954L51.0682 65.5047ZM40.5024 72.4959L50.7199 65.5859L51.2801 66.4142L41.0626 73.3243L40.5024 72.4959ZM94.9396 118.437C85.6421 119.503 74.9049 114.889 65.0686 106.699C55.2179 98.4985 46.1974 86.655 40.3238 73.109L41.2412 72.7112C47.0547 86.1183 55.9819 97.8334 65.7084 105.931C75.4492 114.04 85.9185 118.465 94.8257 117.443L94.9396 118.437ZM106.067 113.323C103.156 116.135 99.4215 117.923 94.9396 118.437L94.8257 117.443C99.0981 116.953 102.626 115.256 105.372 112.604L106.067 113.323ZM105.469 112.531L115.749 106.574L116.251 107.439L105.97 113.396L105.469 112.531ZM115.562 107.248L111.748 100.341L112.624 99.8579L116.438 106.765L115.562 107.248ZM107.161 65.1552C112.856 78.2871 114.558 90.6601 112.677 100.196L111.695 100.003C113.526 90.7214 111.883 78.559 106.244 65.5531L107.161 65.1552ZM59.9177 14.0067C69.2467 12.4516 78.1646 18.6273 86.138 28.3724C94.1348 38.1459 101.311 51.6618 107.161 65.1552L106.244 65.5531C100.408 52.0934 93.2754 38.6747 85.3641 29.0056C77.4295 19.3081 68.8395 13.5333 60.0821 14.9931L59.9177 14.0067ZM44.7226 21.0841C46.9993 19.5663 50.0228 17.9293 52.851 16.6095C55.6637 15.2968 58.3436 14.2691 59.9177 14.0067L60.0821 14.9931C58.6563 15.2308 56.0862 16.2032 53.2739 17.5156C50.4771 18.8208 47.5006 20.4339 45.2773 21.9161L44.7226 21.0841ZM40.6139 25.5393C41.6632 24.0088 42.7714 22.3848 44.7226 21.0841L45.2773 21.9161C43.5058 23.0971 42.493 24.5669 41.4386 26.1048L40.6139 25.5393Z" fill="black" mask="url(#path-1-inside-1_382_5837)"/>
<path d="M85.5185 62.807L50.9535 20.5814L33.9044 31.9965L61.3171 65.8302L85.5185 62.807Z" fill="url(#paint1_linear_382_5837)" stroke="black" stroke-width="0.5"/>
<path d="M52.8292 65.1156L20.0308 68.5473C11.6754 49.5712 11.7552 32.715 18.868 23.4812L35.5909 12.2888L69.7112 54.1932L52.8292 65.1156Z" fill="url(#paint2_linear_382_5837)"/>
<path d="M20 68.5L53 65L70 54L37.4999 57.2076L20 68.5Z" fill="url(#paint3_linear_382_5837)"/>
<path d="M70 54L36.6296 57.7401C28.2772 38.6735 29 22 35.6765 11.9985L70 54Z" fill="url(#paint4_radial_382_5837)"/>
<path d="M51.3699 66.2152C51.8992 67.3706 52.5931 68.6258 53.2594 69.831C53.6064 70.4586 53.9459 71.0727 54.2507 71.6521L54.2515 71.6535C60.4697 83.6602 69.1358 93.9764 78.3617 101.05C87.5935 108.128 97.3548 111.936 105.77 110.991C114.777 109.978 120.591 103.702 122.705 94.3097C124.821 84.9046 123.216 72.3886 117.352 58.9979C111.489 45.6103 102.489 33.8963 92.6806 25.7893C82.8651 17.6767 72.2757 13.2038 63.2306 14.2244L63.2256 14.2249C60.78 14.4501 58.4092 15.1792 56.2572 16.3676C54.1393 17.5372 52.0767 18.8529 50.5873 20.7119L84.6842 62.4608L84.9814 62.8247L84.5157 62.8717L51.3699 66.2152Z" fill="url(#paint5_radial_382_5837)" stroke="black" stroke-width="0.5"/>
<mask id="path-8-inside-2_382_5837" fill="white">
<path fill-rule="evenodd" clip-rule="evenodd" d="M53.1716 65.3074L20.0087 68.9087C11.6327 49.8578 11.7306 32.5591 18.9003 23.271L35.6765 12.0429L35.7406 12L70 54L69.9766 54.0157L70 54.0444L69.9206 54.0533L53.1716 65.3074Z"/>
</mask>
<path d="M20.0087 68.9087L20.0627 69.4058L19.6984 69.4453L19.551 69.1099L20.0087 68.9087ZM53.1716 65.3074L53.4505 65.7224L53.3481 65.7912L53.2256 65.8045L53.1716 65.3074ZM18.9003 23.271L18.5045 22.9655L18.5544 22.9009L18.6222 22.8555L18.9003 23.271ZM35.6765 12.0429L35.3984 11.6274L35.3985 11.6274L35.6765 12.0429ZM35.7406 12L35.4626 11.5845L35.8406 11.3315L36.1281 11.684L35.7406 12ZM70 54L70.3874 53.6839L70.7342 54.109L70.2788 54.415L70 54ZM69.9766 54.0157L69.5894 54.3321L69.2419 53.9069L69.6977 53.6007L69.9766 54.0157ZM70 54.0444L70.3872 53.728L70.9682 54.439L70.0557 54.5413L70 54.0444ZM69.9206 54.0533L69.6418 53.6383L69.7433 53.57L69.8649 53.5564L69.9206 54.0533ZM19.9547 68.4116L53.1176 64.8103L53.2256 65.8045L20.0627 69.4058L19.9547 68.4116ZM19.2961 23.5765C15.8014 28.1038 13.9997 34.6272 14.1248 42.4208C14.2499 50.2094 16.3 59.2311 20.4664 68.7074L19.551 69.1099C15.3414 59.5354 13.2525 50.3823 13.1249 42.4368C12.9974 34.4963 14.8295 27.7263 18.5045 22.9655L19.2961 23.5765ZM35.9546 12.4584L19.1784 23.6865L18.6222 22.8555L35.3984 11.6274L35.9546 12.4584ZM36.0187 12.4155L35.9546 12.4584L35.3985 11.6274L35.4626 11.5845L36.0187 12.4155ZM69.6125 54.316L35.3532 12.316L36.1281 11.684L70.3874 53.6839L69.6125 54.316ZM69.6977 53.6007L69.7211 53.585L70.2788 54.415L70.2554 54.4307L69.6977 53.6007ZM70.3637 53.6993L70.3872 53.728L69.6128 54.3608L69.5894 54.3321L70.3637 53.6993ZM70.0557 54.5413L69.9763 54.5502L69.8649 53.5564L69.9443 53.5475L70.0557 54.5413ZM52.8927 64.8924L69.6418 53.6383L70.1995 54.4683L53.4505 65.7224L52.8927 64.8924Z" fill="black" mask="url(#path-8-inside-2_382_5837)"/>
<path d="M36.7833 57.7061L69.5155 53.8048L35.683 12.6379C32.2351 17.2327 30.46 23.7433 30.5564 31.4517C30.6539 39.2509 32.6677 48.2591 36.7833 57.7061Z" stroke="black" stroke-width="0.5"/>
<path d="M37 57.5L20 68" stroke="black" stroke-width="0.5"/>
<defs>
<linearGradient id="paint0_linear_382_5837" x1="33.9827" y1="31.938" x2="119.669" y2="119.729" gradientUnits="userSpaceOnUse">
<stop stop-color="#A08BFF"/>
<stop offset="0.248878" stop-color="#5A44C0"/>
<stop offset="0.759066" stop-color="#211A4A"/>
</linearGradient>
<linearGradient id="paint1_linear_382_5837" x1="70.6216" y1="39.4284" x2="48.0153" y2="54.1592" gradientUnits="userSpaceOnUse">
<stop stop-color="#9A87F0"/>
<stop offset="1" stop-color="#523EB0"/>
</linearGradient>
<linearGradient id="paint2_linear_382_5837" x1="34.1446" y1="62.7625" x2="15.3189" y2="19.4456" gradientUnits="userSpaceOnUse">
<stop stop-color="#78813B"/>
<stop offset="0.46875" stop-color="#C7D661"/>
<stop offset="1" stop-color="#555C2B"/>
</linearGradient>
<linearGradient id="paint3_linear_382_5837" x1="66.9043" y1="47.4247" x2="25.021" y2="74.727" gradientUnits="userSpaceOnUse">
<stop stop-color="#6A7231"/>
<stop offset="1" stop-color="#1D2009" stop-opacity="0"/>
</linearGradient>
<radialGradient id="paint4_radial_382_5837" cx="0" cy="0" r="1" gradientUnits="userSpaceOnUse" gradientTransform="translate(42.79 39.7244) rotate(146.206) scale(15 26.998)">
<stop stop-color="#F3FEA7"/>
<stop offset="1" stop-color="#DEF356"/>
</radialGradient>
<radialGradient id="paint5_radial_382_5837" cx="0" cy="0" r="1" gradientUnits="userSpaceOnUse" gradientTransform="translate(84.5059 62.6151) rotate(141.061) scale(40.6388 71.219)">
<stop stop-color="#DCD3FF"/>
<stop offset="1" stop-color="#604CDA"/>
</radialGradient>
</defs>
</svg>
