<svg width="140" height="94" viewBox="0 0 140 94" fill="none" xmlns="http://www.w3.org/2000/svg">
<circle cx="1.36955" cy="1.36955" r="1.36955" transform="matrix(-0.960408 0.278599 0.279039 0.96028 3.45605 43.3127)" fill="white"/>
<circle cx="0.684775" cy="0.684775" r="0.684775" transform="matrix(-0.960408 0.278599 0.279039 0.96028 37.6943 80.9753)" fill="white"/>
<path d="M130.805 55.7673L130.805 55.767C131.354 55.16 131.776 54.4553 132.048 53.6932C132.321 52.9311 132.438 52.1264 132.393 51.3251C132.348 50.5237 132.142 49.7412 131.787 49.0221C131.432 48.303 130.934 47.6614 130.322 47.1341C129.711 46.6067 128.997 46.2039 128.221 45.9488C127.445 45.6937 126.623 45.5915 125.802 45.6479C124.981 45.7043 124.177 45.9183 123.436 46.2776C122.695 46.6368 122.031 47.1342 121.483 47.7411L130.805 55.7673ZM130.805 55.7673L116.528 71.6487L116.528 71.6488C115.423 72.8808 113.869 73.641 112.207 73.7608C110.546 73.8805 108.915 73.35 107.673 72.287C106.431 71.2241 105.68 69.716 105.583 68.095C105.487 66.4741 106.053 64.8714 107.158 63.6395C107.158 63.6394 107.158 63.6393 107.158 63.6392L121.483 47.7413L130.805 55.7673Z" fill="url(#paint0_linear_382_6808)" stroke="black" stroke-width="0.342387"/>
<path d="M124.125 63.1364L116.924 71.627C115.778 72.866 114.168 73.632 112.446 73.754C110.722 73.8761 109.031 73.3429 107.745 72.2741C106.458 71.2056 105.682 69.6898 105.583 68.0612C105.484 66.4327 106.07 64.8209 107.215 63.5807C107.215 63.5807 107.215 63.5806 107.215 63.5806L114.652 55.5611C116.464 55.8784 118.728 57.0275 120.099 58.1674C120.79 58.7424 121.672 59.597 122.449 60.5169C123.201 61.4066 123.841 62.3423 124.125 63.1364Z" fill="url(#paint1_linear_382_6808)" stroke="black" stroke-width="0.342387"/>
<path d="M14.0454 32.3007C14.046 32.31 14.0468 32.32 14.0475 32.3308C14.0532 32.4069 14.0624 32.5208 14.0768 32.6705C14.1055 32.9699 14.1548 33.4127 14.2368 33.9839C14.4009 35.1264 14.6959 36.7826 15.2198 38.8328C16.2674 42.9333 18.23 48.6096 21.8891 54.906C29.1995 67.4852 43.2877 82.5506 70.408 92.4675L75.6475 89.9215L74.4778 87.6411L74.4754 87.6366L32.2187 10.9618C26.9534 13.0353 21.9295 15.6929 17.2384 18.8864C18.1657 21.1681 18.3612 23.69 17.7949 26.0932C17.2246 28.5137 15.9113 30.6874 14.0454 32.3007Z" fill="url(#paint2_linear_382_6808)" stroke="black" stroke-width="0.342387"/>
<path d="M89.8627 67.9847C95.4569 53.9291 98.7389 33.6416 89.5008 8.68955C89.4288 8.70284 89.3306 8.72035 89.2091 8.73964C88.9291 8.7841 88.5254 8.83797 88.029 8.87222C87.0367 8.94066 85.6711 8.93086 84.1803 8.60893C81.2126 7.96807 77.7582 6.09086 75.771 1.16959C75.7149 1.16907 75.6382 1.16858 75.5417 1.16843C75.3154 1.16808 74.98 1.1696 74.5448 1.17711C73.6744 1.19212 72.4045 1.2311 70.8083 1.32696C67.6158 1.5187 63.1187 1.93796 57.9027 2.84802C47.5033 4.66244 34.2569 8.42591 22.7919 16.2173C23.7276 18.5 23.9247 21.0232 23.3531 23.4276C22.7773 25.8494 21.4518 28.0241 19.5688 29.638C19.5695 29.6471 19.5702 29.657 19.571 29.6676C19.5767 29.7438 19.5861 29.8577 19.6007 30.0075C19.6299 30.3071 19.6799 30.7503 19.763 31.3219C19.9293 32.4652 20.228 34.1225 20.7577 36.1741C21.8172 40.2774 23.8002 45.9573 27.4945 52.257C34.8721 64.8377 49.0804 79.9015 76.4129 89.8139C76.417 89.8097 76.4212 89.8054 76.4256 89.8008C76.4845 89.7406 76.5719 89.6502 76.6853 89.5299C76.9121 89.2892 77.2429 88.9291 77.6578 88.4526C78.4875 87.4997 79.6531 86.0815 80.9942 84.2228C83.6764 80.5052 87.06 75.0264 89.8627 67.9847Z" fill="url(#paint3_linear_382_6808)" stroke="black" stroke-width="0.342387"/>
<path d="M87.3176 11.5257C87.2543 11.5376 87.1711 11.5526 87.0699 11.569C86.8172 11.6101 86.4529 11.6599 86.0049 11.6914C85.1096 11.7546 83.8772 11.7453 82.5317 11.4474C79.8537 10.8544 76.7397 9.1192 74.9467 4.57935C74.8974 4.57891 74.8325 4.5785 74.7525 4.57836C74.5487 4.578 74.2468 4.57935 73.8548 4.58621C73.0709 4.59993 71.9271 4.6357 70.4895 4.72391C67.614 4.90036 63.5635 5.28658 58.8654 6.12565C49.5009 7.79813 37.5746 11.2679 27.2517 18.4522C28.0932 20.5594 28.2702 22.8875 27.7557 25.106C27.2374 27.3412 26.0441 29.3492 24.348 30.8404C24.3485 30.8474 24.349 30.8547 24.3496 30.8625C24.3547 30.9328 24.3632 31.0379 24.3764 31.1761C24.4027 31.4526 24.4478 31.8615 24.5227 32.389C24.6726 33.4441 24.942 34.9736 25.4194 36.8671C26.3742 40.6542 28.1613 45.8965 31.4898 51.7111C38.1356 63.3209 50.9322 77.2227 75.5452 86.3753C75.5462 86.3742 75.5472 86.3732 75.5483 86.3721C75.6012 86.3166 75.6799 86.2332 75.782 86.1222C75.9861 85.9002 76.284 85.568 76.6575 85.1284C77.4046 84.2492 78.4542 82.9406 79.6619 81.2254C82.0773 77.7949 85.1243 72.739 87.6478 66.2404C92.684 53.2712 95.6374 34.5515 87.3176 11.5257Z" stroke="black" stroke-width="0.342387"/>
<path d="M44.1873 39.7073L46.9128 49.2769L58.2799 45.901L58.4457 45.8518L58.4932 46.018L61.8035 57.606L71.188 54.8274L67.8888 43.2362L67.8425 43.0734L68.0048 43.0252L79.3753 39.6483L76.6379 30.0787L65.2707 33.4546L65.1048 33.5038L65.0574 33.3375L61.7469 21.7374L52.3626 24.528L55.6739 36.1192L55.7205 36.2821L55.558 36.3304L44.1873 39.7073Z" fill="url(#paint4_linear_382_6808)" stroke="black" stroke-width="0.342387"/>
<circle cx="1.36955" cy="1.36955" r="1.36955" transform="matrix(-0.960408 0.278599 0.279039 0.96028 105.487 0.856689)" fill="white"/>
<defs>
<linearGradient id="paint0_linear_382_6808" x1="105.297" y1="60.0908" x2="132.683" y2="59.7204" gradientUnits="userSpaceOnUse">
<stop stop-color="#F6F2FF"/>
<stop offset="1" stop-color="white"/>
</linearGradient>
<linearGradient id="paint1_linear_382_6808" x1="105.362" y1="64.8838" x2="126.364" y2="60.5749" gradientUnits="userSpaceOnUse">
<stop stop-color="#E1F462"/>
<stop offset="1" stop-color="#FBFFE3"/>
</linearGradient>
<linearGradient id="paint2_linear_382_6808" x1="23.5173" y1="16.2385" x2="45.7186" y2="92.6474" gradientUnits="userSpaceOnUse">
<stop stop-color="#785FE7"/>
<stop offset="1" stop-color="#261C69"/>
</linearGradient>
<linearGradient id="paint3_linear_382_6808" x1="57.2113" y1="1.12512" x2="57.84" y2="90.1436" gradientUnits="userSpaceOnUse">
<stop stop-color="#5742D6"/>
<stop offset="1" stop-color="#C2B2FF"/>
</linearGradient>
<linearGradient id="paint4_linear_382_6808" x1="61.6621" y1="21.5254" x2="61.9184" y2="57.8175" gradientUnits="userSpaceOnUse">
<stop stop-color="#E8DCFF"/>
<stop offset="1" stop-color="white"/>
</linearGradient>
</defs>
</svg>
