<svg width="24" height="24" viewBox="0 0 24 24" fill="none" xmlns="http://www.w3.org/2000/svg">
<path d="M5.34783 2.41669C3.99 2.41669 3.00382 3.28735 3.00382 4.48483C3.00382 5.6865 4.01348 6.59551 5.34783 6.59551C6.70565 6.59551 7.69183 5.70803 7.69183 4.4603C7.62922 3.25863 6.66261 2.41669 5.34783 2.41669ZM3.3913 7.437C3.17609 7.437 3 7.62541 3 7.85569V19.998C3 20.2283 3.17609 20.4167 3.3913 20.4167H7.30435C7.51957 20.4167 7.69565 20.2283 7.69565 19.998V7.85569C7.69565 7.62541 7.51957 7.437 7.30435 7.437H3.3913ZM9.26087 7.437C9.04565 7.437 8.86957 7.62541 8.86957 7.85569V19.998C8.86957 20.2283 9.04565 20.4167 9.26087 20.4167H12.7826C12.9986 20.4167 13.1739 20.2291 13.1739 19.998V13.7175V13.6128V13.5081C13.1739 12.5158 13.8863 11.7075 14.7942 11.6322C14.8411 11.6238 14.8878 11.624 14.9348 11.624C14.9817 11.624 15.0285 11.6238 15.0754 11.6322C15.9832 11.7075 16.6957 12.5158 16.6957 13.5081V19.998C16.6957 20.2291 16.871 20.4167 17.087 20.4167H20.6087C20.8239 20.4167 21 20.2283 21 19.998V12.8801C21 10.1711 19.6418 7.437 16.6131 7.437C15.2357 7.437 14.1952 8.00653 13.5652 8.47966V7.85569C13.5652 7.62541 13.3891 7.437 13.1739 7.437H9.26087Z" fill="white"/>
</svg>
