<svg width="127" height="124" viewBox="0 0 127 124" fill="none" xmlns="http://www.w3.org/2000/svg">
<mask id="path-1-inside-1_382_6863" fill="white">
<path fill-rule="evenodd" clip-rule="evenodd" d="M86.9487 23.3274C87.2626 23.7853 87.5757 24.2418 87.9156 24.6859L87.7985 24.8305L88.0619 25.0084L79.1369 35.7689L79.0066 35.6808L58.4947 60.995L78.2744 58.271L87.1607 64.2807C76.9963 87.7223 55.9418 105.259 40.1089 103.444C36.3021 103.007 33.144 101.492 30.684 99.1161L21.7427 93.9349L25.0598 87.9279C23.4457 79.7448 24.9003 69.0754 29.8287 57.7092C39.9932 34.2676 54.717 10.8582 70.447 13.4804C73.0561 13.9153 79.579 16.9594 83.4928 19.5686C85.1116 20.6477 86.034 21.9931 86.9487 23.3274Z"/>
</mask>
<path fill-rule="evenodd" clip-rule="evenodd" d="M86.9487 23.3274C87.2626 23.7853 87.5757 24.2418 87.9156 24.6859L87.7985 24.8305L88.0619 25.0084L79.1369 35.7689L79.0066 35.6808L58.4947 60.995L78.2744 58.271L87.1607 64.2807C76.9963 87.7223 55.9418 105.259 40.1089 103.444C36.3021 103.007 33.144 101.492 30.684 99.1161L21.7427 93.9349L25.0598 87.9279C23.4457 79.7448 24.9003 69.0754 29.8287 57.7092C39.9932 34.2676 54.717 10.8582 70.447 13.4804C73.0561 13.9153 79.579 16.9594 83.4928 19.5686C85.1116 20.6477 86.034 21.9931 86.9487 23.3274Z" fill="url(#paint0_linear_382_6863)"/>
<path d="M87.9156 24.6859L88.2535 24.9596L88.4691 24.6935L88.2609 24.4215L87.9156 24.6859ZM86.9487 23.3274L87.3074 23.0815V23.0815L86.9487 23.3274ZM87.7985 24.8305L87.4606 24.5567L87.162 24.9253L87.555 25.1908L87.7985 24.8305ZM88.0619 25.0084L88.3966 25.286L88.7029 24.9167L88.3053 24.648L88.0619 25.0084ZM79.137 35.7688L78.8935 36.1292L79.2201 36.3498L79.4717 36.0464L79.137 35.7688ZM79.0066 35.6808L79.25 35.3204L78.9197 35.0973L78.6687 35.407L79.0066 35.6808ZM58.4948 60.9949L58.1569 60.7212L57.4644 61.5758L58.5541 61.4257L58.4948 60.9949ZM78.2744 58.2709L78.5181 57.9107L78.3801 57.8174L78.2151 57.8401L78.2744 58.2709ZM87.1608 64.2807L87.5597 64.4537L87.7033 64.1227L87.4044 63.9205L87.1608 64.2807ZM40.1089 103.444L40.0593 103.876L40.1089 103.444ZM30.684 99.1161L30.9861 98.8033L30.9479 98.7664L30.902 98.7398L30.684 99.1161ZM21.7427 93.9349L21.362 93.7247L21.1561 94.0976L21.5246 94.3111L21.7427 93.9349ZM25.0598 87.9279L25.4405 88.1381L25.5171 87.9993L25.4864 87.8437L25.0598 87.9279ZM29.8288 57.7092L30.2277 57.8822L29.8288 57.7092ZM70.4471 13.4804L70.3756 13.9093L70.4471 13.4804ZM83.4928 19.5685L83.2516 19.9304L83.4928 19.5685ZM88.2609 24.4215C87.929 23.988 87.6223 23.5409 87.3074 23.0815L86.5901 23.5733C86.903 24.0296 87.2223 24.4956 87.5704 24.9502L88.2609 24.4215ZM88.1363 25.1042L88.2535 24.9596L87.5778 24.4121L87.4606 24.5567L88.1363 25.1042ZM88.3053 24.648L88.0419 24.4701L87.555 25.1908L87.8185 25.3687L88.3053 24.648ZM79.4717 36.0464L88.3966 25.286L87.7272 24.7308L78.8022 35.4912L79.4717 36.0464ZM78.7632 36.0411L78.8935 36.1292L79.3804 35.4085L79.25 35.3204L78.7632 36.0411ZM58.8326 61.2687L79.3444 35.9545L78.6687 35.407L58.1569 60.7212L58.8326 61.2687ZM78.2151 57.8401L58.4354 60.5642L58.5541 61.4257L78.3338 58.7017L78.2151 57.8401ZM87.4044 63.9205L78.5181 57.9107L78.0308 58.6311L86.9171 64.6409L87.4044 63.9205ZM40.0593 103.876C48.1456 104.803 57.4839 100.79 66.0387 93.668C74.606 86.5355 82.4513 76.2349 87.5597 64.4537L86.7618 64.1077C81.7057 75.7681 73.9416 85.957 65.4823 92.9996C57.0105 100.052 47.9051 103.9 40.1584 103.012L40.0593 103.876ZM30.3819 99.4289C32.9134 101.874 36.1614 103.429 40.0593 103.876L40.1584 103.012C36.4427 102.586 33.3745 101.11 30.9861 98.8033L30.3819 99.4289ZM30.902 98.7398L21.9607 93.5586L21.5246 94.3111L30.466 99.4923L30.902 98.7398ZM22.1234 94.1451L25.4405 88.1381L24.6791 87.7177L21.362 93.7247L22.1234 94.1451ZM29.4298 57.5362C24.4776 68.9572 22.9972 79.7182 24.6332 88.012L25.4864 87.8437C23.8942 79.7715 25.323 69.1936 30.2277 57.8822L29.4298 57.5362ZM70.5186 13.0514C62.4049 11.6989 54.6489 17.07 47.7142 25.5455C40.7593 34.0457 34.5184 45.8007 29.4298 57.5362L30.2277 57.8822C35.3036 46.1761 41.5068 34.5056 48.3874 26.0962C55.2882 17.6621 62.7591 12.6397 70.3756 13.9093L70.5186 13.0514ZM83.734 19.2067C81.7539 17.8867 79.1243 16.463 76.6646 15.315C74.2184 14.1734 71.8876 13.2796 70.5186 13.0514L70.3756 13.9093C71.6156 14.116 73.8508 14.9617 76.2968 16.1032C78.7292 17.2383 81.3179 18.6412 83.2516 19.9304L83.734 19.2067ZM87.3074 23.0815C86.3948 21.7504 85.4309 20.338 83.734 19.2067L83.2516 19.9304C84.7922 20.9575 85.6731 22.2358 86.5901 23.5733L87.3074 23.0815Z" fill="black" mask="url(#path-1-inside-1_382_6863)"/>
<path d="M48.2532 55.494L78.315 18.7697L93.1429 28.6975L69.3016 58.1233L48.2532 55.494Z" fill="url(#paint1_linear_382_6863)" stroke="black" stroke-width="0.434859"/>
<path d="M76.6835 57.5018L105.209 60.4864C112.476 43.9825 112.406 29.3225 106.22 21.2916L91.676 11.5574L62.001 48.0024L76.6835 57.5018Z" fill="url(#paint2_linear_382_6863)"/>
<path d="M105.236 60.4454L76.5352 57.4014L61.75 47.8345L90.0159 50.6242L105.236 60.4454Z" fill="url(#paint3_linear_382_6863)"/>
<path d="M61.75 47.8345L90.7729 51.0873C98.037 34.5047 97.4084 20.0035 91.6017 11.305L61.75 47.8345Z" fill="url(#paint4_radial_382_6863)"/>
<path d="M77.9528 58.4582C77.4925 59.463 76.889 60.5547 76.3095 61.6028C76.0077 62.1487 75.7125 62.6828 75.4473 63.1867L75.4467 63.1879C70.0385 73.6304 62.5015 82.6026 54.4776 88.7545C46.4485 94.9103 37.9589 98.2226 30.6402 97.4C22.8067 96.519 17.7497 91.0609 15.9115 82.8924C14.0708 74.7127 15.4666 63.8272 20.5668 52.1811C25.6658 40.5377 33.4935 30.3498 42.0242 23.299C50.5609 16.2433 59.7707 12.3532 67.6373 13.2408L67.6417 13.2412C69.7687 13.4371 71.8306 14.0712 73.7023 15.1048C75.5442 16.122 77.3381 17.2663 78.6334 18.8831L48.9788 55.1929L48.7203 55.5094L49.1253 55.5502L77.9528 58.4582Z" fill="url(#paint5_radial_382_6863)" stroke="black" stroke-width="0.434859"/>
<mask id="path-8-inside-2_382_6863" fill="white">
<path fill-rule="evenodd" clip-rule="evenodd" d="M76.386 57.6686L105.228 60.8007C112.513 44.2318 112.428 29.1868 106.192 21.1088L91.6017 11.3435L91.546 11.3062L61.7501 47.8343L61.7704 47.848L61.75 47.8729L61.8191 47.8807L76.386 57.6686Z"/>
</mask>
<path d="M105.228 60.8006L105.181 61.233L105.498 61.2674L105.626 60.9757L105.228 60.8006ZM76.386 57.6686L76.1435 58.0295L76.2325 58.0893L76.3391 58.1009L76.386 57.6686ZM106.192 21.1087L106.537 20.843L106.493 20.7868L106.434 20.7474L106.192 21.1087ZM91.6017 11.3435L91.3597 11.7047L91.3599 11.7048L91.6017 11.3435ZM91.546 11.3062L91.7881 10.9449L91.4593 10.7246L91.2091 11.0313L91.546 11.3062ZM61.7501 47.8343L61.4131 47.5594L61.1115 47.9291L61.5076 48.1952L61.7501 47.8343ZM61.7704 47.8479L62.1071 48.1231L62.4093 47.7533L62.0129 47.487L61.7704 47.8479ZM61.75 47.8729L61.4133 47.5978L60.908 48.2161L61.7016 48.3051L61.75 47.8729ZM61.8191 47.8807L62.0617 47.5197L61.9733 47.4604L61.8676 47.4485L61.8191 47.8807ZM105.275 60.3683L76.433 57.2363L76.3391 58.1009L105.181 61.233L105.275 60.3683ZM105.848 21.3745C108.888 25.3119 110.455 30.9855 110.346 37.7636C110.237 44.5376 108.454 52.3839 104.83 60.6256L105.626 60.9757C109.288 52.6485 111.104 44.6879 111.215 37.7776C111.326 30.8716 109.733 24.9836 106.537 20.843L105.848 21.3745ZM91.3599 11.7048L105.951 21.4701L106.434 20.7474L91.8436 10.9821L91.3599 11.7048ZM91.304 11.6674L91.3597 11.7047L91.8438 10.9822L91.7881 10.9449L91.304 11.6674ZM62.0871 48.1091L91.883 11.581L91.2091 11.0313L61.4131 47.5594L62.0871 48.1091ZM62.0129 47.487L61.9926 47.4733L61.5076 48.1952L61.5279 48.2089L62.0129 47.487ZM61.4337 47.5728L61.4133 47.5978L62.0867 48.1481L62.1071 48.1231L61.4337 47.5728ZM61.7016 48.3051L61.7707 48.3128L61.8676 47.4485L61.7984 47.4408L61.7016 48.3051ZM76.6286 57.3076L62.0617 47.5197L61.5766 48.2416L76.1435 58.0295L76.6286 57.3076Z" fill="black" mask="url(#path-8-inside-2_382_6863)"/>
<path d="M90.6392 51.0578L62.1713 47.6647L91.5961 11.8611C94.5948 15.8573 96.1386 21.5196 96.0548 28.2238C95.97 35.0069 94.2186 42.8415 90.6392 51.0578Z" stroke="black" stroke-width="0.434859"/>
<path d="M90.4507 50.8784L105.236 60.0105" stroke="black" stroke-width="0.434859"/>
<circle cx="124.804" cy="14.3502" r="1.30458" fill="white"/>
<circle cx="43.4859" cy="122.63" r="0.869718" fill="white"/>
<circle cx="2.60898" cy="12.1761" r="0.869718" fill="white"/>
<defs>
<linearGradient id="paint0_linear_382_6863" x1="93.0746" y1="28.6466" x2="18.5516" y2="105" gradientUnits="userSpaceOnUse">
<stop stop-color="#A08BFF"/>
<stop offset="0.248878" stop-color="#5A44C0"/>
<stop offset="0.759066" stop-color="#211A4A"/>
</linearGradient>
<linearGradient id="paint1_linear_382_6863" x1="61.2094" y1="35.1613" x2="80.8705" y2="47.9729" gradientUnits="userSpaceOnUse">
<stop stop-color="#9A87F0"/>
<stop offset="1" stop-color="#523EB0"/>
</linearGradient>
<linearGradient id="paint2_linear_382_6863" x1="92.9338" y1="55.4553" x2="109.307" y2="17.7818" gradientUnits="userSpaceOnUse">
<stop stop-color="#78813B"/>
<stop offset="0.46875" stop-color="#C7D661"/>
<stop offset="1" stop-color="#555C2B"/>
</linearGradient>
<linearGradient id="paint3_linear_382_6863" x1="64.4423" y1="42.1158" x2="100.869" y2="65.8612" gradientUnits="userSpaceOnUse">
<stop stop-color="#6A7231"/>
<stop offset="1" stop-color="#1D2009" stop-opacity="0"/>
</linearGradient>
<radialGradient id="paint4_radial_382_6863" cx="0" cy="0" r="1" gradientUnits="userSpaceOnUse" gradientTransform="translate(85.415 35.4188) rotate(33.7938) scale(13.0458 23.4807)">
<stop stop-color="#F3FEA7"/>
<stop offset="1" stop-color="#DEF356"/>
</radialGradient>
<radialGradient id="paint5_radial_382_6863" cx="0" cy="0" r="1" gradientUnits="userSpaceOnUse" gradientTransform="translate(49.1338 55.327) rotate(38.939) scale(35.3443 61.9405)">
<stop stop-color="#DCD3FF"/>
<stop offset="1" stop-color="#604CDA"/>
</radialGradient>
</defs>
</svg>
