<svg width="150" height="23" viewBox="0 0 150 23" fill="none" xmlns="http://www.w3.org/2000/svg">
<path fill-rule="evenodd" clip-rule="evenodd" d="M18.21 8.58238C19.3785 7.43728 20.3198 6.47535 20.6964 6.0356C22.9022 3.44567 23.3141 1.82401 22.6641 1.07954C21.8713 0.162588 19.654 0.746723 17.0213 2.36286C16.9978 2.37728 17.0118 2.41404 17.0388 2.40857C18.3919 1.92992 19.7626 1.77519 20.2559 2.3457C20.6563 2.80873 20.5971 3.51448 20.2163 4.32323C19.7317 5.35258 18.2834 6.99689 17.3088 7.9139C17.2722 7.94835 17.2214 7.89783 17.2526 7.85834C17.8921 7.0465 18.3398 6.19694 18.5669 5.54763C18.7399 5.05288 18.5238 4.54337 18.1212 4.20769C16.1261 2.54846 13.5553 1.75163 10.9742 1.99248C8.3931 2.23332 6.01313 3.49211 4.35778 5.49196C3.36826 6.68466 2.68249 8.10044 2.35946 9.61757C2.08317 10.9151 2.07929 12.2536 2.34514 13.5484C2.4058 13.8438 2.76683 13.941 2.9813 13.729L7.82984 8.93622C8.00646 8.76327 8.21534 8.6269 8.44454 8.5349C8.67374 8.44289 8.91878 8.39705 9.16566 8.39999C9.41253 8.40293 9.65641 8.4546 9.88337 8.55204C10.1103 8.64948 10.3159 8.79078 10.4884 8.96789L10.7202 9.20577C10.8131 9.30114 10.8098 9.45396 10.7124 9.54478C9.92699 10.2773 6.75127 13.243 5.6831 14.3013C5.34936 14.6343 5.05128 14.9481 4.78205 15.2359C3.9293 16.0846 3.26535 16.7724 2.96379 17.1248C0.759152 19.7158 0.348005 21.3376 0.998304 22.0818C1.79159 22.9984 4.00861 22.4132 6.64061 20.7959C6.66409 20.7815 6.65006 20.7447 6.62305 20.7502C5.2702 21.2295 4.27735 21.2509 3.56543 20.7502C3.25187 20.3879 3.05846 19.9457 3.24903 19.2896C3.41454 18.7196 3.65294 18.264 4.00049 17.7704C4.68367 16.8409 5.56229 15.7717 6.3791 15.1688C6.41822 15.1399 6.46147 15.1889 6.43053 15.2265C5.83243 15.9517 5.40173 16.7398 5.13838 17.3952C4.86765 18.069 5.09753 18.8091 5.64203 19.2896C9.44898 22.7465 15.9587 22.1701 19.4055 18.0053C20.4391 16.758 21.1475 15.2728 21.4667 13.6832C21.743 12.3078 21.7205 10.8915 21.404 9.53007C21.3367 9.24037 20.9807 9.14877 20.7689 9.35762L15.8671 14.1921C15.6906 14.3651 15.4818 14.5016 15.2526 14.5937C15.0235 14.6859 14.7785 14.7319 14.5316 14.7291C14.2847 14.7263 14.0408 14.6748 13.8138 14.5775C13.5868 14.4802 13.3811 14.339 13.2085 14.162L12.9747 13.922C12.8825 13.8274 12.8844 13.6766 12.98 13.5855C13.4069 13.1779 14.5599 12.0773 15.6902 10.9976C16.4657 10.2703 17.2399 9.52885 17.9446 8.84177L17.998 8.79053C18.0705 8.72074 18.1411 8.65132 18.21 8.58238ZM10.351 14.5937C10.5801 14.5016 10.7889 14.3651 10.9654 14.1921L15.7392 9.5196C15.8332 9.42757 15.8344 9.27661 15.7419 9.18309L15.5148 8.95364C15.3407 8.77449 15.133 8.63157 14.9037 8.53307C14.6743 8.43457 14.4278 8.38242 14.1784 8.37963C13.9289 8.37683 13.6813 8.42344 13.4498 8.51678C13.2183 8.61012 13.0075 8.74835 12.8294 8.92355L8.07462 13.5846C7.98123 13.6762 7.97952 13.826 8.07079 13.9197L8.30689 14.162C8.47947 14.339 8.68514 14.4802 8.91215 14.5775C9.13916 14.6748 9.38307 14.7263 9.62995 14.7291C9.87683 14.7319 10.1218 14.6859 10.351 14.5937Z" fill="url(#paint0_linear_684_144)"/>
<path d="M28.9443 5.94824H31.3174L34.6871 12.1814L38.041 5.94824H40.3349V17.0224H37.9619V9.98241L35.3516 14.8076H33.9277L31.3174 9.98241V17.0224H28.9443V5.94824Z" fill="white"/>
<path d="M46.3448 17.2123C45.7753 17.2123 45.2321 17.1279 44.7153 16.9592C44.2091 16.7799 43.7661 16.5109 43.3864 16.1523C43.0067 15.7937 42.7061 15.3455 42.4847 14.8076C42.2632 14.2697 42.1524 13.6369 42.1524 12.9092V12.5928C42.1524 11.9072 42.2632 11.306 42.4847 10.7892C42.7061 10.2725 43.0067 9.84003 43.3864 9.49198C43.7661 9.14394 44.2091 8.88554 44.7153 8.71679C45.2321 8.53749 45.7753 8.44785 46.3448 8.44785C46.9143 8.44785 47.4522 8.53749 47.9585 8.71679C48.4647 8.88554 48.9077 9.14394 49.2874 9.49198C49.6776 9.84003 49.9835 10.2725 50.205 10.7892C50.4264 11.306 50.5372 11.9072 50.5372 12.5928V12.9092C50.5372 13.6264 50.4264 14.2539 50.205 14.7918C49.9835 15.3297 49.6776 15.7779 49.2874 16.1365C48.9077 16.4951 48.4647 16.764 47.9585 16.9433C47.4522 17.1226 46.9143 17.2123 46.3448 17.2123ZM46.3448 15.4404C46.9354 15.4404 47.4259 15.2295 47.8161 14.8076C48.2169 14.3857 48.4173 13.7529 48.4173 12.9092V12.5928C48.4173 11.8228 48.2169 11.2375 47.8161 10.8367C47.4259 10.4254 46.9354 10.2197 46.3448 10.2197C45.7436 10.2197 45.2479 10.4254 44.8577 10.8367C44.4675 11.2375 44.2723 11.8228 44.2723 12.5928V12.9092C44.2723 13.7635 44.4675 14.4015 44.8577 14.8234C45.2479 15.2347 45.7436 15.4404 46.3448 15.4404Z" fill="white"/>
<path d="M52.0339 8.63769H53.964V9.88749C54.0589 9.69765 54.1802 9.51835 54.3279 9.3496C54.4861 9.18085 54.6654 9.02792 54.8658 8.89081C55.0767 8.75371 55.3035 8.64824 55.546 8.57441C55.7992 8.49003 56.0681 8.44785 56.3529 8.44785C57.0279 8.44785 57.5552 8.58496 57.9349 8.85917C58.3251 9.13339 58.5994 9.49726 58.7576 9.95077C58.9896 9.50781 59.3218 9.14921 59.7542 8.87499C60.1972 8.59023 60.7193 8.44785 61.3204 8.44785C62.2169 8.44785 62.8972 8.70624 63.3613 9.22304C63.8253 9.72929 64.0574 10.5098 64.0574 11.5644V17.0224H61.9691V12.039C61.9691 11.3746 61.8583 10.9053 61.6369 10.631C61.4259 10.3568 61.0831 10.2197 60.6085 10.2197C60.1867 10.2197 59.8281 10.3832 59.5328 10.7101C59.2374 11.0266 59.0898 11.4695 59.0898 12.039V17.0224H57.0015V12.039C57.0015 11.3746 56.8908 10.9053 56.6693 10.631C56.4583 10.3568 56.1156 10.2197 55.641 10.2197C55.2191 10.2197 54.8605 10.3832 54.5652 10.7101C54.2699 11.0266 54.1222 11.4695 54.1222 12.039V17.0224H52.0339V8.63769Z" fill="white"/>
<path d="M69.6736 17.2123C69.104 17.2123 68.5609 17.1279 68.0441 16.9592C67.5378 16.7799 67.0948 16.5162 66.7152 16.1681C66.3355 15.8096 66.0349 15.3613 65.8134 14.8234C65.5919 14.275 65.4812 13.6369 65.4812 12.9092V12.5928C65.4812 11.8967 65.5866 11.2902 65.7976 10.7734C66.0085 10.2566 66.2986 9.82948 66.6677 9.49198C67.0368 9.14394 67.464 8.88554 67.9491 8.71679C68.4343 8.53749 68.9564 8.44785 69.5154 8.44785C70.8337 8.44785 71.8357 8.79589 72.5212 9.49198C73.2068 10.1881 73.5495 11.1953 73.5495 12.5137V13.3996H67.6169C67.6275 13.7687 67.6908 14.0904 67.8068 14.3646C67.9228 14.6283 68.0757 14.8445 68.2656 15.0133C68.4554 15.182 68.6716 15.3086 68.9142 15.3929C69.1673 15.4668 69.4204 15.5037 69.6736 15.5037C70.2114 15.5037 70.6175 15.4246 70.8917 15.2664C71.1659 15.1082 71.3611 14.8762 71.4771 14.5703H73.3913C73.2226 15.4457 72.806 16.1049 72.1415 16.5478C71.4771 16.9908 70.6544 17.2123 69.6736 17.2123ZM69.5945 10.1564C69.3519 10.1564 69.1093 10.1881 68.8667 10.2514C68.6347 10.3146 68.429 10.4148 68.2497 10.5519C68.0704 10.6891 67.9228 10.8736 67.8068 11.1057C67.6908 11.3377 67.6275 11.6172 67.6169 11.9441H71.5245C71.514 11.5961 71.456 11.306 71.3505 11.074C71.2556 10.842 71.1185 10.6574 70.9392 10.5203C70.7704 10.3832 70.57 10.2883 70.338 10.2355C70.106 10.1828 69.8581 10.1564 69.5945 10.1564Z" fill="white"/>
<path d="M75.0537 8.63769H76.9838V9.87167C77.1842 9.49198 77.5058 9.15976 77.9488 8.87499C78.4023 8.59023 79.0088 8.44785 79.7681 8.44785C80.7912 8.44785 81.5506 8.72206 82.0463 9.2705C82.5525 9.81894 82.8056 10.61 82.8056 11.6435V17.0224H80.7174V12.1182C80.7174 11.4853 80.5855 11.0107 80.3218 10.6943C80.0687 10.3779 79.631 10.2197 79.0088 10.2197C78.6713 10.2197 78.3865 10.2725 78.1545 10.3779C77.9224 10.4834 77.7273 10.6258 77.5691 10.8051C77.4215 10.9738 77.3107 11.1742 77.2369 11.4062C77.1736 11.6277 77.142 11.865 77.142 12.1182V17.0224H75.0537V8.63769Z" fill="white"/>
<path d="M88.0337 17.1174C87.0423 17.1174 86.3199 16.9064 85.8664 16.4845C85.4129 16.0521 85.1861 15.3349 85.1861 14.333V10.3779H84.0787V8.63769H85.1861V6.73926H87.2744V8.63769H89.2994V10.3779H87.2744V14.0166C87.2744 14.4912 87.3588 14.834 87.5275 15.0449C87.7068 15.2453 88.0338 15.3455 88.5084 15.3455C88.8248 15.3455 89.1412 15.3297 89.4576 15.298V17.0383C89.2572 17.0594 89.0462 17.0752 88.8248 17.0857C88.6138 17.1068 88.3502 17.1174 88.0337 17.1174Z" fill="white"/>
<path d="M93.846 17.2123C92.8651 17.2123 92.1268 16.9381 91.6311 16.3896C91.1354 15.8306 90.8876 14.9711 90.8876 13.8109V8.63769H92.9759V13.5262C92.9759 14.159 93.0972 14.6388 93.3397 14.9658C93.5928 15.2822 94.0147 15.4404 94.6053 15.4404C94.9218 15.4404 95.1907 15.3877 95.4122 15.2822C95.6337 15.1767 95.8182 15.0396 95.9659 14.8709C96.1135 14.6916 96.219 14.4859 96.2823 14.2539C96.3561 14.0219 96.393 13.7793 96.393 13.5262V8.63769H98.4813V17.0224H96.5512V15.7885C96.3509 16.1681 96.0292 16.5004 95.5862 16.7851C95.1538 17.0699 94.5737 17.2123 93.846 17.2123Z" fill="white"/>
<path d="M100.375 8.63769H102.306V9.88749C102.4 9.69765 102.522 9.51835 102.669 9.3496C102.828 9.18085 103.007 9.02792 103.207 8.89081C103.418 8.75371 103.645 8.64824 103.888 8.57441C104.141 8.49003 104.41 8.44785 104.694 8.44785C105.369 8.44785 105.897 8.58496 106.276 8.85917C106.667 9.13339 106.941 9.49726 107.099 9.95077C107.331 9.50781 107.663 9.14921 108.096 8.87499C108.539 8.59023 109.061 8.44785 109.662 8.44785C110.558 8.44785 111.239 8.70624 111.703 9.22304C112.167 9.72929 112.399 10.5098 112.399 11.5644V17.0224H110.311V12.039C110.311 11.3746 110.2 10.9053 109.978 10.631C109.767 10.3568 109.425 10.2197 108.95 10.2197C108.528 10.2197 108.17 10.3832 107.874 10.7101C107.579 11.0266 107.431 11.4695 107.431 12.039V17.0224H105.343V12.039C105.343 11.3746 105.232 10.9053 105.011 10.631C104.8 10.3568 104.457 10.2197 103.982 10.2197C103.561 10.2197 103.202 10.3832 102.907 10.7101C102.611 11.0266 102.464 11.4695 102.464 12.039V17.0224H100.375V8.63769Z" fill="white"/>
<path d="M118.49 5.94824H120.863L124.232 12.1814L127.586 5.94824H129.88V17.0224H127.507V9.98241L124.897 14.8076H123.473L120.863 9.98241V17.0224H118.49V5.94824Z" fill="white"/>
<path d="M134.609 17.2123C134.155 17.2123 133.754 17.149 133.406 17.0224C133.058 16.8853 132.763 16.7008 132.52 16.4687C132.278 16.2262 132.093 15.9467 131.967 15.6303C131.84 15.3033 131.777 14.95 131.777 14.5703C131.777 12.8828 132.779 12.039 134.783 12.039H137.282V11.6435C137.282 11.0951 137.156 10.7101 136.903 10.4887C136.66 10.2672 136.27 10.1564 135.732 10.1564C135.257 10.1564 134.915 10.2408 134.704 10.4096C134.493 10.5678 134.371 10.7682 134.34 11.0107H132.251C132.273 10.6521 132.362 10.3146 132.52 9.99823C132.689 9.68183 132.921 9.41288 133.217 9.1914C133.522 8.95937 133.892 8.78007 134.324 8.65351C134.756 8.5164 135.252 8.44785 135.811 8.44785C136.349 8.44785 136.834 8.50585 137.267 8.62187C137.709 8.73788 138.084 8.92773 138.39 9.1914C138.706 9.44452 138.949 9.77675 139.117 10.1881C139.286 10.5994 139.371 11.0951 139.371 11.6752V14.8867C139.371 15.3297 139.376 15.7199 139.386 16.0574C139.408 16.3844 139.439 16.706 139.481 17.0224H137.535C137.493 16.7904 137.467 16.6164 137.456 16.5004C137.456 16.3738 137.456 16.1892 137.456 15.9467C137.224 16.2842 136.871 16.5795 136.396 16.8326C135.932 17.0857 135.336 17.2123 134.609 17.2123ZM135.257 15.5986C135.51 15.5986 135.758 15.567 136.001 15.5037C136.243 15.4299 136.46 15.3244 136.65 15.1873C136.839 15.0396 136.992 14.8551 137.108 14.6336C137.224 14.4121 137.282 14.1537 137.282 13.8584V13.4629H135.178C134.777 13.4629 134.461 13.5578 134.229 13.7476C134.008 13.9269 133.897 14.1748 133.897 14.4912C133.897 14.8287 134.013 15.0976 134.245 15.298C134.477 15.4984 134.814 15.5986 135.257 15.5986Z" fill="white"/>
<path d="M143.329 12.656L140.639 8.63769H142.965L144.8 11.3271L146.604 8.63769H148.866L146.208 12.5769L149.024 17.0224H146.683L144.721 13.89L142.775 17.0224H140.481L143.329 12.656Z" fill="white"/>
<defs>
<linearGradient id="paint0_linear_684_144" x1="4.3057" y1="22.5248" x2="22.9273" y2="6.17648" gradientUnits="userSpaceOnUse">
<stop stop-color="#5135BB"/>
<stop offset="0.546875" stop-color="#715DD9"/>
<stop offset="1" stop-color="#C4ADFF"/>
</linearGradient>
</defs>
</svg>
