<svg width="142" height="12" viewBox="0 0 142 12" fill="none" xmlns="http://www.w3.org/2000/svg">
<path d="M12.6402 11.6063H10.2674V2.28346L7.71545 11.6063H4.86506L2.37284 2.29921V11.6063H0V0.393701H3.95473L6.31264 9.59055L8.65563 0.393701H12.6402V11.6063Z" fill="white"/>
<path d="M14.5622 6C14.5622 4.22572 15.1044 2.78215 16.1888 1.66929C17.2832 0.556431 18.701 0 20.442 0C22.1831 0 23.5959 0.556431 24.6803 1.66929C25.7747 2.78215 26.3219 4.22572 26.3219 6C26.3219 7.77428 25.7747 9.21785 24.6803 10.3307C23.5959 11.4436 22.1831 12 20.442 12C18.701 12 17.2832 11.4488 16.1888 10.3465C15.1044 9.23359 14.5622 7.78478 14.5622 6ZM18.0095 3.32283C17.3827 4.01575 17.0693 4.90814 17.0693 6C17.0693 7.09186 17.3827 7.98425 18.0095 8.67717C18.6363 9.37008 19.4471 9.72178 20.442 9.73228C21.4369 9.73228 22.2478 9.38583 22.8746 8.69291C23.5014 7.9895 23.8148 7.09186 23.8148 6C23.8148 4.90814 23.5014 4.01575 22.8746 3.32283C22.2478 2.61942 21.4369 2.26772 20.442 2.26772C19.4471 2.26772 18.6363 2.61942 18.0095 3.32283Z" fill="white"/>
<path d="M40.8841 11.6063H38.5112V2.28346L35.9593 11.6063H33.1089L30.6167 2.29921V11.6063H28.2439V0.393701H32.1986L34.5565 9.59055L36.8995 0.393701H40.8841V11.6063Z" fill="white"/>
<path d="M45.7162 9.48032H50.9095V11.6063H43.2985V0.393701H50.7603V2.51969H45.7162V4.91339H50.1634V6.80315H45.7162V9.48032Z" fill="white"/>
<path d="M56.4864 0.393701L59.9188 9.77953V0.393701H62.2319V11.6063H58.5607L55.1283 2.23622V11.6063H52.8152V0.393701H56.4864Z" fill="white"/>
<path d="M66.8581 2.59843H63.6645V0.393701H72.5589V2.59843H69.3652V11.6063H66.8581V2.59843Z" fill="white"/>
<path d="M80.9146 6.89764V0.393701H83.4367V6.96063C83.4367 8.45144 82.994 9.66404 82.1085 10.5984C81.223 11.5328 80.0789 12 78.6761 12C77.2633 12 76.1142 11.5328 75.2288 10.5984C74.3433 9.66404 73.9006 8.45144 73.9006 6.96063V0.393701H76.4226V6.89764C76.4226 7.66404 76.6266 8.32546 77.0345 8.88189C77.4424 9.43832 77.9896 9.72178 78.6761 9.73228C79.3427 9.73228 79.8799 9.46982 80.2878 8.94488C80.7057 8.40945 80.9146 7.72703 80.9146 6.89764Z" fill="white"/>
<path d="M98.3774 11.6063H96.0046V2.28346L93.4527 11.6063H90.6023L88.1101 2.29921V11.6063H85.7372V0.393701H89.692L92.0499 9.59055L94.3929 0.393701H98.3774V11.6063Z" fill="white"/>
<path d="M117.994 11.6063H115.621V2.28346L113.069 11.6063H110.219L107.726 2.29921V11.6063H105.353V0.393701H109.308L111.666 9.59055L114.009 0.393701H117.994V11.6063Z" fill="white"/>
<path d="M126.631 7.85827L124.855 1.70079L123.079 7.85827H126.631ZM122.662 9.74803L122.109 11.6063H119.468L122.766 0.393701H126.93L130.228 11.6063H127.601L127.049 9.74803H122.662Z" fill="white"/>
<path d="M136.404 4.96063L138.956 0.393701H141.91L138.627 5.68504L142 11.6063H139.045L136.404 6.48819L133.822 11.6063H130.912L134.135 5.68504L131.001 0.393701H133.911L136.404 4.96063Z" fill="white"/>
</svg>
