<svg width="32" height="32" viewBox="0 0 32 32" fill="none" xmlns="http://www.w3.org/2000/svg">
<path d="M22.1015 5.85253L10.9255 17.0285C10.4987 17.4531 10.1603 17.9581 9.92991 18.5143C9.69955 19.0705 9.58181 19.6669 9.58351 20.2689V21.5C9.58351 21.7431 9.68009 21.9763 9.852 22.1482C10.0239 22.3201 10.2571 22.4167 10.5002 22.4167H11.7313C12.3333 22.4184 12.9297 22.3007 13.4859 22.0703C14.0421 21.8399 14.5471 21.5015 14.9717 21.0747L26.1477 9.89869C26.6834 9.36168 26.9842 8.63413 26.9842 7.87561C26.9842 7.11709 26.6834 6.38954 26.1477 5.85253C25.6029 5.33176 24.8783 5.04114 24.1246 5.04114C23.3709 5.04114 22.6463 5.33176 22.1015 5.85253ZM24.8515 8.60253L13.6755 19.7785C13.1586 20.2923 12.46 20.5814 11.7313 20.5834H11.4168V20.2689C11.4188 19.5402 11.708 18.8416 12.2217 18.3247L23.3977 7.14869C23.5935 6.96165 23.8538 6.85728 24.1246 6.85728C24.3954 6.85728 24.6557 6.96165 24.8515 7.14869C25.044 7.34166 25.152 7.60308 25.152 7.87561C25.152 8.14814 25.044 8.40955 24.8515 8.60253Z" fill="#E3FF77"/>
<path d="M26.0833 13.2308C25.8402 13.2308 25.6071 13.3273 25.4352 13.4992C25.2632 13.6711 25.1667 13.9043 25.1667 14.1474V18.75H21.5C20.7707 18.75 20.0712 19.0397 19.5555 19.5555C19.0397 20.0712 18.75 20.7707 18.75 21.5V25.1667H9.58333C8.85399 25.1667 8.15452 24.8769 7.63879 24.3612C7.12306 23.8455 6.83333 23.146 6.83333 22.4167V9.58333C6.83333 8.85399 7.12306 8.15452 7.63879 7.63879C8.15452 7.12306 8.85399 6.83333 9.58333 6.83333H17.8718C18.1149 6.83333 18.3481 6.73676 18.52 6.56485C18.6919 6.39294 18.7885 6.15978 18.7885 5.91667C18.7885 5.67355 18.6919 5.44039 18.52 5.26849C18.3481 5.09658 18.1149 5 17.8718 5H9.58333C8.3682 5.00146 7.20326 5.48481 6.34404 6.34404C5.48481 7.20326 5.00146 8.3682 5 9.58333L5 22.4167C5.00146 23.6318 5.48481 24.7967 6.34404 25.656C7.20326 26.5152 8.3682 26.9985 9.58333 27H19.9811C20.5833 27.0017 21.1798 26.884 21.7362 26.6536C22.2925 26.4233 22.7977 26.0849 23.2224 25.658L25.6571 23.2215C26.084 22.797 26.4225 22.292 26.653 21.7358C26.8836 21.1796 27.0015 20.5832 27 19.9811V14.1474C27 13.9043 26.9034 13.6711 26.7315 13.4992C26.5596 13.3273 26.3265 13.2308 26.0833 13.2308ZM21.9263 24.3618C21.5578 24.7294 21.0918 24.9839 20.5833 25.0952V21.5C20.5833 21.2569 20.6799 21.0237 20.8518 20.8518C21.0237 20.6799 21.2569 20.5833 21.5 20.5833H25.0979C24.9845 21.0907 24.7304 21.5559 24.3646 21.9253L21.9263 24.3618Z" fill="#E3FF77"/>
</svg>
