<svg width="24" height="24" viewBox="0 0 24 24" fill="none" xmlns="http://www.w3.org/2000/svg">
<path d="M8.2896 20C15.8368 20 19.9648 13.8438 19.9648 8.50515C19.9648 8.3303 19.9648 8.15623 19.9528 7.98295C20.7559 7.41105 21.4491 6.70293 22 5.89176C21.2512 6.21863 20.4567 6.4329 19.6432 6.52738C20.4998 6.02255 21.141 5.22842 21.4472 4.29285C20.6417 4.76347 19.7605 5.09511 18.8416 5.27346C18.2229 4.62577 17.4047 4.19689 16.5135 4.05318C15.6223 3.90947 14.7079 4.05894 13.9116 4.47848C13.1154 4.89801 12.4819 5.56421 12.109 6.37398C11.7361 7.18376 11.6446 8.09196 11.8488 8.95805C10.2174 8.87748 8.62146 8.46005 7.16455 7.73288C5.70763 7.0057 4.4223 5.98501 3.392 4.73708C2.86727 5.62645 2.70656 6.67929 2.94258 7.68123C3.17861 8.68318 3.79362 9.55888 4.6624 10.1301C4.00936 10.1112 3.37054 9.93777 2.8 9.62439V9.67559C2.80026 10.6083 3.12821 11.5123 3.72823 12.2341C4.32824 12.9559 5.16338 13.4512 6.092 13.6359C5.4879 13.7981 4.85406 13.8218 4.2392 13.7052C4.50151 14.5078 5.01202 15.2098 5.69937 15.7128C6.38671 16.2158 7.21652 16.4948 8.0728 16.5107C7.22203 17.1691 6.24776 17.6559 5.20573 17.9433C4.1637 18.2306 3.07435 18.3128 2 18.1853C3.87653 19.3709 6.05994 19.9997 8.2896 19.9969" fill="white"/>
</svg>
